<svg width="63" height="22" viewBox="0 0 63 22" fill="none" xmlns="http://www.w3.org/2000/svg">
<path d="M42.1867 3.73011C42.2585 3.73011 42.2893 3.65827 42.2893 3.62748C42.2893 3.5659 42.2174 3.49406 42.1867 3.52485L41.6222 3.58643V3.68906C41.8377 3.62748 42.0122 3.68906 42.1867 3.73011Z" fill="#007549"/>
<path d="M41.9609 4.05841C42.0326 4.05841 42.0635 3.98657 42.0635 3.95578C42.0635 3.8942 42.0326 3.85315 41.9609 3.85315L41.3964 3.95578V4.05841C41.6119 3.9763 41.7761 4.02762 41.9609 4.05841Z" fill="#007549"/>
<path d="M41.7556 4.39718C41.8274 4.39718 41.8583 4.32535 41.8583 4.29455C41.8583 4.22271 41.7864 4.19193 41.7248 4.19193L41.1604 4.32534L41.1912 4.39718C41.417 4.30482 41.5812 4.36639 41.7556 4.39718Z" fill="#007549"/>
<path d="M41.5197 4.76666C41.5915 4.76666 41.6223 4.73587 41.6223 4.66403C41.5915 4.59219 41.5505 4.5614 41.4889 4.5614L40.9244 4.72561L40.9552 4.79745C41.1502 4.73587 41.3555 4.7564 41.5197 4.76666Z" fill="#007549"/>
<path d="M41.3246 5.12586C41.3554 5.12586 41.3965 5.06427 41.3965 4.99243C41.3965 4.96164 41.3246 4.92059 41.263 4.92059L40.7294 5.15665L40.7601 5.22849C40.9552 5.14638 41.1399 5.11559 41.3246 5.12586Z" fill="#007549"/>
<path d="M41.0578 5.56714C41.0886 5.56714 41.1296 5.4953 41.1296 5.46451C41.1296 5.40293 41.0578 5.36188 40.9963 5.36188L40.4625 5.59793L40.4933 5.66977C40.6883 5.5774 40.8731 5.54661 41.0578 5.56714Z" fill="#007549"/>
<path d="M40.8833 5.96739C40.9552 5.96739 40.986 5.89555 40.9552 5.83398C40.9552 5.80319 40.8833 5.7724 40.8218 5.7724L40.2881 5.97766L40.3189 6.08029C40.5241 5.97766 40.6986 5.94687 40.8833 5.96739Z" fill="#007549"/>
<path d="M40.75 6.36767C40.8218 6.33684 40.8527 6.29582 40.8218 6.23423C40.8218 6.16239 40.75 6.13162 40.6885 6.16239L40.1548 6.36767L40.1856 6.42925C40.3908 6.36767 40.555 6.3471 40.75 6.36767Z" fill="#007549"/>
<path d="M40.6164 6.73711C40.6472 6.70634 40.6882 6.6345 40.6472 6.57291C40.6472 6.54214 40.5856 6.50107 40.5138 6.50107L40.0109 6.76793L40.0417 6.83977C40.2572 6.74742 40.4214 6.7166 40.6164 6.73711Z" fill="#007549"/>
<path d="M40.4523 7.16819C40.5241 7.16819 40.5549 7.1066 40.5241 7.03476C40.5241 7.00393 40.4523 6.96291 40.3907 7.00399L39.8878 7.2708L39.9186 7.33238C40.093 7.24003 40.2881 7.20921 40.4523 7.16819Z" fill="#007549"/>
<path d="M40.3189 7.64027C40.3907 7.64027 40.4215 7.56843 40.3907 7.50684C40.3599 7.47602 40.3189 7.435 40.2573 7.435L39.7544 7.73263L39.7852 7.80447C39.9597 7.71211 40.1546 7.67104 40.3189 7.64027Z" fill="#007549"/>
<path d="M42.4947 3.39138C42.5255 3.39138 42.5973 3.36059 42.5973 3.28875C42.5973 3.21692 42.5255 3.18613 42.4639 3.18613L41.8994 3.28875V3.36059C42.1252 3.28875 42.31 3.36059 42.4947 3.39138Z" fill="#007549"/>
<path d="M42.7614 3.06302C42.7922 3.06302 42.864 3.03223 42.864 2.96038C42.8332 2.88855 42.7922 2.85776 42.7306 2.85776L42.1661 2.96038V3.03223C42.3817 2.99118 42.5664 2.99118 42.7614 3.06302Z" fill="#007549"/>
<path d="M43.0591 2.75512C43.1309 2.75512 43.1617 2.68328 43.1617 2.62171C43.1617 2.59092 43.1309 2.51907 43.0591 2.51907L42.4946 2.62171V2.68328C42.7101 2.64223 42.8846 2.71407 43.0591 2.75512Z" fill="#007549"/>
<path d="M43.295 2.38565C43.3669 2.35487 43.3977 2.31381 43.3977 2.25223C43.3977 2.18039 43.3259 2.1496 43.2643 2.1496L42.7306 2.31381V2.41644C42.9358 2.31381 43.1103 2.36513 43.295 2.38565Z" fill="#007549"/>
<path d="M42.5561 1.92381C42.5561 1.86223 42.4843 1.82117 42.4227 1.86223C42.3509 1.86223 42.3201 1.92381 42.3509 1.99564L42.5561 2.52932L42.628 2.49854C42.5459 2.29327 42.5561 2.10854 42.5561 1.92381Z" fill="#007549"/>
<path d="M42.2586 2.15982C42.2586 2.12903 42.1867 2.08798 42.1252 2.08798C42.0944 2.08798 42.0533 2.15982 42.0533 2.2214L42.2586 2.75507H42.3304C42.2586 2.54981 42.2381 2.34456 42.2586 2.15982Z" fill="#007549"/>
<path d="M41.961 2.45747C41.961 2.39589 41.8891 2.35484 41.8275 2.39589C41.7557 2.39589 41.7249 2.45747 41.7557 2.5293L42.0225 3.16561H42.0943C41.9815 2.9193 41.9712 2.67299 41.961 2.45747Z" fill="#007549"/>
<path d="M41.6941 2.7551C41.6633 2.68325 41.5914 2.65247 41.5607 2.65247C41.4888 2.68325 41.458 2.7243 41.458 2.78589L41.7249 3.45298L41.7967 3.42219C41.653 3.1964 41.6838 2.96036 41.6941 2.7551Z" fill="#007549"/>
<path d="M41.4272 3.02192C41.4272 2.95007 41.3554 2.95007 41.2938 2.95007C41.263 2.98086 41.2219 3.02192 41.2219 3.08349L41.5196 3.71981H41.5914C41.4888 3.48376 41.4067 3.25797 41.4272 3.02192Z" fill="#007549"/>
<path d="M41.1194 3.39141C41.0886 3.36062 41.0475 3.32983 40.9859 3.32983C40.9141 3.36062 40.8833 3.43247 40.9141 3.49404L41.2117 4.13034L41.2836 4.09955C41.181 3.85324 41.1091 3.63772 41.1194 3.39141Z" fill="#007549"/>
<path d="M40.8525 3.79159C40.8525 3.73001 40.7806 3.73001 40.7191 3.73001C40.6882 3.7608 40.6472 3.83264 40.6472 3.86343L40.9448 4.49973L41.0167 4.46894C40.914 4.2329 40.8422 4.01737 40.8525 3.79159Z" fill="#007549"/>
<path d="M40.6165 4.13037C40.6165 4.09958 40.5447 4.05853 40.4831 4.09958C40.4523 4.09958 40.4216 4.16116 40.4523 4.233L40.791 4.83852L40.8629 4.80773C40.7397 4.57168 40.6473 4.35616 40.6165 4.13037Z" fill="#007549"/>
<path d="M40.442 4.48951C40.4112 4.41766 40.3394 4.41766 40.3085 4.41766C40.247 4.44845 40.2059 4.5203 40.247 4.58187L40.5857 5.1874L40.6883 5.15661C40.5343 4.93082 40.4317 4.72556 40.442 4.48951Z" fill="#007549"/>
<path d="M40.1854 4.85897C40.1545 4.82819 40.0827 4.79739 40.0519 4.82819C39.9801 4.85897 39.9801 4.93081 40.0212 4.99239L40.4214 5.55685L40.483 5.52607C40.3496 5.31054 40.2264 5.09502 40.1854 4.85897Z" fill="#007549"/>
<path d="M40.0211 5.26949C39.9903 5.23871 39.9185 5.20792 39.8877 5.23871C39.8158 5.26949 39.7851 5.34134 39.8158 5.37213L40.2161 5.97764L40.2879 5.94685C40.1545 5.7108 40.0519 5.49528 40.0211 5.26949Z" fill="#007549"/>
<path d="M39.857 5.56711C39.8262 5.53632 39.7544 5.49526 39.7236 5.53632C39.6517 5.56711 39.6517 5.63894 39.6928 5.70053L40.1239 6.23422L40.1957 6.2034C40.0212 5.98789 39.8981 5.79289 39.857 5.56711Z" fill="#007549"/>
<path d="M39.6824 5.89553C39.6516 5.82369 39.5798 5.82369 39.549 5.86474C39.4772 5.89553 39.4772 5.96737 39.5182 5.99816L39.9903 6.53181L40.0622 6.50104C39.8672 6.32659 39.7748 6.09053 39.6824 5.89553Z" fill="#007549"/>
<path d="M39.5799 6.23427C39.5491 6.20345 39.4772 6.20345 39.4465 6.23427C39.3746 6.26503 39.3746 6.33688 39.4157 6.36764L39.8467 6.90137L39.9185 6.87055C39.7543 6.65502 39.6312 6.47031 39.5799 6.23427Z" fill="#007549"/>
<path d="M39.4157 6.70626C39.3849 6.63442 39.3131 6.63442 39.2515 6.67549C39.2207 6.70626 39.2207 6.7781 39.2515 6.83969L39.7236 7.34259L39.7954 7.28101C39.6004 7.10655 39.5081 6.88077 39.4157 6.70626Z" fill="#007549"/>
<path d="M39.2822 7.10663C39.2514 7.07587 39.1796 7.07587 39.1488 7.10663C39.118 7.13745 39.0769 7.2093 39.118 7.24006L39.6209 7.77373L39.6927 7.70189C39.5182 7.51718 39.3746 7.33242 39.2822 7.10663Z" fill="#007549"/>
<path d="M39.1796 7.64033C39.1078 7.60951 39.0462 7.56849 39.0154 7.64033C38.9846 7.6711 38.9846 7.74294 39.0154 7.77371L39.5183 8.27661L39.5799 8.20477C39.3952 8.02006 39.231 7.86612 39.1796 7.64033Z" fill="#007549"/>
<path d="M39.1181 8.20472C39.0873 8.17395 39.0155 8.14318 38.9539 8.20472C38.9231 8.23554 38.9231 8.30738 38.9539 8.33815L39.4568 8.84105L39.5286 8.77946C39.3234 8.61526 39.2105 8.37922 39.1181 8.20472Z" fill="#007549"/>
<path d="M39.0154 8.84101C38.9846 8.81024 38.9128 8.81024 38.8512 8.84101C38.8204 8.87183 38.8204 8.94367 38.8512 8.97444L39.3541 9.47734L39.4157 9.44652C39.231 9.2413 39.0668 9.07705 39.0154 8.84101Z" fill="#007549"/>
<path d="M38.9539 9.47737C38.9231 9.44655 38.8513 9.40553 38.8204 9.47737C38.7897 9.50814 38.7589 9.57998 38.8204 9.61075L39.3233 10.0829L39.3952 10.0521C39.2002 9.86735 39.0463 9.6929 38.9539 9.47737Z" fill="#007549"/>
<path d="M38.9539 10.1137C38.882 10.0418 38.8205 10.0418 38.7897 10.0829C38.7589 10.1444 38.7589 10.2163 38.7897 10.2471L39.3233 10.6781L39.3952 10.6473C39.1694 10.5037 39.0565 10.2881 38.9539 10.1137Z" fill="#007549"/>
<path d="M38.9127 10.6781C38.8409 10.6473 38.7793 10.6473 38.7485 10.6781C38.7177 10.7397 38.7177 10.8115 38.7793 10.8423L39.3848 11.2118L39.4156 11.14C39.2001 11.0271 39.0564 10.8423 38.9127 10.6781Z" fill="#007549"/>
<path d="M38.9539 11.2836C38.8821 11.2528 38.8205 11.2836 38.7897 11.3144C38.759 11.376 38.7897 11.4478 38.8205 11.4786L39.4568 11.7763L39.4876 11.7147C39.2413 11.5915 39.0566 11.4991 38.9539 11.2836Z" fill="#007549"/>
<path d="M39.0155 11.8789C38.9436 11.8481 38.882 11.8789 38.8513 11.9097C38.8204 11.9816 38.8513 12.0431 38.882 12.0739L39.5183 12.3715L39.5491 12.31C39.3131 12.1971 39.1283 12.0944 39.0155 11.8789Z" fill="#007549"/>
<path d="M39.0873 12.4844C39.0154 12.4537 38.9539 12.4844 38.9231 12.5152C38.9231 12.587 38.9231 12.6486 38.9949 12.6486L39.662 12.8847L39.6928 12.8231C39.4568 12.7307 39.231 12.6384 39.0873 12.4844Z" fill="#007549"/>
<path d="M39.149 12.9565C39.0771 12.9257 39.0156 12.9565 39.0156 13.0284C38.9848 13.0592 39.0155 13.131 39.0464 13.1618L39.7135 13.3979L39.7442 13.326C39.5185 13.2234 39.3132 13.1207 39.149 12.9565Z" fill="#007549"/>
<path d="M39.2515 13.3876C39.1797 13.3568 39.1489 13.3876 39.1181 13.4492C39.0873 13.4799 39.1181 13.5518 39.1489 13.5826L39.816 13.8186L39.8468 13.7468C39.621 13.6544 39.4157 13.562 39.2515 13.3876Z" fill="#007549"/>
<path d="M39.3543 13.757C39.2824 13.7262 39.2208 13.757 39.1901 13.7878C39.1901 13.8596 39.1901 13.9212 39.2208 13.952L39.9905 14.3522L40.0624 14.2804C39.7956 14.1264 39.5082 13.9828 39.3543 13.757Z" fill="#007549"/>
<path d="M40.2162 8.14312C40.288 8.11236 40.288 8.04051 40.288 7.97893C40.2573 7.94811 40.1854 7.90708 40.1238 7.94811L39.5183 8.31758L39.5491 8.38942C39.7646 8.21497 40.0109 8.1842 40.2162 8.14312Z" fill="#007549"/>
<path d="M40.1238 8.63575C40.1545 8.60493 40.1956 8.53309 40.1545 8.50232C40.1238 8.43048 40.0519 8.43048 40.0212 8.4715L39.4567 8.90256L39.4874 8.96415C39.6927 8.81021 39.8877 8.68703 40.1238 8.63575Z" fill="#007549"/>
<path d="M40.0828 9.21052C40.1547 9.1797 40.1547 9.10786 40.1136 9.07709C40.0828 9.00525 40.011 9.00525 39.9802 9.04627L39.4158 9.47733L39.4465 9.53892C39.6621 9.38497 39.857 9.25154 40.0828 9.21052Z" fill="#007549"/>
<path d="M40.0212 9.77495C40.0931 9.74418 40.0931 9.67234 40.052 9.61075C40.0212 9.57999 39.9494 9.57999 39.8878 9.61075L39.3849 10.0828L39.4157 10.1444C39.6004 9.95971 39.8365 9.8673 40.0212 9.77495Z" fill="#007549"/>
<path d="M39.9905 10.3497C40.0623 10.3189 40.0623 10.2471 40.0212 10.2163C39.9905 10.1445 39.9186 10.1445 39.8878 10.1855L39.3541 10.6884L39.426 10.7602C39.5902 10.5857 39.7954 10.4626 39.9905 10.3497Z" fill="#007549"/>
<path d="M40.0212 10.8424C40.0931 10.8115 40.0931 10.7397 40.0212 10.6781C39.9905 10.6473 39.9186 10.6473 39.8879 10.6781L39.4158 11.2118L39.4773 11.2837C39.6312 11.0681 39.8468 10.945 40.0212 10.8424Z" fill="#007549"/>
<path d="M40.052 11.3144C40.0828 11.2836 40.0828 11.2118 40.052 11.1502C40.0212 11.1194 39.9494 11.1194 39.9186 11.1502L39.4465 11.6839L39.4773 11.7557C39.6723 11.5402 39.816 11.376 40.052 11.3144Z" fill="#007549"/>
<path d="M40.0827 11.8481C40.1136 11.8173 40.1136 11.7455 40.0827 11.7147C40.052 11.6531 39.9801 11.6839 39.9186 11.7147L39.5183 12.2792L39.5799 12.3099C39.7235 12.115 39.9185 11.9815 40.0827 11.8481Z" fill="#007549"/>
<path d="M40.1854 12.3203C40.2162 12.2484 40.2162 12.1868 40.1854 12.156C40.1136 12.1252 40.052 12.1252 40.0212 12.1868L39.6517 12.7923L39.7236 12.8232C39.8365 12.6076 40.0315 12.4536 40.1854 12.3203Z" fill="#007549"/>
<path d="M40.4522 13.3876C40.4831 13.3157 40.4831 13.2541 40.4215 13.2234C40.3907 13.1926 40.3188 13.1926 40.2881 13.2541L39.9186 13.8597L39.9904 13.8905C40.1239 13.6647 40.247 13.4902 40.4522 13.3876Z" fill="#007549"/>
<path d="M40.6885 13.8905C40.7192 13.8187 40.6885 13.7571 40.6576 13.7263C40.5858 13.6955 40.5242 13.7263 40.4934 13.7571L40.1548 14.455L40.2266 14.4858C40.3497 14.2291 40.4627 14.0137 40.6885 13.8905Z" fill="#007549"/>
<path d="M40.3187 12.7821C40.3495 12.7102 40.3188 12.6486 40.2879 12.6178C40.2161 12.587 40.1545 12.6178 40.1545 12.6486L39.785 13.3465L39.8569 13.3773C39.9595 13.1413 40.1545 12.9463 40.3187 12.7821Z" fill="#007549"/>
<path d="M42.9975 1.95458C40.9962 3.92508 39.7236 6.29584 39.3542 8.87183C38.9847 11.4786 39.5594 14.1162 40.9962 16.4973C41.027 16.5588 41.0989 16.5588 41.1605 16.528C41.222 16.4973 41.222 16.4254 41.1912 16.3946C39.7852 14.0546 39.2207 11.4786 39.5902 8.90266C39.9597 6.39845 41.1605 4.01744 43.1309 2.11879C43.2028 2.088 43.2028 2.01616 43.1309 1.95458C43.0899 1.92379 43.0283 1.92379 42.9975 1.95458Z" fill="#007549"/>
<path d="M58.7001 3.73011C58.628 3.73011 58.597 3.65827 58.597 3.62748C58.597 3.5659 58.628 3.49406 58.7001 3.52485L59.2645 3.58643V3.68906C59.049 3.62748 58.8846 3.68906 58.7001 3.73011Z" fill="#007549"/>
<path d="M58.9361 4.05841C58.8639 4.05841 58.833 3.98657 58.833 3.95578C58.833 3.8942 58.8639 3.85315 58.9361 3.85315L59.5004 3.95578V4.05841C59.285 3.9763 59.1103 4.02762 58.9361 4.05841Z" fill="#007549"/>
<path d="M59.131 4.39718C59.0594 4.39718 59.0284 4.32535 59.0284 4.29455C59.0284 4.22271 59.1001 4.19193 59.1619 4.19193L59.7263 4.32534L59.6953 4.39718C59.4799 4.30482 59.3155 4.36639 59.131 4.39718Z" fill="#007549"/>
<path d="M59.367 4.76666C59.2953 4.76666 59.2644 4.73587 59.2644 4.66403C59.2953 4.59219 59.336 4.5614 59.3979 4.5614L59.9622 4.72561L59.9313 4.79745C59.7365 4.73587 59.5314 4.7564 59.367 4.76666Z" fill="#007549"/>
<path d="M59.5721 5.12586C59.5417 5.12586 59.4695 5.06427 59.5005 4.99243C59.5005 4.96164 59.5721 4.92059 59.6339 4.92059L60.1673 5.15665L60.137 5.22849C59.9313 5.14638 59.7571 5.11559 59.5721 5.12586Z" fill="#007549"/>
<path d="M59.8391 5.56714C59.8082 5.56714 59.7365 5.4953 59.7675 5.46451C59.7675 5.40293 59.8391 5.36188 59.9004 5.36188L60.4344 5.59793L60.4034 5.66977C60.1983 5.5774 60.0236 5.54661 59.8391 5.56714Z" fill="#007549"/>
<path d="M60.0035 5.96739C59.9314 5.96739 59.9004 5.89555 59.9314 5.83398C59.9314 5.80319 60.0035 5.7724 60.0649 5.7724L60.5988 5.97766L60.5679 6.08029C60.3731 5.97766 60.188 5.94687 60.0035 5.96739Z" fill="#007549"/>
<path d="M60.1364 6.36767C60.0648 6.33684 60.0339 6.29582 60.0648 6.23423C60.0648 6.16239 60.1364 6.13162 60.1983 6.16239L60.7317 6.36767L60.7013 6.42925C60.506 6.36767 60.3318 6.3471 60.1364 6.36767Z" fill="#007549"/>
<path d="M60.27 6.73711C60.2396 6.70634 60.2087 6.6345 60.2396 6.57291C60.2396 6.54214 60.3009 6.50107 60.3731 6.50107L60.8756 6.76793L60.8452 6.83977C60.6395 6.74742 60.4757 6.7166 60.27 6.73711Z" fill="#007549"/>
<path d="M60.4035 7.16819C60.3731 7.16819 60.3318 7.1066 60.3731 7.03476C60.3731 7.00393 60.4447 6.96291 60.506 7.00399L61.009 7.2708L60.9781 7.33238C60.7833 7.25029 60.5988 7.1887 60.4035 7.16819Z" fill="#007549"/>
<path d="M60.5988 7.67104C60.5266 7.67104 60.4756 7.56843 60.506 7.49659C60.5369 7.46577 60.5782 7.42474 60.6395 7.42474L61.1425 7.72237L61.1116 7.79422C60.9374 7.71212 60.7627 7.71212 60.5988 7.67104Z" fill="#007549"/>
<path d="M58.4022 3.39138C58.3713 3.39138 58.2997 3.36059 58.2997 3.28875C58.2997 3.21692 58.3713 3.18613 58.4332 3.18613L58.9975 3.28875V3.36059C58.7615 3.28875 58.5873 3.36059 58.4022 3.39138Z" fill="#007549"/>
<path d="M58.1353 3.06302C58.1049 3.06302 58.0327 3.03223 58.0327 2.96038C58.0327 2.88855 58.1049 2.85776 58.1662 2.85776L58.7305 2.96038V3.03223C58.4945 2.96038 58.31 3.02197 58.1353 3.06302Z" fill="#007549"/>
<path d="M57.8275 2.75512C57.7559 2.75512 57.694 2.68328 57.725 2.62171C57.725 2.59092 57.7559 2.51907 57.8275 2.51907L58.3918 2.62171V2.68328C58.1867 2.64223 58.012 2.71407 57.8275 2.75512Z" fill="#007549"/>
<path d="M57.6019 2.38565C57.5298 2.35487 57.4994 2.31381 57.4994 2.25223C57.4994 2.18039 57.571 2.1496 57.6329 2.1496L58.1663 2.31381V2.41644C57.9509 2.31381 57.7761 2.36513 57.6019 2.38565Z" fill="#007549"/>
<path d="M58.1456 1.9853C58.125 1.92372 58.1869 1.87241 58.2585 1.89293C58.3203 1.87241 58.3714 1.93398 58.3507 2.00583L58.2791 2.57029L58.2075 2.54976C58.2482 2.3445 58.1869 2.17003 58.1456 1.9853Z" fill="#007549"/>
<path d="M58.6383 2.15982C58.6383 2.12903 58.7099 2.08798 58.7718 2.08798C58.8027 2.08798 58.8434 2.15982 58.8434 2.2214L58.6383 2.75507H58.5667C58.628 2.54981 58.6589 2.34456 58.6383 2.15982Z" fill="#007549"/>
<path d="M58.9362 2.45747C58.9362 2.39589 59.0078 2.35484 59.0692 2.39589C59.1413 2.39589 59.1413 2.45747 59.1413 2.5293L58.8744 3.16561H58.8027C58.9156 2.9193 58.9156 2.66272 58.9362 2.45747Z" fill="#007549"/>
<path d="M59.2025 2.7551C59.2335 2.68325 59.2747 2.65247 59.336 2.65247C59.4082 2.68325 59.4386 2.7243 59.4386 2.78589L59.1721 3.45298L59.1 3.42219C59.2335 3.18614 59.2025 2.96036 59.2025 2.7551Z" fill="#007549"/>
<path d="M59.4696 3.02192C59.4696 2.95007 59.5412 2.95007 59.6031 2.95007C59.634 2.98086 59.6747 3.02192 59.6747 3.08349L59.3773 3.71981H59.3052C59.4083 3.48376 59.4799 3.25797 59.4696 3.02192Z" fill="#007549"/>
<path d="M59.7674 3.39141C59.7978 3.36062 59.839 3.32983 59.9003 3.32983C59.9725 3.36062 60.0034 3.43247 59.9725 3.49404C59.9416 3.52483 59.9003 3.55562 59.8699 3.55562L59.6643 4.12008L59.5927 4.08929L59.7978 3.52483C59.7674 3.49404 59.7364 3.46325 59.7674 3.39141Z" fill="#007549"/>
<path d="M60.0339 3.79159C60.0339 3.73001 60.1061 3.73001 60.1674 3.73001C60.1983 3.7608 60.2396 3.83264 60.2396 3.86343L59.9417 4.49973L59.8391 4.46894C59.9623 4.2329 60.0442 4.01737 60.0339 3.79159Z" fill="#007549"/>
<path d="M60.2699 4.13037C60.2699 4.09958 60.342 4.05853 60.4033 4.09958C60.4343 4.09958 60.4652 4.16116 60.4343 4.233L60.0957 4.83852L60.0338 4.79747C60.1467 4.57168 60.2395 4.35616 60.2699 4.13037Z" fill="#007549"/>
<path d="M60.5059 4.56136C60.5369 4.49979 60.609 4.49979 60.6394 4.49979C60.7116 4.53057 60.742 4.60242 60.7116 4.66399L60.3725 5.26951L60.2699 5.23872C60.4137 5.00267 60.5162 4.79741 60.5059 4.56136Z" fill="#007549"/>
<path d="M60.7013 4.85897C60.7317 4.82819 60.8039 4.79739 60.8348 4.82819C60.9065 4.85897 60.9065 4.93081 60.8652 4.99239L60.4653 5.55685L60.4034 5.52607C60.5472 5.31054 60.6704 5.09502 60.7013 4.85897Z" fill="#007549"/>
<path d="M60.8755 5.26949C60.9064 5.23871 60.9781 5.20792 61.009 5.23871C61.0708 5.26949 61.0708 5.34134 61.0708 5.37213L60.6704 5.97764L60.5988 5.94685C60.7317 5.7108 60.8348 5.49528 60.8755 5.26949Z" fill="#007549"/>
<path d="M61.0399 5.56711C61.0708 5.53632 61.1424 5.49526 61.1734 5.53632C61.245 5.56711 61.245 5.63894 61.2038 5.70053L60.7729 6.23422L60.7013 6.2034C60.8652 5.98789 60.9987 5.79289 61.0399 5.56711Z" fill="#007549"/>
<path d="M61.2043 5.89553C61.2347 5.82369 61.3069 5.82369 61.3372 5.86474C61.3991 5.89553 61.3991 5.96737 61.3682 5.99816L60.8961 6.53181L60.8245 6.50104C61.0193 6.32659 61.1218 6.09053 61.2043 5.89553Z" fill="#007549"/>
<path d="M61.3069 6.23427C61.3373 6.20345 61.4095 6.20345 61.4404 6.23427C61.512 6.26503 61.512 6.33688 61.4708 6.36764L61.0399 6.90137L60.9678 6.87055C61.1322 6.65502 61.2657 6.47031 61.3069 6.23427Z" fill="#007549"/>
<path d="M61.4708 6.70626C61.5017 6.63442 61.5733 6.63442 61.6352 6.67549C61.6661 6.70626 61.6661 6.7781 61.6352 6.83969L61.1631 7.34259L61.0909 7.28101C61.2966 7.10655 61.3888 6.88077 61.4708 6.70626Z" fill="#007549"/>
<path d="M61.6043 7.10663C61.6352 7.07587 61.7069 7.07587 61.7378 7.10663C61.7687 7.13745 61.8094 7.2093 61.7687 7.24006L61.2657 7.77373L61.1941 7.70189C61.3786 7.51718 61.5224 7.33242 61.6043 7.10663Z" fill="#007549"/>
<path d="M61.7068 7.64033C61.7377 7.60951 61.8094 7.56849 61.8712 7.64033C61.9021 7.6711 61.9021 7.74294 61.8712 7.77371L61.3682 8.27661L61.3069 8.20477C61.5017 8.02006 61.6558 7.86612 61.7068 7.64033Z" fill="#007549"/>
<path d="M61.779 8.20472C61.8094 8.17395 61.8816 8.14318 61.9429 8.20472C61.9738 8.23554 61.9738 8.30738 61.9429 8.33815L61.4404 8.84105L61.3785 8.77946C61.5733 8.61526 61.6764 8.37922 61.779 8.20472Z" fill="#007549"/>
<path d="M61.8712 8.84101C61.9021 8.81024 61.9738 8.81024 62.0356 8.84101C62.066 8.87183 62.066 8.94367 62.0356 8.97444L61.5326 9.47734L61.4604 9.44652C61.6661 9.2413 61.8197 9.07705 61.8712 8.84101Z" fill="#007549"/>
<path d="M61.9427 9.47737C61.9737 9.44655 62.0453 9.40553 62.0762 9.47737C62.1072 9.50814 62.1484 9.57998 62.0762 9.61075L61.5732 10.0829L61.5016 10.0521C61.6964 9.86735 61.8505 9.6929 61.9427 9.47737Z" fill="#007549"/>
<path d="M61.9427 10.1137C62.0046 10.0418 62.0762 10.0418 62.1072 10.0829C62.1381 10.1444 62.1381 10.2163 62.1072 10.2471L61.5732 10.6781L61.5016 10.6473C61.717 10.5037 61.8505 10.2676 61.9427 10.1137Z" fill="#007549"/>
<path d="M61.9738 10.6781C62.0454 10.6473 62.1072 10.6473 62.1382 10.6781C62.1686 10.7397 62.1382 10.8115 62.1072 10.8423L61.5017 11.2118L61.4301 11.14C61.6661 11.0373 61.83 10.8423 61.9738 10.6781Z" fill="#007549"/>
<path d="M61.9428 11.2836C62.0047 11.2528 62.0763 11.2836 62.1072 11.3144C62.1382 11.376 62.1072 11.4478 62.0763 11.4786L61.4404 11.7763L61.4094 11.7147C61.6455 11.5915 61.83 11.4991 61.9428 11.2836Z" fill="#007549"/>
<path d="M61.8712 11.8789C61.9428 11.8481 62.0047 11.8789 62.0356 11.9097C62.0356 11.9816 62.0356 12.0431 62.0047 12.0739L61.3682 12.3715L61.3069 12.31C61.563 12.1971 61.7583 12.0944 61.8712 11.8789Z" fill="#007549"/>
<path d="M61.8093 12.4844C61.8815 12.4537 61.9428 12.4844 61.9737 12.5152C61.9737 12.587 61.9737 12.6486 61.9021 12.6486L61.2347 12.8847L61.2037 12.8231C61.4403 12.7307 61.6557 12.6384 61.8093 12.4844Z" fill="#007549"/>
<path d="M61.7377 12.9565C61.8093 12.9257 61.8712 12.9565 61.8712 13.0284C61.9021 13.0592 61.8712 13.131 61.8403 13.1618L61.1734 13.3979L61.1425 13.326C61.3682 13.2234 61.5733 13.1207 61.7377 12.9565Z" fill="#007549"/>
<path d="M61.6456 13.3876C61.6765 13.3568 61.7481 13.3876 61.779 13.4492C61.8094 13.4799 61.779 13.5518 61.7481 13.5826L61.0812 13.8186L61.0503 13.7468C61.2657 13.6544 61.4811 13.562 61.6456 13.3876Z" fill="#007549"/>
<path d="M61.543 13.757C61.6146 13.7262 61.6764 13.757 61.6764 13.7878C61.7068 13.8596 61.7068 13.9212 61.6764 13.952L60.9065 14.3522L60.8348 14.2804C61.1013 14.1264 61.3785 13.9828 61.543 13.757Z" fill="#007549"/>
<path d="M60.6704 8.14312C60.5988 8.11236 60.5988 8.04051 60.5988 7.97893C60.6291 7.94811 60.7013 7.90708 60.7626 7.94811L61.3682 8.31758L61.3373 8.38942C61.1322 8.21497 60.8858 8.1842 60.6704 8.14312Z" fill="#007549"/>
<path d="M60.7729 8.63575C60.742 8.60493 60.7013 8.53309 60.742 8.50232C60.7729 8.43048 60.8451 8.43048 60.8755 8.4715L61.4403 8.90256L61.4094 8.96415C61.194 8.81021 60.9986 8.68703 60.7729 8.63575Z" fill="#007549"/>
<path d="M60.8038 9.21052C60.7316 9.1797 60.7316 9.10786 60.7729 9.07709C60.8038 9.00525 60.8754 9.00525 60.9063 9.04627L61.4707 9.47733L61.4403 9.53892C61.2449 9.37472 60.9986 9.29262 60.8038 9.21052Z" fill="#007549"/>
<path d="M60.8756 9.77495C60.8039 9.74418 60.8039 9.67234 60.8452 9.61075C60.8756 9.57999 60.9477 9.57999 61.009 9.61075C61.04 9.64152 61.04 9.68259 61.04 9.71336L61.5121 10.0828L61.4811 10.1444L60.9781 9.77495C60.9374 9.80577 60.9065 9.80577 60.8756 9.77495Z" fill="#007549"/>
<path d="M60.8755 10.3497C60.8451 10.3189 60.8451 10.2471 60.8755 10.2163C60.9064 10.1445 60.978 10.1445 61.0089 10.1855L61.5429 10.6884L61.4707 10.75C61.2862 10.5755 61.1012 10.4318 60.8755 10.3497Z" fill="#007549"/>
<path d="M60.8755 10.8424C60.8039 10.8115 60.8039 10.7397 60.8755 10.6781C60.9064 10.6473 60.9781 10.6473 61.009 10.6781L61.4811 11.2118L61.4094 11.2837C61.2656 11.0681 61.0399 10.945 60.8755 10.8424Z" fill="#007549"/>
<path d="M60.8451 11.3144C60.8142 11.2836 60.8142 11.2118 60.8451 11.1502C60.8755 11.1194 60.9477 11.1194 60.978 11.1502L61.4501 11.6839L61.4197 11.7557C61.2244 11.5402 61.0708 11.376 60.8451 11.3144Z" fill="#007549"/>
<path d="M60.8038 11.8481C60.7729 11.8173 60.7729 11.7455 60.8038 11.7147C60.8348 11.6531 60.9064 11.6839 60.9373 11.7147L61.3682 12.2792L61.3068 12.3099C61.1734 12.115 60.978 11.9815 60.8038 11.8481Z" fill="#007549"/>
<path d="M60.7013 12.3203C60.6704 12.2484 60.6704 12.1868 60.7013 12.156C60.7626 12.1252 60.8348 12.1252 60.8652 12.1868L61.2347 12.7923L61.1631 12.8232C61.0605 12.6076 60.8652 12.4536 60.7013 12.3203Z" fill="#007549"/>
<path d="M60.4344 13.3876C60.4034 13.3157 60.4034 13.2541 60.4653 13.2234C60.4957 13.1926 60.5679 13.1926 60.5988 13.2541L60.9683 13.8597L60.8961 13.8905C60.7936 13.6749 60.5988 13.5313 60.4344 13.3876Z" fill="#007549"/>
<path d="M60.2086 13.8905C60.1777 13.8187 60.2086 13.7571 60.2395 13.7263C60.3112 13.6955 60.3725 13.7263 60.4034 13.7571L60.742 14.455L60.6704 14.4858C60.5369 14.2291 60.4343 14.0137 60.2086 13.8905Z" fill="#007549"/>
<path d="M60.5679 12.7821C60.537 12.7102 60.537 12.6486 60.5989 12.6178C60.6292 12.587 60.7014 12.6178 60.7318 12.6486L61.1013 13.3465L61.04 13.3773C60.9375 13.1413 60.7318 12.9463 60.5679 12.7821Z" fill="#007549"/>
<path d="M57.8992 1.95458C59.9004 3.92508 61.1734 6.29584 61.543 8.87183C61.9125 11.4786 61.3373 14.1162 59.9004 16.4973C59.8701 16.5588 59.7675 16.5588 59.7366 16.528C59.6644 16.4973 59.6644 16.4254 59.7056 16.3946C61.1116 14.0546 61.6764 11.4786 61.3069 8.90266C60.9374 6.39845 59.7366 4.01744 57.7658 2.11879C57.6941 2.088 57.6941 2.01616 57.7658 1.95458C57.7967 1.92379 57.8689 1.92379 57.8992 1.95458Z" fill="#007549"/>
<path d="M50.3972 2.17008C48.1496 2.17008 46.0457 3.03217 44.4549 4.60241C42.8744 6.17263 42.002 8.25603 42.002 10.4626C42.002 15.0296 45.7685 18.7448 50.3869 18.7551C55.0158 18.7551 58.7821 15.0399 58.7821 10.4626V10.4523C58.7821 5.88529 55.0255 2.17008 50.3972 2.17008ZM50.3972 18.9911C45.6351 18.9911 41.766 15.163 41.7557 10.4626C41.7557 8.18419 42.6486 6.03923 44.2804 4.42794C45.9122 2.81665 48.0777 1.92377 50.3869 1.92377C55.1487 1.92377 59.0181 5.75187 59.0285 10.4523V10.4626C59.0285 15.163 55.159 18.9911 50.3972 18.9911Z" fill="#007549"/>
<path d="M46.2817 19.0732H46.9077C43.4696 17.6672 41.0373 14.2907 41.027 10.36C41.027 7.84554 42.002 5.48503 43.7775 3.69927C45.553 1.92377 47.9135 0.938521 50.4279 0.938521C55.6207 0.938521 59.8391 5.15662 59.8391 10.3497V10.36C59.8391 12.8744 58.8537 15.2349 57.0782 17.0104C56.1753 17.9135 55.1286 18.6011 53.9789 19.0732H54.605C55.58 18.6114 56.4727 17.9751 57.2633 17.1848C59.0897 15.3581 60.0958 12.936 60.0958 10.3497V10.3394C60.0958 5.01293 55.7542 0.681946 50.4279 0.681946C45.1014 0.681946 40.7601 5.0232 40.7704 10.3497C40.7807 14.1983 43.0385 17.5236 46.2817 19.0732Z" fill="#C9AB5C"/>
<path d="M60.1673 15.2965L59.7159 13.9212C58.9052 16.1175 57.2833 17.9545 55.2311 19.0835V21.3721H54.9846V21.7826C58.5563 20.3767 61.2965 17.3388 62.302 13.562L60.1673 15.2965Z" fill="#C9AB5C"/>
<path d="M45.6555 21.3722V19.0836H45.6761C43.6132 17.9854 41.9609 16.2099 41.1501 14.0136L40.7191 15.2965L38.5844 13.5518C39.5901 17.3286 42.3303 20.3664 45.9019 21.7725V21.3619H45.6555V21.3722Z" fill="#C9AB5C"/>
<path d="M45.6967 21.3311H55.1899V19.1245H45.6967V21.3311ZM55.2822 21.4132H45.6146V19.0424H55.2822V21.4132Z" fill="#C9AB5C"/>
<path d="M50.4485 19.5043C50.0482 19.5043 49.7301 19.8224 49.7301 20.2227C49.7301 20.623 50.0482 20.9411 50.4485 20.9411C50.8487 20.9411 51.1669 20.623 51.1669 20.2227C51.1669 19.8224 50.8385 19.5043 50.4485 19.5043ZM50.4485 21.054C49.9867 21.054 49.6172 20.6743 49.6172 20.2227C49.6172 19.7609 49.9969 19.3914 50.4485 19.3914C50.9103 19.3914 51.2798 19.7609 51.2798 20.2227C51.2798 20.6845 50.9103 21.054 50.4485 21.054Z" fill="#9D1531"/>
<path d="M52.8807 19.5043C52.4805 19.5043 52.1623 19.8224 52.1623 20.2227C52.1623 20.623 52.4805 20.9411 52.8807 20.9411C53.281 20.9411 53.5992 20.623 53.5992 20.2227C53.5992 19.8224 53.281 19.5043 52.8807 19.5043ZM52.8807 21.054C52.4189 21.054 52.0494 20.6743 52.0494 20.2227C52.0494 19.7609 52.4292 19.3914 52.8807 19.3914C53.3426 19.3914 53.712 19.7609 53.712 20.2227C53.712 20.6845 53.3426 21.054 52.8807 21.054Z" fill="#9D1531"/>
<path d="M51.6594 19.5043C51.2592 19.5043 50.941 19.8224 50.941 20.2227C50.941 20.623 51.2592 20.9411 51.6594 20.9411C52.0597 20.9411 52.3779 20.623 52.3779 20.2227C52.3779 19.8224 52.0597 19.5043 51.6594 19.5043ZM51.6594 21.054C51.1976 21.054 50.8281 20.6743 50.8281 20.2227C50.8281 19.7609 51.2079 19.3914 51.6594 19.3914C52.1212 19.3914 52.4907 19.7609 52.4907 20.2227C52.501 20.6845 52.1212 21.054 51.6594 21.054Z" fill="#9D1531"/>
<path d="M49.2272 19.5043C48.8269 19.5043 48.5088 19.8224 48.5088 20.2227C48.5088 20.623 48.8269 20.9411 49.2272 20.9411C49.6275 20.9411 49.9456 20.623 49.9456 20.2227C49.9456 19.8224 49.6275 19.5043 49.2272 19.5043ZM49.2272 21.054C48.7653 21.054 48.3959 20.6743 48.3959 20.2227C48.3959 19.7609 48.7756 19.3914 49.2272 19.3914C49.689 19.3914 50.0585 19.7609 50.0585 20.2227C50.0688 20.6845 49.689 21.054 49.2272 21.054Z" fill="#9D1531"/>
<path d="M48.0161 19.5043C47.6159 19.5043 47.2977 19.8224 47.2977 20.2227C47.2977 20.623 47.6159 20.9411 48.0161 20.9411C48.4164 20.9411 48.7345 20.623 48.7345 20.2227C48.7345 19.8224 48.4061 19.5043 48.0161 19.5043ZM48.0161 21.054C47.5543 21.054 47.1848 20.6743 47.1848 20.2227C47.1848 19.7609 47.5645 19.3914 48.0161 19.3914C48.4779 19.3914 48.8474 19.7609 48.8474 20.2227C48.8474 20.6845 48.4779 21.054 48.0161 21.054Z" fill="#9D1531"/>
<path d="M46.7948 19.5043C46.3946 19.5043 46.0764 19.8224 46.0764 20.2227C46.0764 20.623 46.3946 20.9411 46.7948 20.9411C47.195 20.9411 47.5132 20.623 47.5132 20.2227C47.5132 19.8224 47.195 19.5043 46.7948 19.5043ZM46.7948 21.054C46.333 21.054 45.9635 20.6743 45.9635 20.2227C45.9635 19.7609 46.3432 19.3914 46.7948 19.3914C47.2566 19.3914 47.6261 19.7609 47.6261 20.2227C47.6261 20.6845 47.2566 21.054 46.7948 21.054Z" fill="#9D1531"/>
<path d="M54.102 19.5043C53.7018 19.5043 53.3837 19.8224 53.3837 20.2227C53.3837 20.623 53.7018 20.9411 54.102 20.9411C54.5023 20.9411 54.8205 20.623 54.8205 20.2227C54.8102 19.8224 54.4921 19.5043 54.102 19.5043ZM54.102 21.054C53.6402 21.054 53.2708 20.6743 53.2708 20.2227C53.2708 19.7609 53.6402 19.3914 54.102 19.3914C54.5639 19.3914 54.9334 19.7609 54.9334 20.2227C54.9334 20.6845 54.5536 21.054 54.102 21.054Z" fill="#9D1531"/>
<path d="M57.0375 13.6852C57.0272 13.6441 57.0271 13.6031 57.0271 13.5723C57.0271 13.5415 57.0168 13.521 57.0168 13.5005C57.0065 13.4799 56.9962 13.4594 56.9962 13.4286C56.9962 13.3978 56.9962 13.3465 56.9859 13.3259C56.9756 13.2952 56.955 13.2952 56.9447 13.2849C56.9344 13.2747 56.9246 13.2747 56.9143 13.2644C56.9143 13.2541 56.904 13.2336 56.904 13.2233C56.8937 13.2131 56.8834 13.2131 56.8834 13.2028C56.8834 13.1926 56.8834 13.1823 56.8834 13.1617C56.8834 13.1515 56.873 13.1412 56.8627 13.1412C56.8524 13.1412 56.8421 13.1515 56.8421 13.1617C56.8421 13.172 56.8318 13.1925 56.8215 13.1925C56.8112 13.2028 56.7911 13.2028 56.7808 13.2028C56.7705 13.2028 56.7602 13.2131 56.7705 13.2233C56.7705 13.2336 56.7911 13.2438 56.8014 13.2541C56.8112 13.2644 56.8112 13.2747 56.8014 13.2849C56.7911 13.2952 56.7808 13.3054 56.7808 13.3259C56.7705 13.3465 56.7705 13.367 56.7705 13.3773C56.7705 13.3875 56.7602 13.3978 56.7602 13.3978C56.7499 13.3978 56.7396 13.3978 56.7293 13.3978C56.7189 13.3978 56.7086 13.3978 56.6983 13.408C56.688 13.4184 56.6886 13.4286 56.6886 13.4389C56.6782 13.4491 56.6679 13.4696 56.6576 13.4696C56.6473 13.4696 56.637 13.4491 56.6267 13.4491C56.6164 13.4491 56.6061 13.4491 56.5958 13.4594C56.5855 13.4696 56.5855 13.4901 56.5855 13.5005C56.5855 13.5107 56.5958 13.521 56.6061 13.5312C56.6164 13.5415 56.6164 13.5517 56.6164 13.562C56.6164 13.5723 56.6164 13.5826 56.6164 13.5826C56.6164 13.5826 56.6061 13.5723 56.5958 13.5723C56.5855 13.5723 56.5654 13.5826 56.5551 13.5928C56.5448 13.6031 56.5551 13.6133 56.5654 13.6133C56.5751 13.6236 56.5855 13.6236 56.5958 13.6338C56.6061 13.6441 56.6061 13.6544 56.5958 13.6544C56.5855 13.6646 56.5751 13.6646 56.5654 13.6646C56.5551 13.6646 56.5344 13.6749 56.5344 13.6852C56.5241 13.6954 56.5241 13.7057 56.5241 13.7159C56.5241 13.7262 56.5138 13.7365 56.5035 13.7467C56.4932 13.757 56.4829 13.757 56.4829 13.7467C56.4829 13.7365 56.4932 13.7262 56.5035 13.7057C56.5138 13.6954 56.5138 13.6749 56.5035 13.6749C56.4932 13.6749 56.4726 13.6749 56.4623 13.6954C56.452 13.7057 56.4422 13.7262 56.4422 13.7467C56.4422 13.757 56.4422 13.7775 56.4422 13.7775C56.4422 13.7878 56.452 13.7878 56.4623 13.7878C56.4726 13.7878 56.4726 13.7981 56.4623 13.8083C56.452 13.8186 56.4319 13.8186 56.4216 13.8186C56.4113 13.8186 56.4113 13.7981 56.3907 13.7981C56.3803 13.7981 56.3494 13.7981 56.3391 13.8083C56.3293 13.8186 56.3293 13.8186 56.319 13.8288C56.3087 13.8288 56.3087 13.8391 56.2984 13.8391C56.2881 13.8391 56.2778 13.8494 56.2778 13.8596C56.2778 13.8699 56.2778 13.8802 56.2881 13.8904C56.2881 13.9007 56.2984 13.9109 56.2984 13.9109C56.2984 13.9212 56.2984 13.9315 56.2881 13.9315C56.2778 13.9315 56.2572 13.9315 56.2469 13.9212C56.2365 13.9109 56.2262 13.9007 56.2159 13.8904C56.2062 13.8904 56.1752 13.8904 56.1649 13.9007C56.1546 13.9109 56.1443 13.9212 56.134 13.9315C56.1237 13.9418 56.1134 13.9418 56.0933 13.9418C56.0727 13.9418 56.0521 13.9315 56.0314 13.9418C56.0108 13.952 56.0108 13.9623 56.0005 13.9725C55.9902 13.9828 55.9799 13.993 55.9598 13.993C55.9392 13.993 55.9186 13.993 55.898 13.993C55.8773 14.0033 55.8773 14.0136 55.8773 14.0341C55.8773 14.0546 55.8773 14.0751 55.867 14.0957C55.8567 14.1265 55.8263 14.1572 55.8057 14.1881C55.7851 14.2188 55.7748 14.2599 55.7748 14.3009C55.7748 14.3523 55.7954 14.4036 55.816 14.4446C55.8366 14.4857 55.8366 14.4857 55.8366 14.5062C55.8366 14.5267 55.8263 14.5473 55.8366 14.5678C55.8469 14.5883 55.867 14.6088 55.8773 14.6191C55.8876 14.6396 55.8876 14.6499 55.8876 14.6704C55.8876 14.691 55.8876 14.7217 55.8773 14.7422C55.8773 14.7628 55.8773 14.7833 55.867 14.8038C55.8567 14.8243 55.8263 14.8346 55.8057 14.8552C55.7851 14.8757 55.7748 14.8962 55.7748 14.9167C55.7748 14.9373 55.7645 14.968 55.7542 14.9783C55.7438 14.9989 55.7238 15.0091 55.7135 15.0194C55.7032 15.0399 55.6928 15.0604 55.6825 15.0707C55.6722 15.0912 55.6722 15.1015 55.6619 15.122C55.6516 15.1425 55.631 15.1733 55.631 15.2143C55.631 15.2554 55.6516 15.2965 55.6619 15.3272C55.6825 15.358 55.6928 15.3786 55.6928 15.3991C55.6928 15.4196 55.6928 15.4504 55.6825 15.4812C55.6825 15.512 55.6722 15.5428 55.6722 15.5735C55.6722 15.6044 55.6722 15.6249 55.6928 15.6454C55.7135 15.6659 55.7238 15.6762 55.7341 15.6967C55.7438 15.7172 55.7438 15.7275 55.7438 15.7481C55.7438 15.7686 55.7438 15.7891 55.7542 15.7993C55.7645 15.8096 55.7851 15.8199 55.8057 15.8301C55.8263 15.8301 55.8469 15.8404 55.867 15.8404C55.8876 15.8507 55.898 15.8609 55.9186 15.8814C55.9392 15.8917 55.9598 15.9122 55.9902 15.9122C56.0211 15.9122 56.0727 15.902 56.0933 15.8917C56.1237 15.8712 56.134 15.8507 56.1443 15.8404C56.1546 15.8301 56.1649 15.8301 56.1959 15.8301C56.2262 15.8301 56.2675 15.8301 56.3087 15.8199C56.3391 15.8096 56.3597 15.7788 56.3803 15.7481C56.401 15.7172 56.4319 15.6659 56.4422 15.6351C56.452 15.6044 56.452 15.5735 56.4726 15.553C56.4829 15.5325 56.5035 15.512 56.5138 15.4812C56.5241 15.4504 56.5344 15.4093 56.5344 15.3683C56.5344 15.3375 56.5344 15.3067 56.5448 15.2759C56.5551 15.2451 56.5751 15.1938 56.5958 15.1528C56.6164 15.1117 56.6267 15.0707 56.637 15.0399C56.6473 15.0091 56.6473 14.9783 56.6576 14.9373C56.6679 14.8962 56.6782 14.8449 56.6886 14.8141C56.6983 14.7833 56.7189 14.7628 56.7293 14.7422C56.7396 14.7115 56.7396 14.6807 56.7499 14.6396C56.7602 14.6088 56.7705 14.578 56.7911 14.537C56.8112 14.5062 56.8421 14.4651 56.8627 14.4036C56.8834 14.342 56.8834 14.2497 56.8834 14.1983C56.8834 14.147 56.8937 14.1367 56.904 14.1265C56.9246 14.1265 56.9447 14.1265 56.9653 14.1162C56.9859 14.106 56.9962 14.0957 57.0065 14.0854C57.0065 14.0751 57.0065 14.0649 56.9962 14.0649C56.9859 14.0649 56.9653 14.0649 56.955 14.0649C56.9447 14.0546 56.9447 14.0444 56.955 14.0239C56.9653 14.0033 56.9756 13.993 56.9653 13.9623C56.9653 13.9315 56.9447 13.9007 56.9344 13.8699C56.9246 13.8391 56.9344 13.8083 56.9447 13.7981C56.955 13.7878 56.9653 13.7878 56.9756 13.7981C56.9859 13.8083 56.9859 13.8288 56.9962 13.8494C57.0065 13.8699 57.0168 13.8904 57.0271 13.8904C57.0375 13.8904 57.0575 13.8802 57.0678 13.8494C57.0782 13.8288 57.0885 13.7878 57.0885 13.757C57.0678 13.757 57.0472 13.7262 57.0375 13.6852Z" fill="#C9AB5C"/>
<path d="M57.0989 8.57417C57.0989 8.56391 57.1093 8.55366 57.1093 8.55366C57.1093 8.5434 57.1093 8.53309 57.1093 8.52284C57.0989 8.51258 57.0886 8.50233 57.068 8.50233C57.0479 8.49207 57.0273 8.49207 57.0067 8.50233C56.9964 8.51258 56.9964 8.52284 56.9861 8.53309C56.9861 8.53309 56.9861 8.5434 56.9758 8.5434C56.9655 8.55366 56.9552 8.55366 56.9448 8.56391C56.9145 8.58442 56.8938 8.58442 56.8423 8.59468C56.7913 8.60494 56.7088 8.6255 56.6578 8.63576C56.6475 8.63576 56.6372 8.63576 56.6269 8.64601C56.5959 8.64601 56.5655 8.65627 56.5449 8.65627C56.514 8.65627 56.4831 8.66652 56.4624 8.66652C56.4527 8.66652 56.4527 8.66652 56.4424 8.66652H56.4321C56.4114 8.66652 56.3908 8.66652 56.3702 8.67678C56.3496 8.68703 56.3295 8.69734 56.3089 8.71785C56.2986 8.72811 56.278 8.73837 56.2573 8.73837C56.2264 8.74862 56.1857 8.74862 56.1548 8.74862C56.1342 8.74862 56.1239 8.73837 56.1135 8.73837C56.0935 8.73837 56.0832 8.74862 56.0522 8.75888C56.0419 8.76919 56.0213 8.76913 56.0007 8.77944C55.9801 8.7897 55.96 8.7897 55.9394 8.79995C55.9084 8.81021 55.8672 8.82047 55.8471 8.81021C55.8265 8.79995 55.7956 8.79995 55.7646 8.77944C55.7343 8.75888 55.7033 8.72811 55.6724 8.69734L55.6621 8.68703C55.6518 8.67678 55.6415 8.66652 55.6214 8.64601C55.6008 8.6255 55.5801 8.60494 55.5595 8.59468C55.5389 8.58442 55.5286 8.58442 55.508 8.58442C55.4982 8.58442 55.4879 8.58442 55.4776 8.58442C55.4673 8.58442 55.457 8.57417 55.4673 8.56391C55.4673 8.55366 55.4879 8.55366 55.508 8.5434C55.5183 8.5434 55.5183 8.54335 55.5286 8.53309C55.5492 8.53309 55.5698 8.52284 55.5801 8.51258C55.5905 8.50233 55.6008 8.49207 55.6008 8.48181C55.6008 8.47156 55.6008 8.45099 55.5905 8.43048C55.5801 8.40997 55.5698 8.38941 55.5595 8.36889C55.5492 8.34838 55.5389 8.33813 55.5183 8.32787C55.508 8.31756 55.4879 8.31756 55.4776 8.31756H55.4673C55.4467 8.30731 55.4363 8.30731 55.4363 8.29705C55.4363 8.29705 55.4364 8.29705 55.426 8.2868C55.426 8.27654 55.4157 8.26628 55.4054 8.26628C55.3951 8.25603 55.3951 8.25603 55.3848 8.24577C55.375 8.23546 55.3647 8.22521 55.3544 8.22521C55.3441 8.21495 55.3338 8.2047 55.3235 8.19444C55.3235 8.18419 55.3132 8.17393 55.3132 8.17393C55.3029 8.16362 55.2926 8.15337 55.2822 8.14311C55.2822 8.14311 55.2719 8.14311 55.2622 8.13285C55.2519 8.13285 55.2519 8.1226 55.2415 8.1226C55.2312 8.11234 55.2209 8.10209 55.2209 8.09178C55.2209 8.08152 55.2106 8.08152 55.2003 8.06101C55.19 8.05075 55.1591 8.03024 55.1488 8.00968C55.139 8.00968 55.139 7.99942 55.1287 7.99942C55.1287 7.99942 55.1287 7.99942 55.1184 7.99942C55.1081 7.99942 55.0874 7.98917 55.0771 7.97891C55.0771 7.97891 55.0668 7.97891 55.0668 7.96866C55.0565 7.9584 55.0565 7.94814 55.0359 7.94814C55.0261 7.93783 55.0055 7.94814 54.9848 7.93783C54.9745 7.93783 54.9643 7.93783 54.954 7.92758C54.9438 7.92758 54.9335 7.91732 54.9232 7.89681C54.9232 7.89681 54.9232 7.88656 54.913 7.88656C54.913 7.8763 54.9027 7.85574 54.8924 7.84548C54.8822 7.83523 54.8719 7.83523 54.8617 7.83523C54.8514 7.83523 54.8411 7.83523 54.8308 7.84548V7.85574C54.8308 7.85574 54.8308 7.85574 54.8308 7.86599C54.8308 7.8763 54.8308 7.8763 54.8206 7.88656C54.8206 7.88656 54.8103 7.88656 54.8103 7.8763C54.8103 7.86599 54.8001 7.84548 54.7898 7.83523C54.7898 7.82497 54.7796 7.81471 54.7796 7.7942C54.7693 7.77364 54.759 7.76338 54.7487 7.74287C54.7487 7.74287 54.7487 7.73261 54.7385 7.73261C54.7385 7.72236 54.7282 7.71205 54.7282 7.71205C54.718 7.70179 54.718 7.68128 54.7077 7.66077C54.7077 7.65052 54.7077 7.65052 54.7077 7.64021C54.7077 7.61969 54.6975 7.59918 54.6975 7.57867C54.6872 7.54785 54.6769 7.51708 54.6666 7.49657C54.6564 7.46575 54.6461 7.44524 54.6359 7.43499C54.6256 7.42473 54.6256 7.41442 54.6154 7.39391C54.6051 7.38365 54.5948 7.36314 54.5845 7.35289C54.5743 7.34258 54.564 7.34258 54.5538 7.33232C54.5435 7.32207 54.5332 7.31181 54.523 7.30156C54.5127 7.2913 54.5024 7.28104 54.4922 7.27079C54.4819 7.26048 54.4717 7.25022 54.4614 7.23997C54.4511 7.22971 54.4409 7.22971 54.4306 7.21946C54.4203 7.2092 54.4101 7.2092 54.3998 7.19894C54.3793 7.18864 54.3588 7.16812 54.3485 7.14761C54.3382 7.1271 54.328 7.10654 54.328 7.08603C54.328 7.07577 54.328 7.07577 54.328 7.06551C54.328 7.05526 54.328 7.045 54.3177 7.02444C54.3177 7.00393 54.3074 6.99367 54.2972 6.97316C54.2869 6.95259 54.2869 6.92183 54.2767 6.91157C54.2767 6.89101 54.2767 6.88075 54.2767 6.8705C54.2767 6.86024 54.2767 6.84998 54.2767 6.83973C54.2767 6.82947 54.2767 6.80891 54.2664 6.79865V6.7884C54.2664 6.77814 54.2664 6.76789 54.2664 6.75763C54.2664 6.75763 54.2767 6.75763 54.2767 6.74737C54.2869 6.74737 54.2972 6.74737 54.2972 6.74737C54.3074 6.74737 54.3074 6.73706 54.3074 6.72681C54.3074 6.71655 54.2869 6.7063 54.2767 6.69604C54.2664 6.68579 54.2459 6.66522 54.2356 6.65497C54.2253 6.63445 54.2151 6.6242 54.2151 6.60369V6.59338C54.2151 6.57287 54.2048 6.55236 54.1946 6.5421C54.1843 6.53184 54.1843 6.52153 54.1638 6.52153C54.1535 6.52153 54.1432 6.51128 54.1227 6.50102C54.1022 6.49077 54.0816 6.47026 54.0611 6.46C54.0406 6.44975 54.0201 6.43944 54.0098 6.42918C53.9995 6.41893 53.9893 6.40867 53.979 6.38816C53.9688 6.36759 53.9585 6.34708 53.9483 6.31631C53.938 6.28549 53.938 6.26498 53.938 6.24447C53.938 6.22396 53.9483 6.21365 53.9483 6.20339C53.9483 6.19314 53.938 6.18288 53.9277 6.17263C53.9174 6.16237 53.8969 6.14181 53.8867 6.13155C53.8764 6.1213 53.8662 6.11104 53.8559 6.09052C53.8456 6.08025 53.8353 6.05973 53.8353 6.04946C53.8251 6.0392 53.8251 6.02894 53.8148 6.01868C53.8046 5.99815 53.7841 5.97763 53.7635 5.94684C53.7635 5.93657 53.7532 5.93657 53.7532 5.92631C53.7327 5.88525 53.7019 5.84421 53.6814 5.81341C53.6609 5.78262 53.6506 5.75183 53.6404 5.73131C53.6301 5.71079 53.6301 5.70052 53.6198 5.68C53.6096 5.65947 53.5993 5.63894 53.589 5.61841C53.5788 5.59789 53.5582 5.58763 53.548 5.5671C53.5377 5.54658 53.5172 5.53632 53.5172 5.51579C53.5069 5.49526 53.5069 5.485 53.4967 5.47473C53.4864 5.46447 53.4761 5.44395 53.4659 5.43368C53.4556 5.42342 53.4351 5.41316 53.4248 5.4029C53.4146 5.39263 53.4043 5.39263 53.4043 5.38237C53.4043 5.37211 53.394 5.37211 53.394 5.36184L53.3838 5.35158L53.3735 5.34131C53.3633 5.32079 53.3427 5.30026 53.3324 5.27974C53.3222 5.25921 53.3119 5.24895 53.3017 5.23869C53.2914 5.22842 53.2812 5.20789 53.2709 5.18737C53.2709 5.16684 53.2709 5.15658 53.2812 5.14632C53.2914 5.13606 53.3017 5.13606 53.3119 5.13606C53.3222 5.13606 53.3324 5.14632 53.3427 5.15658C53.353 5.16684 53.3735 5.18737 53.394 5.2079C53.4146 5.22842 53.4248 5.24895 53.4351 5.26948C53.4454 5.29 53.4454 5.30026 53.4556 5.31053C53.4556 5.33105 53.4659 5.35158 53.4659 5.36184C53.4659 5.37211 53.4761 5.38237 53.4864 5.38237C53.4967 5.39263 53.5069 5.4029 53.5377 5.41316C53.5583 5.43368 53.589 5.45421 53.6198 5.46447C53.6506 5.47473 53.6711 5.47473 53.6814 5.47473C53.6917 5.47473 53.7019 5.46447 53.7019 5.45421C53.7019 5.44395 53.7019 5.43368 53.7019 5.41316C53.7019 5.39263 53.7019 5.3721 53.7122 5.35158C53.7122 5.33105 53.7225 5.32079 53.7225 5.30026C53.7225 5.27974 53.7327 5.26948 53.7327 5.25921C53.7327 5.24895 53.7327 5.23869 53.7327 5.22843C53.7327 5.21816 53.7327 5.19763 53.743 5.18737C53.743 5.17711 53.7532 5.15658 53.7635 5.14632C53.7635 5.13606 53.7738 5.12579 53.7635 5.11553C53.7635 5.09501 53.7532 5.07448 53.7532 5.05395C53.7532 5.03342 53.743 5.0129 53.743 5.00264C53.743 4.99237 53.7327 4.98211 53.7327 4.97185C53.7225 4.96159 53.7122 4.94106 53.7019 4.93079C53.6917 4.92053 53.6814 4.91027 53.6814 4.90001C53.6711 4.88974 53.6609 4.86922 53.6609 4.85895C53.6506 4.84869 53.6506 4.83843 53.6301 4.83843C53.6198 4.83843 53.589 4.84869 53.5685 4.85895C53.548 4.86922 53.5172 4.86922 53.4967 4.86922C53.4761 4.86922 53.4556 4.86922 53.4351 4.86922C53.4146 4.86922 53.4043 4.86922 53.394 4.86922C53.3838 4.86922 53.3735 4.87948 53.3633 4.88974C53.353 4.88974 53.3428 4.90001 53.3222 4.90001C53.3119 4.90001 53.2914 4.91027 53.2812 4.92054C53.2709 4.9308 53.2607 4.94106 53.2503 4.95132C53.2401 4.95132 53.2401 4.95132 53.2298 4.94106C53.2196 4.9308 53.2093 4.91027 53.1888 4.90001C53.1682 4.88974 53.1477 4.87948 53.117 4.87948C53.0861 4.86922 53.0451 4.86922 52.9938 4.86922C52.9527 4.86922 52.9117 4.88974 52.8809 4.90001C52.8501 4.91027 52.8296 4.92053 52.809 4.94106C52.7885 4.95132 52.7577 4.97185 52.7372 4.98211C52.7064 4.99237 52.6859 5.00264 52.6551 4.99237C52.6346 4.99237 52.6038 4.98211 52.5832 4.97185C52.5627 4.96159 52.532 4.96159 52.5115 4.95132C52.4909 4.94106 52.4704 4.94106 52.4396 4.93079C52.419 4.93079 52.4088 4.92054 52.378 4.92054C52.3678 4.92054 52.3678 4.92054 52.3575 4.92054C52.2959 4.91027 52.2446 4.88974 52.183 4.88974C52.1214 4.87948 52.0599 4.87948 52.0188 4.87948C51.9777 4.87948 51.9777 4.86922 51.9675 4.85895L51.9572 4.84869C51.947 4.83843 51.947 4.82817 51.9367 4.8179C51.9161 4.80764 51.8956 4.80764 51.8751 4.79738C51.8649 4.79738 51.8546 4.79738 51.8444 4.79738C51.8238 4.78711 51.793 4.78711 51.7725 4.78711C51.7314 4.77685 51.6904 4.77685 51.6596 4.76659C51.6288 4.75633 51.6186 4.7358 51.598 4.71527C51.5877 4.69475 51.5672 4.68448 51.5262 4.67422C51.4851 4.66396 51.4235 4.6537 51.3722 4.64343C51.3209 4.64343 51.2901 4.64343 51.2593 4.6537C51.2285 4.66396 51.1875 4.67422 51.1567 4.69475C51.1157 4.71527 51.0746 4.75632 51.0438 4.78711C51.0233 4.8179 51.0131 4.83843 51.0233 4.87948C51.0336 4.91027 51.0438 4.95132 51.0438 4.98211C51.0438 5.0129 51.0336 5.03342 51.0233 5.05395C51.0131 5.07448 51.0027 5.08474 50.9822 5.095C50.9617 5.10527 50.9206 5.12579 50.8899 5.13606C50.8591 5.14632 50.8385 5.14632 50.818 5.13606C50.7873 5.12579 50.7667 5.09501 50.7154 5.07448C50.6743 5.05395 50.6128 5.02316 50.5512 5.00264C50.4896 4.98211 50.4281 4.97185 50.3767 4.96159C50.3254 4.95133 50.2844 4.94106 50.2535 4.93079C50.2228 4.92053 50.2228 4.91027 50.2023 4.88974C50.192 4.86922 50.1714 4.82817 50.1612 4.80764C50.1509 4.77685 50.1304 4.75632 50.1202 4.74606C50.0996 4.7358 50.0893 4.72553 50.0586 4.71527C50.0586 4.70501 50.0483 4.70501 50.0278 4.70501C50.0072 4.70501 49.9867 4.70501 49.9662 4.70501C49.9559 4.70501 49.9354 4.70501 49.9251 4.70501C49.8738 4.69475 49.8122 4.69475 49.7712 4.68448C49.7301 4.68448 49.7199 4.68448 49.6891 4.67422C49.6686 4.66396 49.6275 4.6537 49.5968 4.64343C49.5659 4.63317 49.5352 4.63317 49.5146 4.63317C49.5043 4.6229 49.4941 4.61264 49.4838 4.61264C49.4736 4.60238 49.4633 4.60238 49.4531 4.59211C49.4428 4.59211 49.4222 4.58185 49.412 4.57159C49.4017 4.56133 49.4017 4.56133 49.3915 4.55106C49.3915 4.55106 49.3915 4.5408 49.3812 4.5408C49.371 4.53054 49.3607 4.52028 49.3401 4.52028H49.3299C49.3196 4.52028 49.3196 4.52028 49.3094 4.52028H49.2991C49.2991 4.52028 49.2888 4.51002 49.2786 4.51002C49.2786 4.51002 49.2683 4.51002 49.258 4.51002C49.2478 4.51002 49.2478 4.51002 49.2375 4.49975C49.217 4.48949 49.1965 4.47922 49.1862 4.47922C49.176 4.46896 49.1657 4.4587 49.1554 4.44843C49.1554 4.43817 49.1554 4.41764 49.1554 4.40738C49.1554 4.39712 49.1657 4.3766 49.1759 4.36633C49.1862 4.35607 49.1965 4.34581 49.2067 4.33554C49.217 4.33554 49.2273 4.32528 49.2375 4.31502C49.2478 4.30475 49.258 4.30475 49.2683 4.29449C49.2888 4.28422 49.3094 4.2637 49.3094 4.25344C49.3094 4.24318 49.3094 4.23291 49.3094 4.22265C49.3094 4.21239 49.3094 4.21239 49.3094 4.20212C49.3094 4.19186 49.3094 4.1816 49.3094 4.16107L49.3196 4.1508C49.3196 4.14054 49.3196 4.12002 49.3196 4.10975C49.3196 4.09949 49.3094 4.08923 49.2991 4.07897C49.2888 4.07897 49.2888 4.0687 49.2786 4.0687C49.2683 4.05844 49.258 4.05844 49.2478 4.04818C49.2375 4.03791 49.2273 4.02765 49.2273 4.01739C49.2273 4.00712 49.2273 3.99686 49.2273 3.9866C49.2375 3.97633 49.2478 3.95581 49.258 3.94555C49.2683 3.93529 49.2786 3.93529 49.2786 3.92502C49.2991 3.91476 49.3196 3.89423 49.3299 3.87371C49.3401 3.85318 49.3299 3.82239 49.3196 3.81213C49.3094 3.80187 49.2888 3.80187 49.2683 3.81213C49.258 3.81213 49.258 3.82239 49.2478 3.82239H49.2375C49.217 3.82239 49.1965 3.83265 49.1862 3.83265C49.176 3.83265 49.1759 3.83265 49.1759 3.82239C49.1759 3.82239 49.1657 3.81213 49.1657 3.80187C49.1657 3.7916 49.1554 3.78134 49.1452 3.77108C49.1349 3.76081 49.1144 3.75055 49.0836 3.75055C49.063 3.75055 49.022 3.75055 49.0015 3.75055C48.9809 3.76082 48.9604 3.77108 48.9399 3.78134C48.9194 3.7916 48.9091 3.7916 48.8886 3.80187C48.8681 3.81213 48.8372 3.82239 48.8167 3.82239C48.8065 3.82239 48.786 3.83265 48.7757 3.83265H48.7654C48.7449 3.83265 48.7244 3.82239 48.7141 3.81213C48.6936 3.80187 48.6833 3.80187 48.6628 3.80187C48.6525 3.80187 48.6423 3.80187 48.6423 3.81213C48.6218 3.81213 48.6115 3.81213 48.5909 3.81213C48.5807 3.81213 48.5704 3.81213 48.5602 3.80187C48.5602 3.80187 48.5602 3.80187 48.5499 3.80187C48.5396 3.7916 48.5294 3.7916 48.5088 3.7916C48.4883 3.7916 48.4678 3.7916 48.4473 3.7916C48.437 3.7916 48.437 3.80187 48.4267 3.80187C48.4267 3.80187 48.4165 3.80187 48.4165 3.81213C48.396 3.82239 48.3754 3.83265 48.3549 3.84291C48.3344 3.85318 48.3138 3.85318 48.2933 3.85318C48.2831 3.85318 48.2728 3.85318 48.2523 3.84291C48.242 3.84291 48.242 3.83265 48.2317 3.83265C48.2317 3.83265 48.2215 3.83265 48.2112 3.83265C48.1907 3.82239 48.1702 3.82239 48.1496 3.81213C48.1189 3.80187 48.0984 3.80187 48.0778 3.81213H48.0675C48.047 3.81213 48.0368 3.81213 48.0265 3.82239H48.0162C48.0059 3.82239 47.9957 3.82239 47.9854 3.82239C47.9752 3.82239 47.9649 3.82239 47.9547 3.82239C47.9444 3.82239 47.9341 3.82239 47.9341 3.83265C47.9238 3.83265 47.9033 3.83265 47.8931 3.84291C47.8828 3.84291 47.8726 3.84291 47.8623 3.84291C47.852 3.84291 47.8417 3.85318 47.8315 3.85318C47.8212 3.85318 47.811 3.85318 47.8007 3.86344C47.7904 3.86344 47.7904 3.86344 47.7802 3.86344C47.7699 3.86344 47.7596 3.86344 47.7494 3.86344C47.7391 3.86344 47.7289 3.87371 47.7186 3.87371C47.7083 3.87371 47.6981 3.88397 47.6775 3.88397C47.6673 3.88397 47.657 3.88397 47.6365 3.88397C47.6262 3.88397 47.616 3.88397 47.5955 3.88397C47.5544 3.88397 47.4928 3.89423 47.4518 3.91476C47.4313 3.92502 47.4107 3.93529 47.4004 3.94555C47.3902 3.95581 47.3799 3.95581 47.3594 3.96607C47.3492 3.96607 47.3388 3.97633 47.3286 3.97633C47.3286 3.97633 47.3286 3.97633 47.3183 3.97633C47.2978 3.97633 47.267 3.9866 47.2567 3.99686C47.2362 4.00712 47.2362 4.00712 47.226 4.01739C47.2157 4.01739 47.2157 4.01739 47.2055 4.02765C47.1952 4.02765 47.1849 4.03792 47.1746 4.03792C47.1644 4.03792 47.1644 4.03791 47.1541 4.04818C47.1439 4.04818 47.1234 4.05844 47.1131 4.07897C47.1028 4.08923 47.1028 4.09949 47.0925 4.09949C47.0925 4.09949 47.0925 4.09949 47.0823 4.09949C47.0618 4.12002 47.0412 4.13028 47.031 4.1508C47.0207 4.16107 47.0104 4.17133 47.0002 4.17133C46.9899 4.1816 46.9797 4.1816 46.9694 4.1816C46.9591 4.1816 46.9591 4.1816 46.9489 4.1816C46.9386 4.1816 46.9284 4.1816 46.9181 4.1816C46.9078 4.1816 46.8976 4.1816 46.877 4.17133C46.8668 4.17133 46.8463 4.16107 46.836 4.16107C46.8052 4.15081 46.7847 4.15081 46.7642 4.14054C46.7436 4.14054 46.7231 4.14054 46.7026 4.14054C46.6821 4.14054 46.6615 4.14054 46.6307 4.14054C46.6102 4.14054 46.6 4.1508 46.5794 4.1508C46.5589 4.1508 46.5486 4.1508 46.5281 4.1508C46.5075 4.1508 46.4973 4.15081 46.4768 4.14054C46.4563 4.13028 46.4357 4.10975 46.4152 4.08923L46.4049 4.07897C46.3947 4.06871 46.3844 4.05844 46.3742 4.04818C46.3536 4.02765 46.3228 4.01739 46.292 4.01739C46.2715 4.01739 46.2407 4.02765 46.2202 4.0687C46.1997 4.09949 46.1689 4.1508 46.1484 4.20212C46.1381 4.22265 46.1278 4.25344 46.1176 4.27396C46.1073 4.29449 46.0971 4.31501 46.0971 4.32528C46.0868 4.33554 46.0868 4.3458 46.0765 4.35607C46.0662 4.36633 46.056 4.3766 46.0355 4.38686C46.0252 4.38686 46.0252 4.38686 46.015 4.39712C45.9944 4.40738 45.9636 4.41764 45.9431 4.43817C45.9431 4.43817 45.9329 4.43817 45.9329 4.44843C45.9226 4.4587 45.9123 4.4587 45.8918 4.46896C45.8713 4.47922 45.8404 4.48949 45.8097 4.49975C45.7994 4.49975 45.7892 4.51002 45.7789 4.51002C45.7481 4.52028 45.7071 4.5408 45.666 4.57159L45.6557 4.58185C45.6352 4.59211 45.6147 4.61264 45.6044 4.6229C45.5941 4.63317 45.5839 4.64344 45.5839 4.66396C45.5736 4.68448 45.5736 4.69475 45.5736 4.70501C45.5736 4.72553 45.5634 4.7358 45.5634 4.74606C45.5634 4.75632 45.5531 4.76659 45.5428 4.77685L45.5326 4.78711C45.5223 4.79738 45.5121 4.80764 45.5018 4.8179C45.4915 4.83843 45.4813 4.84869 45.4813 4.88974C45.4813 4.91027 45.4813 4.9308 45.4813 4.95132C45.4813 4.97185 45.4813 4.99237 45.4813 5.0129C45.4813 5.03342 45.471 5.06422 45.471 5.07448C45.471 5.08474 45.4607 5.10527 45.4505 5.11553C45.4402 5.12579 45.43 5.14632 45.4197 5.15658L45.4094 5.16684C45.3992 5.17711 45.3992 5.17711 45.3889 5.18737C45.3786 5.19763 45.3786 5.2079 45.3684 5.21816C45.3581 5.22843 45.3479 5.24895 45.3376 5.25921C45.3273 5.26948 45.317 5.27974 45.3068 5.29L45.2965 5.30026C45.2863 5.30026 45.2863 5.31053 45.276 5.31053C45.2555 5.32079 45.2452 5.33105 45.2247 5.34131C45.2144 5.35158 45.2042 5.36184 45.1939 5.36184C45.1733 5.37211 45.1528 5.39263 45.1323 5.4029C45.1118 5.41316 45.0912 5.42342 45.0605 5.43368C45.04 5.44395 45.0091 5.45421 44.9784 5.46447C44.9579 5.47473 44.927 5.47474 44.9065 5.485C44.8655 5.49526 44.8142 5.50552 44.7834 5.52605C44.7526 5.54658 44.7321 5.57737 44.7218 5.61841C44.7115 5.63894 44.7013 5.64921 44.7013 5.66973V5.68C44.691 5.70052 44.6807 5.72105 44.6705 5.74157C44.6602 5.75184 44.65 5.7621 44.6294 5.77236C44.6089 5.78262 44.5884 5.78263 44.5678 5.79289C44.5576 5.79289 44.5473 5.80315 44.5473 5.81341C44.5268 5.83394 44.5268 5.85447 44.5268 5.87499C44.5268 5.87499 44.5268 5.87499 44.5268 5.88526C44.5166 5.90578 44.5166 5.91604 44.5063 5.92631L44.496 5.93657L44.4857 5.94684C44.4652 5.96736 44.455 5.97762 44.4447 6.01868C44.4447 6.02894 44.4345 6.04946 44.4345 6.06999C44.4345 6.08025 44.4241 6.09052 44.4241 6.10078C44.4139 6.1213 44.4139 6.13155 44.4036 6.14181C44.3934 6.15212 44.3831 6.16237 44.3626 6.16237C44.3626 6.16237 44.3524 6.16237 44.342 6.17263C44.3113 6.18288 44.2702 6.19314 44.2394 6.21365C44.2087 6.23422 44.1778 6.26498 44.1573 6.2958C44.1573 6.30606 44.1471 6.30606 44.1471 6.31631C44.1368 6.33683 44.1163 6.35734 44.106 6.36759C44.0957 6.3779 44.0855 6.38816 44.0752 6.39841C44.065 6.40867 44.0444 6.42918 44.0444 6.43944C44.0342 6.46 44.0342 6.49077 44.0239 6.51128C44.0239 6.52159 44.0239 6.53184 44.0137 6.5421C44.0137 6.55236 44.0034 6.56261 43.9931 6.57287C43.9829 6.57287 43.9726 6.58312 43.9726 6.58312C43.9623 6.58312 43.9521 6.58312 43.9418 6.59338C43.9213 6.60369 43.911 6.6242 43.8905 6.64471C43.8802 6.66522 43.87 6.68579 43.87 6.7063C43.87 6.72681 43.87 6.75763 43.87 6.77814C43.87 6.79865 43.8802 6.80891 43.8905 6.81922C43.9008 6.82947 43.9008 6.82947 43.911 6.83973C43.911 6.83973 43.911 6.83973 43.9213 6.84998C43.9316 6.86024 43.9521 6.88075 43.9726 6.89101C43.9829 6.90132 43.9829 6.91157 43.9931 6.93208C43.9931 6.95259 44.0034 6.97316 44.0034 6.99367C44.0034 7.01418 44.0034 7.03469 44.0034 7.05526C44.0034 7.07577 43.9931 7.09628 43.9931 7.10654C43.9931 7.11679 43.9829 7.11679 43.9829 7.11679C43.9726 7.11679 43.9726 7.11679 43.9623 7.1271C43.9521 7.1271 43.9521 7.13736 43.9623 7.15787C43.9623 7.16812 43.9726 7.16812 43.9829 7.17838C43.9931 7.18864 44.0034 7.19895 44.0137 7.21946C44.0239 7.23997 44.0342 7.26048 44.0444 7.2913C44.0547 7.32207 44.0547 7.34258 44.0444 7.3734C44.0444 7.40417 44.0342 7.43499 44.0239 7.46575C44.0137 7.49657 44.0136 7.51709 44.0034 7.5376C43.9931 7.55811 43.9829 7.58893 43.9726 7.61969C43.9726 7.62995 43.9623 7.62995 43.9623 7.64021C43.9521 7.65052 43.9418 7.67103 43.9418 7.68128C43.9316 7.70179 43.9316 7.72236 43.9316 7.75313C43.9316 7.77364 43.9213 7.80446 43.911 7.83523C43.9008 7.86599 43.8802 7.89681 43.8597 7.92758C43.8597 7.93783 43.8495 7.93783 43.8392 7.94814C43.8289 7.9584 43.8186 7.96866 43.8084 7.97891C43.7981 7.98917 43.7879 7.99942 43.7776 7.99942C43.7571 8.01999 43.7468 8.01999 43.7571 8.0405C43.7674 8.05075 43.7776 8.07127 43.7981 8.09178V8.10209C43.8186 8.14311 43.8495 8.2047 43.8802 8.23546V8.24577C43.8802 8.24577 43.87 8.24577 43.87 8.25603C43.87 8.25603 43.87 8.25603 43.8597 8.25603C43.8495 8.26628 43.8392 8.26628 43.8289 8.27654C43.8186 8.2868 43.8186 8.29705 43.8186 8.30731C43.8186 8.31762 43.8289 8.32787 43.8289 8.33813C43.8289 8.34838 43.8289 8.36889 43.8289 8.37915C43.8289 8.38941 43.8392 8.39971 43.8495 8.40997H43.8597C43.87 8.43048 43.8802 8.44074 43.8905 8.45099C43.8802 8.45099 43.8802 8.45099 43.87 8.45099C43.8495 8.45099 43.8289 8.45099 43.8289 8.46125C43.8186 8.47156 43.8289 8.48181 43.8392 8.49207C43.8495 8.50233 43.87 8.50233 43.8802 8.51258C43.8905 8.52284 43.8905 8.53309 43.9007 8.53309C43.911 8.54335 43.911 8.5434 43.9316 8.5434H43.9418C43.9521 8.5434 43.9726 8.5434 43.9726 8.5434C43.9829 8.5434 43.9829 8.5434 43.9829 8.55366C43.9931 8.56391 43.9931 8.57417 44.0034 8.57417C44.0136 8.57417 44.0239 8.57417 44.0342 8.56391C44.0342 8.56391 44.0342 8.56391 44.0444 8.56391C44.0547 8.56391 44.065 8.56391 44.0752 8.56391C44.0855 8.56391 44.0957 8.56391 44.0957 8.57417C44.0957 8.57417 44.0958 8.58442 44.0855 8.59468C44.0855 8.59468 44.0752 8.60494 44.065 8.60494C44.065 8.60494 44.0547 8.60494 44.0444 8.60494C44.0342 8.60494 44.0136 8.61519 44.0034 8.6255L43.9931 8.63576C43.9726 8.64601 43.9521 8.66652 43.9316 8.67678C43.9213 8.67678 43.9213 8.67678 43.911 8.68703C43.911 8.69734 43.911 8.7076 43.911 8.71785C43.911 8.72811 43.9213 8.72811 43.9316 8.72811L43.9418 8.71785C43.9623 8.7076 43.9931 8.69734 44.0239 8.68703C44.0342 8.68703 44.0444 8.68703 44.0547 8.68703C44.065 8.68703 44.0752 8.69734 44.0855 8.7076C44.0958 8.7076 44.106 8.7076 44.1266 8.7076H44.1368H44.1471C44.1676 8.7076 44.1778 8.71785 44.1881 8.71785C44.1984 8.71785 44.1984 8.71786 44.1984 8.72811C44.1984 8.72811 44.1984 8.73837 44.2087 8.74862C44.2087 8.75888 44.2087 8.75888 44.2087 8.76919C44.2087 8.77944 44.2189 8.77944 44.2292 8.77944C44.2292 8.77944 44.2394 8.77944 44.2394 8.7897C44.2497 8.7897 44.2497 8.79995 44.2599 8.81021C44.2599 8.81021 44.2599 8.82047 44.2599 8.83072C44.2599 8.83072 44.2599 8.83072 44.2599 8.84098C44.2599 8.85129 44.2599 8.8718 44.2702 8.88205C44.2805 8.89231 44.2908 8.91282 44.3113 8.92313C44.3215 8.93339 44.3318 8.93339 44.342 8.94364C44.3524 8.94364 44.3626 8.9539 44.3626 8.9539C44.3729 8.96415 44.3831 8.96415 44.3831 8.97441C44.3831 8.97441 44.3831 8.97441 44.3934 8.98466C44.3934 8.98466 44.4036 8.98466 44.4036 8.99497C44.4139 9.00523 44.4241 9.00523 44.4241 9.01548L44.4345 9.02574C44.4447 9.03599 44.4447 9.04625 44.455 9.04625C44.455 9.05651 44.4652 9.05651 44.4652 9.06676C44.4755 9.07707 44.4857 9.09758 44.4857 9.10784C44.4857 9.10784 44.4857 9.11809 44.496 9.11809C44.496 9.11809 44.496 9.11809 44.496 9.12835C44.496 9.12835 44.496 9.13861 44.496 9.14892C44.496 9.15917 44.496 9.17968 44.496 9.18994C44.496 9.18994 44.496 9.20019 44.4857 9.20019C44.4857 9.20019 44.4755 9.21045 44.4755 9.22076C44.4652 9.23101 44.4652 9.25152 44.4755 9.26178C44.4857 9.27204 44.496 9.28229 44.5063 9.29255L44.5166 9.30286C44.5268 9.31311 44.5268 9.32337 44.5371 9.32337C44.5371 9.33362 44.5371 9.34388 44.5473 9.35414C44.5576 9.36439 44.5678 9.36439 44.5884 9.3747C44.5987 9.3747 44.6089 9.3747 44.6192 9.38496C44.6294 9.39521 44.6397 9.39521 44.6397 9.40547C44.6397 9.41572 44.65 9.41572 44.65 9.42598V9.43623C44.65 9.44654 44.6602 9.46705 44.6808 9.47731C44.691 9.48757 44.7115 9.48757 44.7218 9.48757C44.7321 9.48757 44.7526 9.49782 44.7629 9.49782C44.7731 9.49782 44.7834 9.50808 44.7936 9.50808C44.8142 9.51839 44.8347 9.5389 44.8552 9.55941C44.8758 9.57992 44.8963 9.60049 44.9168 9.61074C44.927 9.621 44.9373 9.621 44.9476 9.63125C44.9476 9.63125 44.9579 9.63125 44.9579 9.64151C44.9681 9.65176 44.9886 9.66202 45.0091 9.67233C45.0194 9.68258 45.0297 9.68258 45.0297 9.69284C45.04 9.69284 45.0502 9.7031 45.0502 9.7031C45.0707 9.71335 45.081 9.72361 45.1016 9.73386C45.1118 9.74417 45.1221 9.75443 45.1323 9.76468C45.1323 9.77494 45.1426 9.77494 45.1426 9.78519C45.1528 9.79545 45.1631 9.81596 45.1837 9.82627C45.1939 9.83653 45.2144 9.84678 45.2349 9.85704C45.2349 9.85704 45.2452 9.85704 45.2452 9.86729C45.2658 9.87755 45.2863 9.89812 45.2965 9.90837C45.3068 9.91863 45.317 9.92888 45.3273 9.92888C45.3273 9.93914 45.3376 9.93914 45.3376 9.94939C45.3479 9.95965 45.3581 9.96996 45.3786 9.98021C45.3889 9.99047 45.4094 9.99047 45.43 10.0007C45.4505 10.011 45.4813 10.0212 45.512 10.0315C45.5428 10.0418 45.5634 10.0521 45.5839 10.0521C45.6044 10.0521 45.6147 10.0521 45.6352 10.0418C45.6455 10.0418 45.6557 10.0315 45.666 10.0315C45.6968 10.0212 45.7378 10.0007 45.7892 9.98021C45.8404 9.95965 45.8815 9.93914 45.9226 9.92888C45.9636 9.91863 46.0047 9.90837 46.0355 9.89812C46.056 9.89812 46.0868 9.89812 46.1073 9.89812C46.1176 9.89812 46.1278 9.89812 46.1484 9.89812C46.1586 9.89812 46.1791 9.89811 46.1894 9.8878C46.2099 9.8878 46.2305 9.8878 46.251 9.87755C46.2818 9.87755 46.3023 9.87755 46.3331 9.87755C46.3433 9.87755 46.3639 9.87755 46.3742 9.87755C46.3844 9.87755 46.3947 9.87755 46.4049 9.87755C46.4254 9.87755 46.446 9.87755 46.4563 9.86729C46.4563 9.86729 46.4563 9.85704 46.4665 9.85704C46.4665 9.85704 46.4768 9.84678 46.487 9.84678C46.4973 9.84678 46.5075 9.83653 46.5178 9.83653C46.5178 9.84678 46.5281 9.84678 46.5281 9.85704C46.5384 9.86729 46.5486 9.87755 46.5589 9.8878C46.5794 9.89811 46.6 9.90837 46.6205 9.90837C46.641 9.91863 46.6512 9.91863 46.6717 9.92888C46.6821 9.93914 46.6923 9.94939 46.7128 9.94939C46.7333 9.94939 46.7539 9.93914 46.7744 9.92888L46.7847 9.91863C46.7949 9.91863 46.8052 9.90837 46.8154 9.90837C46.836 9.89812 46.8565 9.89811 46.877 9.8878C46.8976 9.8878 46.9181 9.8878 46.9283 9.87755C46.9489 9.87755 46.9591 9.86729 46.9694 9.85704C46.9797 9.85704 46.9797 9.84678 46.9899 9.84678C47.0104 9.83653 47.0412 9.81596 47.0618 9.80571C47.0823 9.79545 47.0925 9.79545 47.1234 9.78519C47.1439 9.78519 47.1644 9.77494 47.1952 9.76468C47.226 9.76468 47.2465 9.75443 47.2773 9.74417C47.3081 9.73386 47.3286 9.72361 47.3594 9.71335C47.3902 9.7031 47.4209 9.69284 47.4415 9.68258C47.4518 9.68258 47.462 9.67233 47.4723 9.67233C47.4825 9.67233 47.5031 9.66202 47.5339 9.66202H47.5441C47.5544 9.66202 47.5646 9.66202 47.5749 9.66202C47.5954 9.66202 47.6057 9.65176 47.616 9.65176C47.6262 9.65176 47.6365 9.64151 47.6468 9.64151C47.657 9.64151 47.6673 9.64151 47.6878 9.64151C47.7083 9.64151 47.7289 9.65176 47.7494 9.65176C47.7699 9.65176 47.7802 9.65176 47.7904 9.64151C47.7904 9.64151 47.8007 9.64151 47.811 9.64151C47.8315 9.64151 47.8623 9.64151 47.8931 9.64151C47.9238 9.64151 47.9547 9.65176 47.9752 9.66202C48.0059 9.67233 48.0265 9.68258 48.047 9.7031C48.0573 9.71335 48.0675 9.72361 48.0778 9.73386C48.088 9.74417 48.1086 9.76468 48.1189 9.77494C48.1291 9.78519 48.1394 9.78519 48.1496 9.79545C48.1496 9.79545 48.1599 9.79545 48.1599 9.80571C48.1702 9.81596 48.1702 9.82627 48.1702 9.82627C48.1702 9.82627 48.1702 9.82627 48.1599 9.83653C48.1599 9.84678 48.1599 9.85704 48.1599 9.87755C48.1702 9.89811 48.1805 9.91863 48.1907 9.93914C48.1907 9.93914 48.1907 9.94939 48.201 9.94939C48.2112 9.98021 48.2112 10.0007 48.2215 10.011C48.2317 10.0212 48.2523 10.0212 48.2626 10.0212C48.2831 10.0212 48.2933 10.0212 48.3241 10.0212C48.3447 10.0212 48.3652 10.0212 48.3754 10.0315C48.396 10.0315 48.4062 10.0315 48.4267 10.0315C48.437 10.0315 48.4473 10.0212 48.4575 10.011C48.4678 10.0007 48.4781 9.99047 48.4986 9.99047C48.5191 9.99047 48.5396 9.99047 48.5602 9.99047C48.5807 10.0007 48.6012 10.0007 48.632 10.0007C48.6525 10.0007 48.6833 9.99047 48.6936 9.99047C48.7039 9.98021 48.7039 9.98021 48.7039 9.96996C48.7039 9.96996 48.7039 9.96996 48.7039 9.95965C48.7039 9.94939 48.7141 9.94939 48.7346 9.94939C48.7449 9.94939 48.7654 9.95965 48.7962 9.96996C48.8065 9.96996 48.8167 9.96996 48.8372 9.96996C48.8476 9.96996 48.8578 9.98021 48.8681 9.98021C48.8783 9.99047 48.8988 10.011 48.8988 10.0212C48.8988 10.0315 48.8783 10.0418 48.8783 10.0418C48.8783 10.0418 48.8886 10.0418 48.8988 10.0521C48.9091 10.0623 48.9091 10.0726 48.9091 10.0726C48.9194 10.0726 48.9297 10.0623 48.9399 10.0521C48.9502 10.0521 48.9707 10.0623 48.9912 10.0726C49.0015 10.0828 49.022 10.0828 49.0323 10.1033C49.0425 10.1136 49.0425 10.1342 49.0528 10.1547C49.063 10.1752 49.0733 10.1854 49.0733 10.206C49.0733 10.2265 49.0733 10.2573 49.0836 10.2778C49.0836 10.2984 49.0836 10.3189 49.0836 10.3394C49.0836 10.3599 49.063 10.3805 49.063 10.4112C49.063 10.4112 49.063 10.4112 49.0528 10.4112C49.0425 10.4112 49.0425 10.4318 49.0323 10.442C49.0323 10.4523 49.0323 10.4728 49.0323 10.4831C49.0323 10.4934 49.0323 10.5036 49.022 10.5139C49.0117 10.5241 49.0118 10.5344 49.0015 10.5447L48.9912 10.5549C48.9809 10.5652 48.9707 10.5857 48.9707 10.6062C48.9707 10.6165 48.9809 10.6267 48.9912 10.6473C48.9912 10.6473 48.9912 10.6576 48.9912 10.6678C48.9912 10.6781 48.9912 10.6986 48.9912 10.7088C48.9912 10.7192 48.9809 10.7294 48.9707 10.7294C48.9604 10.7294 48.9502 10.7397 48.9399 10.7499C48.9297 10.7602 48.9399 10.7807 48.9399 10.7909C48.9502 10.8013 48.9604 10.8013 48.9809 10.8115C49.0015 10.8218 49.0117 10.832 49.022 10.832C49.0323 10.832 49.022 10.8423 49.0118 10.8423C49.0015 10.8423 48.9912 10.8423 48.9809 10.8423C48.9707 10.8423 48.9502 10.8423 48.9399 10.8525C48.9297 10.8628 48.9296 10.8731 48.9194 10.8936C48.9194 10.9039 48.9194 10.9039 48.9194 10.9141C48.9194 10.9244 48.9194 10.9346 48.9091 10.9449C48.9091 10.9552 48.8988 10.9655 48.8886 10.9757C48.8886 10.9757 48.8783 10.9757 48.8783 10.986C48.8681 10.9962 48.8681 10.9962 48.8578 11.0065C48.8476 11.0168 48.8372 11.0168 48.8372 11.027C48.8372 11.0373 48.8372 11.0476 48.8476 11.0578C48.8578 11.0681 48.8578 11.0783 48.8578 11.0989V11.1091C48.8578 11.1194 48.8476 11.1297 48.8578 11.1297C48.8578 11.1399 48.8681 11.1502 48.8886 11.1502C48.8988 11.1502 48.9091 11.1502 48.9194 11.1502H48.9297C48.9399 11.1502 48.9502 11.1502 48.9604 11.1604C48.9604 11.1604 48.9604 11.1604 48.9604 11.1707C48.9604 11.1707 48.9502 11.181 48.9399 11.181H48.9297C48.9194 11.181 48.9091 11.181 48.9091 11.1912V11.2015C48.9091 11.2015 48.9091 11.2015 48.9194 11.2118C48.9194 11.2118 48.9297 11.2118 48.9297 11.222H48.9399C48.9502 11.222 48.9502 11.2323 48.9502 11.2323H48.9399C48.9399 11.2323 48.9399 11.2323 48.9297 11.2323H48.9194C48.9194 11.2323 48.9194 11.2323 48.9194 11.2426C48.9194 11.2528 48.9297 11.2631 48.9399 11.2733L48.9502 11.2836C48.9604 11.2938 48.9707 11.2938 48.9809 11.3041C48.9912 11.3041 48.9912 11.3144 49.0015 11.3144C49.0118 11.3144 49.0117 11.3144 49.022 11.3144C49.0425 11.3144 49.0528 11.3247 49.063 11.3247C49.0733 11.3247 49.0733 11.3349 49.063 11.3349C49.063 11.3349 49.063 11.3349 49.0528 11.3349H49.0425C49.0323 11.3349 49.022 11.3452 49.022 11.3452C49.022 11.3554 49.022 11.3657 49.063 11.3965C49.0733 11.4068 49.0939 11.417 49.1144 11.4375C49.1349 11.4478 49.1452 11.4684 49.1657 11.4786C49.2067 11.5094 49.258 11.5607 49.2786 11.5812C49.2888 11.5915 49.2888 11.5915 49.2991 11.6017C49.2991 11.6017 49.2991 11.6017 49.3094 11.612C49.3196 11.6223 49.3299 11.6428 49.3504 11.6531C49.3607 11.6736 49.3812 11.6941 49.3915 11.7147C49.4017 11.7249 49.4017 11.7352 49.4017 11.7454C49.4017 11.7557 49.412 11.766 49.412 11.7762C49.4222 11.7968 49.4325 11.807 49.4428 11.807C49.4428 11.807 49.4428 11.8173 49.4531 11.8173C49.4633 11.8275 49.4736 11.8481 49.4838 11.8686C49.4838 11.8789 49.4838 11.8891 49.4838 11.8994C49.4838 11.9096 49.4941 11.9302 49.5043 11.9404L49.5146 11.9507C49.5146 11.9609 49.5249 11.9815 49.5249 12.002C49.5146 12.002 49.5043 12.0123 49.5043 12.0328C49.5043 12.0533 49.5249 12.0944 49.5454 12.1251C49.5557 12.1457 49.5659 12.156 49.5762 12.1765C49.5968 12.2381 49.6173 12.2791 49.6378 12.3304C49.6583 12.3818 49.6789 12.4433 49.6891 12.4844C49.6994 12.5254 49.6891 12.546 49.6789 12.5562C49.6789 12.5665 49.6686 12.5665 49.6686 12.5665C49.6686 12.5665 49.6686 12.5665 49.6583 12.5665C49.6378 12.5767 49.6275 12.587 49.6275 12.5973C49.6275 12.6075 49.6275 12.6178 49.6583 12.6486C49.6583 12.6588 49.6686 12.6588 49.6686 12.6691V12.6794C49.6891 12.741 49.7301 12.8333 49.7507 12.9052C49.7712 12.977 49.7815 13.0386 49.7815 13.0796C49.7815 13.1207 49.7815 13.1412 49.7712 13.172C49.7609 13.2028 49.7404 13.2233 49.7096 13.2541C49.6994 13.2644 49.6994 13.2644 49.6891 13.2746C49.6891 13.2746 49.6891 13.2746 49.6789 13.2746C49.6686 13.2746 49.648 13.2849 49.6378 13.2952C49.6275 13.3054 49.6173 13.3259 49.607 13.3567V13.367V13.3772C49.5968 13.3978 49.5864 13.408 49.5762 13.4183H49.5659C49.5557 13.4183 49.5352 13.4286 49.5352 13.4593C49.5249 13.4799 49.5249 13.5209 49.5146 13.562C49.5146 13.5825 49.5146 13.5928 49.5043 13.6133C49.4941 13.6544 49.4941 13.6851 49.4838 13.716C49.4838 13.7262 49.4736 13.7365 49.4736 13.7365C49.4633 13.7467 49.4633 13.757 49.4531 13.7672C49.4428 13.7775 49.4428 13.7981 49.4428 13.8083C49.4325 13.8288 49.4222 13.8493 49.412 13.8699C49.4017 13.8802 49.4017 13.9007 49.3915 13.9109C49.3812 13.9314 49.371 13.9314 49.3607 13.952C49.3607 13.9623 49.3607 13.9828 49.3607 13.993V14.0033C49.3607 14.0341 49.371 14.0751 49.371 14.1162C49.371 14.1367 49.371 14.1572 49.371 14.1675C49.371 14.1778 49.371 14.188 49.3607 14.1983C49.3607 14.2188 49.3607 14.2496 49.3607 14.2804C49.3607 14.3112 49.371 14.3317 49.3812 14.3727C49.3915 14.4036 49.412 14.4446 49.4222 14.4652C49.4325 14.4857 49.4428 14.4959 49.4633 14.5164C49.4838 14.5473 49.5043 14.578 49.5352 14.6294C49.5659 14.6806 49.5968 14.7525 49.6173 14.8141C49.6173 14.8243 49.6275 14.8346 49.6275 14.8346C49.6378 14.8654 49.648 14.8962 49.6583 14.9167C49.6686 14.9372 49.6789 14.9475 49.6891 14.9577C49.6994 14.968 49.7096 14.9886 49.7199 15.0091C49.7301 15.0193 49.7404 15.0398 49.7507 15.0604C49.761 15.0707 49.7609 15.0912 49.7712 15.1014C49.7815 15.1117 49.7917 15.1219 49.802 15.1322C49.8122 15.1425 49.8225 15.163 49.8328 15.1733C49.8533 15.1938 49.8636 15.2246 49.8738 15.2554C49.8841 15.2965 49.8841 15.3375 49.8841 15.3888C49.8841 15.4093 49.8841 15.4401 49.8841 15.4607V15.4709C49.8841 15.5017 49.8738 15.5325 49.8841 15.5633C49.8841 15.5838 49.8944 15.6043 49.9046 15.6248C49.9046 15.6351 49.9046 15.6351 49.9046 15.6454C49.9046 15.6556 49.9046 15.6659 49.9149 15.6864V15.6967C49.9149 15.7069 49.9149 15.7275 49.9251 15.7378L49.9354 15.748C49.9457 15.7685 49.9559 15.789 49.9559 15.8199C49.9559 15.8301 49.9559 15.8506 49.9559 15.8609C49.9559 15.8814 49.9559 15.9122 49.9559 15.9327C49.9559 15.9532 49.9662 15.9738 49.9765 15.9841V15.9943C49.9765 16.0046 49.9765 16.0148 49.9765 16.0251V16.0354C49.9765 16.0457 49.9765 16.0559 49.9867 16.0559C49.997 16.0662 50.0072 16.0662 50.0072 16.0764C50.0175 16.0867 50.0175 16.0969 50.0072 16.1072C49.997 16.1175 49.997 16.1278 49.997 16.1483C49.997 16.1585 50.0072 16.1688 50.0072 16.1893C50.0072 16.1996 50.0175 16.2201 50.0175 16.2304V16.2406V16.2509C50.0175 16.2714 50.0175 16.2817 50.0278 16.3022C50.0278 16.3125 50.038 16.3125 50.0483 16.3227C50.0586 16.333 50.0688 16.3535 50.0996 16.374C50.1202 16.3946 50.1304 16.4254 50.1612 16.4561C50.1817 16.4767 50.2125 16.4972 50.233 16.528C50.2535 16.5485 50.2638 16.5793 50.2844 16.6101C50.2946 16.6306 50.3151 16.6512 50.3254 16.6717C50.3254 16.6819 50.3254 16.6819 50.3356 16.6922C50.346 16.7128 50.346 16.7333 50.3562 16.764C50.3562 16.764 50.3562 16.7743 50.3562 16.7846C50.3562 16.8051 50.3665 16.8359 50.3767 16.8564C50.3767 16.877 50.387 16.8872 50.3972 16.9077C50.4075 16.9385 50.428 16.9693 50.4486 17.0104C50.4486 17.0104 50.4486 17.0104 50.4486 17.0206C50.4588 17.0411 50.4691 17.0617 50.4793 17.0822C50.4999 17.113 50.5204 17.154 50.5409 17.1746L50.5512 17.1848C50.5614 17.1951 50.5717 17.2053 50.5717 17.2156C50.582 17.2362 50.5922 17.2464 50.5922 17.2669C50.5922 17.2772 50.5922 17.2772 50.5922 17.2874C50.5922 17.308 50.5922 17.3285 50.5922 17.349C50.5922 17.3798 50.5922 17.4004 50.582 17.4209C50.5717 17.4311 50.5614 17.4414 50.5512 17.4414C50.5409 17.4414 50.5409 17.4414 50.5307 17.4414C50.5204 17.4414 50.5101 17.4516 50.5101 17.462C50.5101 17.4722 50.5204 17.4927 50.5307 17.5235C50.5409 17.5441 50.5512 17.5748 50.5614 17.5953C50.5614 17.6056 50.5717 17.6159 50.5717 17.6262C50.582 17.6569 50.5922 17.6672 50.5922 17.6877V17.698C50.5922 17.7082 50.582 17.7288 50.582 17.739C50.582 17.7493 50.5922 17.7596 50.6128 17.7596C50.623 17.7596 50.623 17.7493 50.6333 17.7493H50.6436C50.6538 17.7493 50.6538 17.7493 50.6641 17.7596C50.6641 17.7596 50.6641 17.7698 50.6743 17.7698C50.6743 17.7801 50.6743 17.7903 50.6743 17.7903C50.6743 17.8006 50.6846 17.8109 50.6949 17.8109H50.7051C50.7051 17.8109 50.7154 17.8109 50.7257 17.8211C50.7359 17.8314 50.7564 17.8417 50.777 17.8519C50.777 17.8519 50.777 17.8622 50.7872 17.8622C50.8078 17.8827 50.818 17.893 50.8385 17.9032C50.8591 17.9135 50.8796 17.9135 50.9001 17.9135C50.9206 17.9135 50.9309 17.893 50.9515 17.8827C50.9617 17.8827 50.9617 17.8724 50.972 17.8724C50.9925 17.8622 51.0233 17.8417 51.0643 17.8314C51.0848 17.8211 51.1157 17.8211 51.1464 17.8109C51.1772 17.8109 51.208 17.8006 51.2285 17.8006C51.2593 17.7903 51.2901 17.7903 51.3004 17.7801C51.3107 17.7698 51.3209 17.7596 51.3209 17.7596L51.3312 17.7493C51.3414 17.739 51.3517 17.739 51.362 17.739C51.3722 17.739 51.3825 17.739 51.3928 17.739C51.4133 17.739 51.4441 17.739 51.4646 17.739C51.4851 17.739 51.5056 17.739 51.5262 17.7288H51.5365C51.557 17.7288 51.5775 17.7288 51.6083 17.7288C51.6186 17.7288 51.6391 17.7288 51.6493 17.7288C51.6698 17.739 51.7007 17.7493 51.7212 17.7493C51.7519 17.7596 51.7828 17.7698 51.8033 17.7596C51.8135 17.7596 51.834 17.7493 51.8444 17.7493C51.8546 17.7493 51.8546 17.7493 51.8649 17.739C51.8854 17.739 51.8956 17.739 51.9162 17.7288C51.9367 17.7288 51.9572 17.7288 51.9675 17.7288C51.9777 17.7288 51.988 17.7185 51.988 17.7082H51.9983C52.0188 17.698 52.0393 17.6877 52.0804 17.6877C52.0906 17.6877 52.0906 17.6877 52.1009 17.6877C52.142 17.6774 52.2035 17.6672 52.2446 17.6467C52.2959 17.6262 52.3369 17.6056 52.3575 17.5748C52.378 17.5543 52.3883 17.5441 52.3985 17.5235C52.4088 17.5132 52.419 17.4927 52.4293 17.4825C52.4396 17.4722 52.4601 17.462 52.4806 17.4516C52.4909 17.4516 52.5011 17.4414 52.5217 17.4414C52.5525 17.4311 52.5832 17.4004 52.6141 17.3695C52.6346 17.3388 52.6551 17.308 52.6756 17.2669C52.6962 17.2362 52.7372 17.1951 52.7577 17.1746C52.7577 17.1746 52.7577 17.1746 52.768 17.1746C52.7783 17.1643 52.7988 17.1643 52.809 17.154C52.8296 17.1438 52.8398 17.1438 52.8501 17.1438C52.8604 17.1438 52.8809 17.1438 52.8809 17.1335C52.8912 17.1232 52.8912 17.113 52.8912 17.1027C52.8912 17.0822 52.9014 17.0617 52.9117 17.0411C52.9117 17.0309 52.9219 17.0309 52.9219 17.0206C52.9219 17.0206 52.9219 17.0104 52.9322 17.0104C52.9322 17.0001 52.9425 17.0001 52.9425 16.9898C52.9527 16.9693 52.9733 16.9385 52.9938 16.918L53.004 16.9077C53.0143 16.8872 53.0348 16.8667 53.0348 16.8461C53.0348 16.8359 53.0349 16.8256 53.0451 16.8256C53.0451 16.8154 53.0451 16.8154 53.0554 16.8154C53.0656 16.7949 53.0656 16.7949 53.0861 16.7743C53.0964 16.764 53.1067 16.764 53.117 16.7538C53.1272 16.7435 53.1477 16.7333 53.158 16.723L53.1682 16.7128C53.1682 16.7128 53.1682 16.7128 53.1785 16.7024C53.1888 16.6922 53.1991 16.6717 53.2196 16.6614C53.2298 16.6512 53.2503 16.6409 53.2709 16.6306C53.2812 16.6306 53.2914 16.6203 53.3017 16.6101C53.3222 16.5998 53.3427 16.5793 53.353 16.5588C53.3633 16.5382 53.3633 16.5177 53.3735 16.487C53.3838 16.4664 53.3838 16.4459 53.394 16.4254C53.4043 16.3946 53.4248 16.3535 53.4351 16.333C53.4351 16.3227 53.4351 16.3227 53.4454 16.3227C53.4556 16.3125 53.4556 16.3022 53.4556 16.2919C53.4659 16.2817 53.4659 16.2612 53.4659 16.2509C53.4659 16.2406 53.4556 16.2304 53.4556 16.2201C53.4556 16.2099 53.4556 16.2099 53.4556 16.1996C53.4556 16.1893 53.4556 16.179 53.4659 16.1688V16.1585C53.4659 16.1483 53.4659 16.138 53.4556 16.1278H53.4454C53.4351 16.1278 53.4248 16.1175 53.4248 16.1175C53.4146 16.1072 53.4043 16.1072 53.4043 16.0969C53.4043 16.0867 53.394 16.0764 53.394 16.0662V16.0559C53.394 16.0457 53.394 16.0354 53.394 16.0251C53.4043 16.0148 53.4146 16.0046 53.4248 15.9841C53.4454 15.9636 53.4659 15.943 53.4864 15.9327C53.5069 15.9225 53.5172 15.9122 53.5377 15.902C53.5583 15.8917 53.5993 15.8917 53.6301 15.8814C53.6609 15.8711 53.7019 15.8711 53.7327 15.8609C53.7635 15.8506 53.7943 15.8404 53.8148 15.8301C53.8456 15.8199 53.8662 15.8096 53.8867 15.7993C53.9072 15.789 53.9174 15.7685 53.9277 15.7583C53.938 15.748 53.9483 15.7275 53.9585 15.7172C53.9688 15.7069 53.9688 15.6864 53.9688 15.6762C53.9688 15.6659 53.9585 15.6556 53.9585 15.6454C53.9585 15.6351 53.9585 15.6248 53.9688 15.6043C53.979 15.5838 53.9893 15.553 53.9995 15.5325C54.0099 15.512 54.0098 15.5017 54.0098 15.4812C54.0098 15.4607 54.0098 15.4401 54.0098 15.4196C54.0098 15.3991 54.0098 15.3786 54.0098 15.358C54.0098 15.3477 53.9995 15.3375 53.9995 15.3375C53.9893 15.3375 53.9893 15.3375 53.979 15.317C53.979 15.2965 53.9688 15.2554 53.9688 15.2246C53.9688 15.1938 53.9585 15.1835 53.9585 15.1528C53.9585 15.1322 53.9483 15.1014 53.9483 15.0809C53.938 15.0604 53.938 15.0501 53.9277 15.0296C53.9174 15.0193 53.9174 14.9988 53.9072 14.9886C53.8969 14.9783 53.8867 14.968 53.8764 14.9577C53.8662 14.9475 53.8662 14.9372 53.8662 14.9167C53.8662 14.8962 53.8764 14.8654 53.8867 14.8449C53.8969 14.8243 53.9072 14.8141 53.9174 14.8038C53.9277 14.7936 53.938 14.773 53.9483 14.7628C53.9585 14.7525 53.979 14.7422 53.9893 14.732C54.0098 14.7217 54.0201 14.7115 54.0406 14.7012C54.0509 14.6909 54.0611 14.6704 54.0816 14.6601C54.1022 14.6499 54.1227 14.6294 54.133 14.6191C54.1432 14.6088 54.1535 14.6088 54.174 14.5883C54.1843 14.578 54.2048 14.5473 54.2253 14.5267C54.2459 14.5062 54.2664 14.4959 54.2869 14.4754C54.2972 14.4652 54.3074 14.4548 54.3177 14.4343C54.328 14.4138 54.3588 14.383 54.3793 14.3625C54.3998 14.342 54.4203 14.3317 54.4717 14.3112C54.523 14.2906 54.5948 14.2701 54.6564 14.2496C54.7077 14.2291 54.7385 14.2085 54.759 14.1983C54.7898 14.188 54.8103 14.1778 54.8308 14.1675C54.8514 14.1572 54.8719 14.1572 54.8719 14.147C54.8822 14.1367 54.8822 14.1264 54.8822 14.1162C54.8822 14.1059 54.8822 14.0854 54.8924 14.0751L54.9027 14.0649C54.913 14.0649 54.9232 14.0546 54.9335 14.0444C54.9438 14.0341 54.9438 14.0341 54.9438 14.0238C54.954 14.0136 54.9745 13.993 54.9848 13.9725C55.0055 13.952 55.0158 13.9417 55.0261 13.9212C55.0359 13.9007 55.0462 13.8802 55.0565 13.8493C55.0668 13.8288 55.0668 13.8083 55.0668 13.7775C55.0668 13.7467 55.0565 13.7262 55.0565 13.6954C55.0565 13.6749 55.0565 13.6544 55.0565 13.6338C55.0565 13.6133 55.0462 13.5928 55.0462 13.5723C55.0462 13.5517 55.0462 13.5312 55.0462 13.5107C55.0462 13.4902 55.0565 13.4799 55.0565 13.4696C55.0565 13.4593 55.0565 13.4491 55.0565 13.4286C55.0565 13.4183 55.0462 13.3978 55.0462 13.3875C55.0462 13.3772 55.0462 13.367 55.0565 13.3465C55.0668 13.3362 55.0668 13.3259 55.0668 13.3054C55.0668 13.2952 55.0462 13.2746 55.0462 13.2541C55.0359 13.2336 55.0462 13.2233 55.0462 13.2028C55.0462 13.1822 55.0462 13.1515 55.0462 13.1412C55.0462 13.1207 55.0359 13.1207 55.0359 13.1104C55.0359 13.1001 55.0261 13.0899 55.0261 13.0796C55.0261 13.0694 55.0261 13.0591 55.0359 13.0489C55.0462 13.0386 55.0565 13.018 55.0565 12.9975C55.0668 12.977 55.0668 12.9564 55.0565 12.9462C55.0565 12.9462 55.0565 12.9462 55.0565 12.9359C55.0565 12.9257 55.0462 12.9154 55.0359 12.9052C55.0261 12.8949 55.0158 12.8743 55.0055 12.8641C54.9951 12.8538 54.9848 12.8538 54.9745 12.8538C54.9643 12.8538 54.954 12.8436 54.9438 12.8333C54.9335 12.8231 54.913 12.8231 54.9027 12.8128C54.8822 12.8025 54.8822 12.782 54.8822 12.7615C54.8822 12.7512 54.8924 12.7307 54.8924 12.7204C54.8924 12.6999 54.8822 12.6794 54.8719 12.6588C54.8719 12.6486 54.8617 12.6383 54.8514 12.628C54.8411 12.6075 54.8308 12.5973 54.8308 12.5665C54.8206 12.546 54.8206 12.5049 54.8206 12.4741C54.8206 12.4639 54.8206 12.4536 54.8206 12.4536C54.8206 12.4433 54.8308 12.433 54.8308 12.4228C54.8308 12.4125 54.8308 12.392 54.8308 12.3818C54.8308 12.3715 54.8206 12.3715 54.8206 12.3612C54.8206 12.3509 54.8206 12.3407 54.8206 12.3202C54.8206 12.3099 54.8308 12.2893 54.8308 12.2791C54.8411 12.2688 54.8514 12.2586 54.8514 12.2381C54.8514 12.2278 54.8514 12.2176 54.8514 12.2072C54.8411 12.197 54.8308 12.1867 54.8206 12.1765C54.8103 12.1662 54.8001 12.1662 54.8001 12.156L54.7898 12.1457C54.7796 12.1354 54.7796 12.1354 54.7693 12.1251C54.7487 12.1046 54.7385 12.0944 54.7282 12.0739C54.718 12.0533 54.718 12.0225 54.718 11.9815C54.718 11.9404 54.7385 11.8994 54.7487 11.8583C54.759 11.8173 54.7796 11.7762 54.8001 11.7557C54.8103 11.7454 54.8103 11.7352 54.8206 11.7249C54.8308 11.7147 54.8411 11.7044 54.8514 11.6838C54.8719 11.6633 54.8822 11.6326 54.8924 11.612C54.9027 11.5915 54.9027 11.571 54.913 11.5505C54.913 11.5299 54.9232 11.5196 54.9335 11.4991C54.9438 11.4889 54.954 11.4786 54.9643 11.4684C54.9745 11.458 54.9745 11.4478 54.9848 11.4273C54.9848 11.417 54.9848 11.4068 54.9848 11.3965C54.9848 11.3862 54.9848 11.3862 54.9951 11.3759C55.0055 11.3657 55.0158 11.3657 55.0359 11.3554C55.0565 11.3452 55.0668 11.3452 55.0771 11.3349C55.0874 11.3247 55.0978 11.3144 55.1081 11.3041C55.1184 11.2938 55.1287 11.2733 55.1488 11.2528C55.1694 11.2323 55.2003 11.2118 55.2209 11.1912C55.2416 11.1707 55.2416 11.1604 55.2519 11.1502C55.2519 11.1502 55.2622 11.1502 55.2622 11.1399C55.2719 11.1399 55.2719 11.1297 55.2822 11.1297C55.3029 11.1194 55.3235 11.0886 55.3338 11.0681C55.3441 11.0578 55.3441 11.0476 55.3441 11.0373C55.3544 11.0168 55.375 10.9962 55.3848 10.9757C55.4157 10.9346 55.4467 10.9039 55.4776 10.8731C55.4879 10.8628 55.508 10.8423 55.5183 10.832L55.5286 10.8218C55.5492 10.8013 55.5698 10.7807 55.6008 10.7499C55.6111 10.7397 55.6214 10.7294 55.6415 10.7192C55.6518 10.7192 55.6518 10.7088 55.6621 10.7088C55.6827 10.6986 55.693 10.6781 55.7136 10.6678C55.7239 10.6576 55.744 10.637 55.7543 10.6267L55.7646 10.6165C55.7853 10.6062 55.7956 10.5857 55.8162 10.5755C55.8265 10.5652 55.8368 10.5652 55.8471 10.5549C55.8574 10.5549 55.8574 10.5447 55.8672 10.5447C55.8672 10.5447 55.8775 10.5447 55.8775 10.5344C55.9084 10.5139 55.9394 10.4934 55.9904 10.4728C56.0007 10.4728 56.0007 10.4626 56.011 10.4626C56.0316 10.4523 56.0419 10.4523 56.0625 10.442C56.0832 10.4318 56.1135 10.4215 56.1342 10.401C56.1651 10.3805 56.196 10.3394 56.2367 10.2881C56.2367 10.2881 56.2367 10.2778 56.247 10.2778C56.2676 10.2573 56.2883 10.2368 56.3089 10.206C56.3393 10.1752 56.3702 10.1342 56.4011 10.1033C56.4114 10.0931 56.4218 10.0828 56.4321 10.0726C56.4527 10.0521 56.4728 10.0315 56.4934 10.0007C56.514 9.98021 56.5243 9.94939 56.5449 9.92888C56.5552 9.90837 56.5655 9.8878 56.5753 9.87755C56.5856 9.86729 56.5856 9.85704 56.5959 9.84678C56.6062 9.83653 56.6166 9.82627 56.6166 9.81596C56.6269 9.80571 56.6269 9.79545 56.6372 9.78519C56.6578 9.75443 56.6887 9.7031 56.7088 9.67233C56.7191 9.65176 56.7191 9.63125 56.7294 9.621C56.7294 9.61074 56.7397 9.60049 56.7397 9.59023C56.75 9.55941 56.781 9.51839 56.7913 9.48757C56.7913 9.48757 56.7913 9.47731 56.8016 9.47731C56.8114 9.46705 56.8114 9.4568 56.8217 9.4568C56.832 9.44654 56.832 9.42598 56.832 9.42598C56.832 9.41572 56.8423 9.41572 56.8423 9.40547C56.8423 9.39521 56.8423 9.38496 56.8423 9.36439C56.8423 9.34388 56.8526 9.33362 56.8629 9.31311C56.8629 9.31311 56.8629 9.30286 56.8732 9.30286C56.8835 9.29255 56.8938 9.2926 56.8938 9.28229C56.9041 9.27204 56.9248 9.25152 56.9448 9.21045C56.9655 9.16943 56.9964 9.08733 57.0067 9.04625C57.017 9.00523 57.0273 8.98466 57.0273 8.96415C57.0273 8.9539 57.0273 8.94364 57.0273 8.93339C57.0376 8.90256 57.0376 8.88205 57.0479 8.86154C57.0577 8.84098 57.0577 8.83072 57.068 8.81021C57.0783 8.77944 57.068 8.74862 57.068 8.72811C57.0989 8.61519 57.0989 8.59468 57.0989 8.57417Z" fill="#C9AB5C"/>
<path d="M7.04611 7.00397L4.99353 1.6467L2.89987 7.00397H7.04611ZM0.734375 10.3702L4.5009 0.856445H5.50667L9.30397 10.3702H8.37006L7.354 7.8045H2.61251L1.60673 10.3702H0.734375Z" fill="#9D1531"/>
<path d="M10.3612 10.3702V4.47927H9.02698V3.7506H10.3612V2.34456C10.3612 1.21563 10.823 0.702484 11.9519 0.702484C12.1982 0.702484 12.4651 0.794851 12.7011 0.846165V1.48247C12.5472 1.45168 12.3727 1.43116 12.2187 1.43116C11.1411 1.43116 11.1104 1.9751 11.1514 2.91929V3.76086H12.6498V4.48954H11.1514V10.3805H10.3612V10.3702Z" fill="#9D1531"/>
<path d="M14.3124 10.3702H13.5222V5.24897C13.5324 4.73582 13.4811 4.2124 13.4606 3.76083H14.2816L14.3227 4.73582H14.3535C14.5895 4.06872 15.1848 3.58636 15.8416 3.56583C16.1084 3.55557 16.365 3.56583 16.6318 3.5761V4.33556C16.4779 4.3253 16.3034 4.28425 16.1392 4.28425C14.9692 4.28425 14.3432 5.12581 14.3227 6.38817V10.3702H14.3124Z" fill="#9D1531"/>
<path d="M18.0584 10.3702H17.2681V3.76088H18.0584V10.3702ZM18.1199 1.8417H17.1963V0.856445H18.1199V1.8417Z" fill="#9D1531"/>
<path d="M23.6928 5.78265C23.6312 4.76662 22.9847 4.28426 21.8865 4.28426C20.6755 4.28426 19.9263 5.54661 19.9263 7.05529C19.9263 8.5742 20.6755 9.84681 21.8865 9.84681C22.9128 9.84681 23.621 9.21048 23.6928 8.30734H24.5446C24.3291 9.8263 23.4671 10.5755 21.9583 10.5755C19.9776 10.5755 19.0642 8.87183 19.0642 7.0758C19.0642 5.27977 20.0495 3.57611 22.0199 3.57611C23.3746 3.57611 24.4831 4.39715 24.5446 5.80318H23.6928V5.78265Z" fill="#9D1531"/>
<path d="M27.213 9.83655C28.9372 9.83655 29.2656 8.41 29.1938 7.03472C28.0751 7.0758 25.7249 6.86027 25.7249 8.52286C25.7249 9.41575 26.4125 9.83655 27.213 9.83655ZM29.1835 5.70054C29.1014 4.62292 28.5472 4.27398 27.6133 4.27398C26.782 4.27398 26.0943 4.5203 25.9917 5.42344H25.1502C25.3452 4.06872 26.3612 3.55557 27.6236 3.55557C29.0809 3.55557 29.9943 4.22267 29.9738 5.74159V8.88208C29.9635 9.39524 30.0148 9.91865 30.0354 10.3702H29.2143L29.1835 9.39524H29.1527L29.1117 9.48759C28.8243 10.0418 27.9417 10.5652 27.0386 10.5652C25.8173 10.5652 24.8423 9.81599 24.8423 8.52286C24.8423 7.62998 25.3862 6.94236 26.1765 6.61397C27.0591 6.23424 28.2086 6.36762 29.163 6.31634V5.70054H29.1835Z" fill="#9D1531"/>
<path d="M32.1598 10.3702H31.3696V5.24896C31.3696 4.73581 31.3285 4.21239 31.308 3.76082H32.129L32.1701 4.73581L32.2009 4.7666C32.6627 3.94556 33.4119 3.56583 34.274 3.56583C36.4395 3.56583 36.6037 5.47475 36.6037 6.24448V10.3805H35.8134V6.11105C35.8134 4.96159 35.1566 4.2945 34.079 4.2945C32.7756 4.2945 32.1804 5.39264 32.1804 6.57288V10.3702H32.1598Z" fill="#9D1531"/>
<path d="M8.00061 12.0944V18.242C8.0622 19.9661 9.0577 21.013 10.6177 21.013C12.1777 21.013 13.1732 19.9764 13.2348 18.242V12.0944H14.0866V18.2625C14.0558 20.3048 12.9166 21.8032 10.6074 21.8032C8.29824 21.8032 7.17957 20.3048 7.1488 18.2625V12.0944H8.00061Z" fill="#9D1531"/>
<path d="M16.5702 21.6082H15.78V16.487C15.78 15.9738 15.7389 15.4504 15.7184 14.9989H16.5394L16.5805 15.9738L16.6113 16.0047C17.0731 15.1836 17.8223 14.8039 18.6844 14.8039C20.8499 14.8039 21.0141 16.7128 21.0141 17.4825V21.6185H20.2238V17.3491C20.2238 16.1996 19.567 15.5325 18.4894 15.5325C17.186 15.5325 16.5908 16.6307 16.5908 17.8109V21.6082H16.5702Z" fill="#9D1531"/>
<path d="M23.2411 21.6082H22.4509V14.9988H23.2411V21.6082ZM23.3129 13.0899H22.3893V12.1046H23.3129V13.0899Z" fill="#9D1531"/>
<path d="M27.3156 15.5222C25.7248 15.5222 25.0885 17.0719 25.0885 18.3035C25.0885 19.5248 25.7248 21.0848 27.3156 21.0848C28.9063 21.0848 29.5426 19.5351 29.5426 18.3035C29.5426 17.0822 28.9063 15.5222 27.3156 15.5222ZM30.4047 18.3035C30.4047 20.038 29.4298 21.8032 27.3258 21.8032C25.2219 21.8032 24.2469 20.038 24.2469 18.3035C24.2469 16.5691 25.2219 14.8038 27.3258 14.8038C29.4298 14.7936 30.4047 16.5588 30.4047 18.3035Z" fill="#9D1531"/>
<path d="M32.1598 21.6082H31.3696V16.4869C31.3696 15.9738 31.3285 15.4504 31.308 14.9988H32.129L32.1701 15.9738L32.2009 16.0045C32.6627 15.1836 33.4119 14.8038 34.274 14.8038C36.4395 14.8038 36.6037 16.7127 36.6037 17.4824V21.6184H35.8134V17.349C35.8134 16.1996 35.1566 15.5325 34.079 15.5325C32.7756 15.5325 32.1804 16.6306 32.1804 17.8108V21.6082H32.1598Z" fill="#9D1531"/>
<path d="M58.8027 21.1567H58.6898V21.1259H58.9562V21.1567H58.8434V21.4748H58.8027V21.1567Z" fill="#9D1531"/>
<path d="M59.2953 21.3208C59.2953 21.2695 59.285 21.2079 59.2953 21.1669C59.285 21.2079 59.2644 21.249 59.2541 21.3003L59.1922 21.4748H59.1619L59.1 21.3106C59.0794 21.2592 59.0691 21.2182 59.0593 21.1771C59.0593 21.2182 59.0593 21.2797 59.049 21.3311L59.0387 21.485H58.9974L59.0181 21.1258H59.0794L59.1412 21.3003C59.1515 21.3413 59.1722 21.3824 59.1722 21.4234C59.1825 21.3927 59.1922 21.3516 59.2129 21.3003L59.2747 21.1258H59.336L59.3567 21.485H59.3154L59.2953 21.3208Z" fill="#9D1531"/>
<path d="M59.0388 20.8488C58.7821 20.8488 58.5667 21.0643 58.5667 21.3208C58.5667 21.5774 58.7821 21.7929 59.0388 21.7929C59.2954 21.7929 59.5108 21.5774 59.5108 21.3208C59.5005 21.0643 59.2954 20.8488 59.0388 20.8488ZM59.0388 21.8443C58.7512 21.8443 58.5151 21.6082 58.5151 21.3208C58.5151 21.0335 58.7512 20.7974 59.0388 20.7974C59.3258 20.7974 59.5619 21.0335 59.5619 21.3208C59.5515 21.6082 59.3155 21.8443 59.0388 21.8443Z" fill="#9D1531"/>
</svg>
