<svg width="37" height="26" viewBox="0 0 37 26" fill="none" xmlns="http://www.w3.org/2000/svg">
<path d="M36.1658 0.0541077H0.894775V25.659H36.1658V0.0541077Z" fill="white"/>
<path d="M36.1658 0.0541077H0.894775V25.659H36.1658V0.0541077Z" fill="#07519F"/>
<path d="M18.7892 3.83727H19.8126L18.9883 4.51474L19.3084 5.5901L18.4877 4.92897L17.6671 5.5901L17.9909 4.51474L17.1591 3.83727H18.1788L18.4877 2.79047L18.7892 3.83727Z" fill="#FCEE23"/>
<path d="M18.8336 21.1718H19.8571L19.0327 21.8493L19.3509 22.9226L18.5321 22.2614L17.7115 22.9226L18.0353 21.8493L17.2035 21.1718H18.2232L18.5321 20.125L18.8336 21.1718Z" fill="#FCEE23"/>
<path d="M22.747 20.0209H23.7705L22.9462 20.7004L23.2662 21.7737L22.4456 21.1126L21.6249 21.7737L21.9487 20.7004L21.1188 20.0209H22.1367L22.4456 18.9741L22.747 20.0209Z" fill="#FCEE23"/>
<path d="M22.747 4.97968H23.7705L22.9462 5.65711L23.2662 6.73046L22.4456 6.06933L21.6249 6.73046L21.9487 5.65711L21.1188 4.97968H22.1367L22.4456 3.93082L22.747 4.97968Z" fill="#FCEE23"/>
<path d="M25.652 8.1653H26.6754L25.8511 8.84277L26.1711 9.91608L25.3505 9.25495L24.5298 9.91608L24.8536 8.84277L24.0237 8.1653H25.0416L25.3505 7.11847L25.652 8.1653Z" fill="#FCEE23"/>
<path d="M25.652 16.8805H26.6754L25.8511 17.558L26.1711 18.6333L25.3505 17.9701L24.5298 18.6333L24.8536 17.558L24.0237 16.8805H25.0416L25.3505 15.8337L25.652 16.8805Z" fill="#FCEE23"/>
<path d="M26.7423 12.4566H27.7639L26.9414 13.134L27.2596 14.2074L26.439 13.5462L25.6202 14.2074L25.944 13.134L25.1122 12.4566H26.1319L26.439 11.4077L26.7423 12.4566Z" fill="#FCEE23"/>
<path d="M14.7993 4.98986H15.8209L14.9985 5.66733L15.3167 6.74064L14.4979 6.07951L13.6772 6.74064L14.001 5.66733L13.1692 4.98986H14.189L14.4979 3.94305L14.7993 4.98986Z" fill="#FCEE23"/>
<path d="M11.9745 8.17548H12.9979L12.1736 8.85295L12.4937 9.92832L11.673 9.26513L10.8524 9.92832L11.1762 8.85295L10.3444 8.17548H11.3641L11.673 7.12869L11.9745 8.17548Z" fill="#FCEE23"/>
<path d="M10.9249 12.4668H11.9484L11.124 13.1443L11.4441 14.2196L10.6234 13.5565L9.80279 14.2196L10.1266 13.1443L9.29663 12.4668H10.3145L10.6234 11.42L10.9249 12.4668Z" fill="#FCEE23"/>
<path d="M11.9745 16.8907H12.9979L12.1736 17.5702L12.4937 18.6435L11.673 17.9804L10.8524 18.6435L11.1762 17.5702L10.3444 16.8907H11.3641L11.673 15.8439L11.9745 16.8907Z" fill="#FCEE23"/>
<path d="M14.8401 20.0332H15.8617L15.0392 20.7106L15.3574 21.784L14.5368 21.1228L13.718 21.784L14.0399 20.7106L13.21 20.0332H14.2279L14.5368 18.9843L14.8401 20.0332Z" fill="#FCEE23"/>
</svg>
