<svg width="21" height="20" viewBox="0 0 21 20" fill="none" xmlns="http://www.w3.org/2000/svg">
<path d="M9.05872 13.9073C8.36619 13.8475 7.66531 13.817 6.95729 13.817H6.20335C3.705 13.817 1.67969 11.7917 1.67969 9.29338C1.67969 6.79503 3.705 4.76972 6.20335 4.76972H6.95729C7.6653 4.76972 8.36619 4.73922 9.05872 4.67946M9.05872 13.9073C9.3129 14.874 9.64507 15.8092 10.0481 16.7056C10.2968 17.2589 10.108 17.9213 9.58263 18.2246L8.92286 18.6055C8.36858 18.9255 7.65655 18.7233 7.38795 18.1423C6.75805 16.7799 6.2691 15.3389 5.93983 13.8381M9.05872 13.9073C8.67143 12.4343 8.46518 10.8879 8.46518 9.29338C8.46518 7.69883 8.67143 6.15245 9.05872 4.67946M9.05872 13.9073C12.2349 14.1813 15.235 15.0708 17.9395 16.4558M9.05872 4.67946C12.2349 4.40542 15.235 3.51599 17.9395 2.131M17.9395 2.131C17.8211 1.74987 17.6936 1.37278 17.5572 1M17.9395 2.131C18.4772 3.86325 18.8251 5.6791 18.9587 7.55419M17.9395 16.4558C17.8211 16.8369 17.6936 17.214 17.5572 17.5868M17.9395 16.4558C18.4772 14.7235 18.8251 12.9077 18.9587 11.0326M18.9587 7.55419C19.4571 7.96909 19.7743 8.59418 19.7743 9.29338C19.7743 9.99257 19.4571 10.6177 18.9587 11.0326M18.9587 7.55419C18.9996 8.1286 19.0204 8.70856 19.0204 9.29338C19.0204 9.8782 18.9996 10.4582 18.9587 11.0326" stroke="#838C48" stroke-width="1.6" stroke-linecap="round" stroke-linejoin="round"/>
</svg>
