<svg width="35" height="31" viewBox="0 0 35 31" fill="none" xmlns="http://www.w3.org/2000/svg">
<mask id="mask0_742_17044" style="mask-type:alpha" maskUnits="userSpaceOnUse" x="0" y="0" width="18" height="31">
<rect x="0.917969" y="0.93988" width="16.6532" height="29.3988" fill="#D9D9D9"/>
</mask>
<g mask="url(#mask0_742_17044)">
<path d="M27.6443 16.4553C27.6443 21.8906 23.1476 26.3216 17.5697 26.3216C11.9919 26.3216 7.49512 21.8906 7.49512 16.4553C7.49512 11.02 11.9919 6.58911 17.5697 6.58911C23.1476 6.58911 27.6443 11.02 27.6443 16.4553Z" stroke="#11074C" stroke-width="1.5"/>
</g>
<mask id="mask1_742_17044" style="mask-type:alpha" maskUnits="userSpaceOnUse" x="17" y="0" width="18" height="31">
<rect x="17.5723" y="0.93988" width="16.6532" height="29.3988" fill="#D9D9D9"/>
</mask>
<g mask="url(#mask1_742_17044)">
</g>
<mask id="mask2_742_17044" style="mask-type:alpha" maskUnits="userSpaceOnUse" x="13" y="0" width="18" height="31">
<rect x="13.4121" y="0.93988" width="16.6532" height="29.3988" fill="#D9D9D9"/>
</mask>
<g mask="url(#mask2_742_17044)">
<path d="M26.578 10.557C27.343 11.6776 27.8961 12.949 28.1813 14.3161C27.7851 14.3837 27.5106 14.7537 27.5645 15.1552C27.6216 15.5803 27.6511 16.0143 27.6511 16.4553C27.6511 16.8964 27.6216 17.3303 27.5645 17.7554C27.5106 18.157 27.7851 18.527 28.1813 18.5945C27.8961 19.9617 27.343 21.2331 26.578 22.3537C26.2542 22.1151 25.797 22.1746 25.5455 22.4925C25.0065 23.1738 24.3781 23.7844 23.6775 24.3074C23.3526 24.55 23.2803 25.0055 23.51 25.336C22.3761 26.0662 21.094 26.5931 19.7174 26.8639C19.6535 26.4665 19.2852 26.1885 18.8827 26.2395C18.4555 26.2936 18.0195 26.3216 17.5765 26.3216C17.1336 26.3216 16.6976 26.2936 16.2704 26.2395C15.8679 26.1885 15.4996 26.4665 15.4357 26.8639C14.0591 26.5931 12.777 26.0662 11.6431 25.336C11.8727 25.0055 11.8005 24.55 11.4755 24.3074C10.7749 23.7844 10.1466 23.1738 9.60762 22.4925C9.35609 22.1746 8.89894 22.1151 8.57505 22.3537C7.81013 21.2331 7.257 19.9617 6.9718 18.5945C7.36803 18.527 7.6425 18.157 7.58856 17.7554C7.53146 17.3304 7.50195 16.8964 7.50195 16.4553C7.50195 16.0143 7.53146 15.5803 7.58856 15.1552C7.6425 14.7537 7.36803 14.3837 6.9718 14.3161C7.257 12.949 7.81013 11.6776 8.57505 10.557C8.89893 10.7955 9.35609 10.7361 9.60762 10.4182C10.1466 9.73688 10.7749 9.12624 11.4755 8.60329C11.8005 8.36071 11.8727 7.90516 11.6431 7.57467C12.777 6.84448 14.0591 6.31756 15.4357 6.04672C15.4996 6.44421 15.8679 6.72218 16.2704 6.6712C16.6976 6.61707 17.1336 6.58911 17.5765 6.58911C18.0195 6.58911 18.4555 6.61707 18.8827 6.6712C19.2852 6.72218 19.6535 6.44421 19.7174 6.04672C21.094 6.31756 22.3761 6.84448 23.51 7.57467C23.2803 7.90516 23.3526 8.36071 23.6775 8.60329C24.3781 9.12624 25.0065 9.73688 25.5455 10.4182C25.797 10.7361 26.2542 10.7955 26.578 10.557Z" stroke="#11074C" stroke-width="1.5" stroke-linecap="round" stroke-linejoin="round" stroke-dasharray="2.5 5"/>
</g>
<path d="M17.5723 6.99255V26.0153" stroke="#11074C" stroke-width="1.5" stroke-linecap="round" stroke-linejoin="round"/>
</svg>
