<svg width="32" height="32" viewBox="0 0 32 32" fill="none" xmlns="http://www.w3.org/2000/svg">
<path d="M13.2494 6.78864C13.3527 6.16868 13.8891 5.71429 14.5176 5.71429H17.4821C18.1106 5.71429 18.647 6.16868 18.7503 6.78864L18.9943 8.25269C19.0656 8.68017 19.3513 9.03625 19.7304 9.24613C19.8152 9.29306 19.899 9.34153 19.9818 9.39152C20.3532 9.61583 20.8051 9.68557 21.2114 9.53333L22.6021 9.01233C23.1907 8.79183 23.8524 9.02916 24.1666 9.57346L25.6489 12.1408C25.9632 12.6851 25.8378 13.3768 25.3526 13.7763L24.2048 14.7212C23.8705 14.9964 23.7048 15.4214 23.7128 15.8543C23.7137 15.9028 23.7141 15.9513 23.7141 16C23.7141 16.0487 23.7137 16.0972 23.7128 16.1457C23.7048 16.5786 23.8705 17.0036 24.2048 17.2788L25.3526 18.2237C25.8378 18.6232 25.9632 19.3149 25.6489 19.8592L24.1666 22.4265C23.8524 22.9708 23.1907 23.2082 22.6021 22.9877L21.2114 22.4667C20.8051 22.3144 20.3533 22.3842 19.9818 22.6085C19.899 22.6585 19.8152 22.707 19.7304 22.7539C19.3513 22.9638 19.0656 23.3198 18.9943 23.7473L18.7503 25.2114C18.647 25.8313 18.1106 26.2857 17.4821 26.2857H14.5176C13.8891 26.2857 13.3527 25.8313 13.2494 25.2114L13.0054 23.7473C12.9341 23.3198 12.6484 22.9638 12.2693 22.7539C12.1845 22.707 12.1007 22.6585 12.0179 22.6085C11.6464 22.3842 11.1946 22.3145 10.7883 22.4667L9.39758 22.9877C8.80902 23.2082 8.14731 22.9709 7.83306 22.4266L6.35079 19.8592C6.03654 19.3149 6.16186 18.6232 6.64709 18.2237L7.79492 17.2788C8.12922 17.0036 8.29493 16.5786 8.28691 16.1457C8.28601 16.0972 8.28556 16.0487 8.28556 16C8.28556 15.9513 8.28601 15.9028 8.28691 15.8543C8.29493 15.4214 8.12921 14.9965 7.79492 14.7213L6.64709 13.7763C6.16186 13.3769 6.03654 12.6851 6.35079 12.1408L7.83306 9.57348C8.14731 9.02918 8.80902 8.79185 9.39758 9.01234L10.7883 9.53334C11.1946 9.68558 11.6464 9.61584 12.0179 9.39153C12.1007 9.34154 12.1845 9.29306 12.2693 9.24613C12.6484 9.03625 12.9341 8.68017 13.0054 8.25269L13.2494 6.78864Z" stroke="#404715" stroke-width="1.5" stroke-linecap="round" stroke-linejoin="round"/>
<path d="M19.4282 15.9999C19.4282 17.8935 17.8931 19.4285 15.9996 19.4285C14.106 19.4285 12.571 17.8935 12.571 15.9999C12.571 14.1064 14.106 12.5713 15.9996 12.5713C17.8931 12.5713 19.4282 14.1064 19.4282 15.9999Z" stroke="#404715" stroke-width="1.5" stroke-linecap="round" stroke-linejoin="round"/>
</svg>
