<svg width="27" height="23" viewBox="0 0 27 23" fill="none" xmlns="http://www.w3.org/2000/svg">
<path d="M26.1651 1.48435L21.9592 1.48639C21.9592 1.48639 19.0324 1.17069 17.957 6.12817C16.8836 11.0836 15.8082 21.7155 8.10313 21.7745C5.85047 21.7929 3.37784 21.801 1.00909 21.801" stroke="#697523" stroke-width="1.33333" stroke-miterlimit="10" stroke-linecap="round" stroke-linejoin="round"/>
<path d="M4.82123 16.2893C4.82123 16.2893 6.29788 16.5764 7.28571 18.4034C8.27353 20.2304 10.2492 20.375 10.2492 20.375" stroke="#697523" stroke-width="1.33333" stroke-miterlimit="10" stroke-linecap="round" stroke-linejoin="round"/>
<path d="M1.00909 15.2352C1.08038 15.1965 1.1537 15.1537 1.22703 15.113C4.57139 13.176 6.54297 14.2494 8.69379 15.445C10.8426 16.6385 11.0829 17.2068 13.1726 16.5041" stroke="#697523" stroke-width="1.33333" stroke-miterlimit="10" stroke-linecap="round" stroke-linejoin="round"/>
<path d="M15.7624 7.75272C15.7624 7.75272 12.1513 5.72207 9.12667 7.30259C9.12667 7.30259 12.1981 7.43702 12.1981 11.093C12.1981 11.093 11.8356 12.1766 9.35275 10.7305C6.87198 9.28843 4.79448 9.37805 3.71296 10.4148C3.12841 10.9749 2.18132 11.5187 1 11.6226" stroke="#697523" stroke-width="1.33333" stroke-miterlimit="10" stroke-linecap="round" stroke-linejoin="round"/>
</svg>
