<svg width="23" height="28" viewBox="0 0 23 28" fill="none" xmlns="http://www.w3.org/2000/svg">
<path d="M11.29 20.3177V26.4688" stroke="#697523" stroke-width="1.33333" stroke-miterlimit="10" stroke-linecap="round" stroke-linejoin="round"/>
<path d="M15.8937 18.5519V26.4688" stroke="#697523" stroke-width="1.33333" stroke-miterlimit="10" stroke-linecap="round" stroke-linejoin="round"/>
<path d="M12.4104 10.3072V13.8023C12.4104 15.3543 11.1517 16.613 9.59762 16.613H7.55067" stroke="#697523" stroke-width="1.33333" stroke-miterlimit="10" stroke-linecap="round" stroke-linejoin="round"/>
<path d="M2.76505 9.47349V10.9501C2.76505 12.439 3.97284 13.6448 5.46171 13.6448H7.38849" stroke="#697523" stroke-width="1.33333" stroke-miterlimit="10" stroke-linecap="round" stroke-linejoin="round"/>
<path d="M7.38365 4.44218V26.4697" stroke="#697523" stroke-width="1.33333" stroke-miterlimit="10" stroke-linecap="round" stroke-linejoin="round"/>
<path d="M20.5407 26.4688H1" stroke="#697523" stroke-width="1.33333" stroke-miterlimit="10" stroke-linecap="round" stroke-linejoin="round"/>
<path d="M22.0207 3.53812C22.0207 4.94348 20.8822 6.08203 19.4768 6.08203C18.0694 6.08203 16.9309 4.94348 16.9309 3.53812C16.9309 2.13276 18.0694 0.992171 19.4768 0.992171C20.8822 0.992171 22.0207 2.13276 22.0207 3.53812Z" stroke="#697523" stroke-width="1.33333" stroke-miterlimit="10" stroke-linecap="round" stroke-linejoin="round"/>
</svg>
