<svg width="19" height="28" viewBox="0 0 19 28" fill="none" xmlns="http://www.w3.org/2000/svg">
<path d="M17.1036 21.8058H1.84219C1.11303 21.8058 0.730118 20.7161 1.21894 20.0379L4.47368 15.5041H3.23737C2.51228 15.5041 2.12733 14.4225 2.61208 13.7402L5.65296 9.43655H5.13766C4.40239 9.43655 4.02356 8.32855 4.5246 7.65642L9.47392 0.992145L14.4192 7.65642C14.9223 8.32855 14.5414 9.43655 13.8061 9.43655H13.2908L16.3358 13.7402C16.8164 14.4225 16.4315 15.5041 15.7064 15.5041H14.4701L17.7248 20.0379C18.2137 20.7161 17.8307 21.8058 17.1036 21.8058Z" stroke="#697523" stroke-width="1.33333" stroke-miterlimit="10" stroke-linecap="round" stroke-linejoin="round"/>
<path d="M9.48857 8.45831V26.6119" stroke="#697523" stroke-width="1.33333" stroke-miterlimit="10" stroke-linecap="round" stroke-linejoin="round"/>
<path d="M12.56 14.5246L9.48857 17.5593" stroke="#697523" stroke-width="1.33333" stroke-miterlimit="10" stroke-linecap="round" stroke-linejoin="round"/>
<path d="M6.38611 11.3976L9.48606 14.3203" stroke="#697523" stroke-width="1.33333" stroke-miterlimit="10" stroke-linecap="round" stroke-linejoin="round"/>
</svg>
