<svg width="29" height="29" viewBox="0 0 29 29" fill="none" xmlns="http://www.w3.org/2000/svg">
<path d="M7.20132 16.9786C7.29505 16.9589 7.31725 17.0131 7.33698 17.0674C7.53923 17.6322 7.80561 18.165 8.13612 18.6657C8.21505 18.7841 8.11886 18.8211 8.05473 18.8704C7.39371 19.3736 6.73269 19.8743 6.07167 20.3774C5.27252 20.9866 4.47091 21.5909 3.67423 22.2051C3.54104 22.3087 3.47198 22.3112 3.37332 22.1632C2.65804 21.11 2.09321 19.9877 1.68377 18.7841C1.62951 18.6262 1.65418 18.567 1.81943 18.5201C3.58791 18.017 5.35638 17.5089 7.12733 17.0008C7.15693 16.9909 7.18652 16.9835 7.20132 16.9786Z" stroke="#697523" stroke-miterlimit="10" stroke-linecap="round" stroke-linejoin="round"/>
<path d="M6.90201 14.6464C6.90201 15.0879 6.95381 15.5244 7.0426 15.9561C7.06973 16.0917 7.05246 16.1558 6.90448 16.1978C5.13107 16.7009 3.35519 17.2115 1.58425 17.7245C1.44119 17.7665 1.38939 17.7418 1.35486 17.5913C1.06628 16.3334 0.950356 15.0632 1.01942 13.7757C1.02682 13.6499 1.06382 13.6178 1.18714 13.6302C3.03208 13.7979 4.87702 13.9656 6.72195 14.1259C6.86254 14.1383 6.92667 14.1728 6.90448 14.3257C6.88968 14.4293 6.90201 14.5378 6.90201 14.6464Z" stroke="#697523" stroke-miterlimit="10" stroke-linecap="round" stroke-linejoin="round"/>
<path d="M11.6086 27.6962C10.9994 27.563 10.4345 27.3953 9.87712 27.1931C9.2161 26.9538 8.57728 26.6603 7.95819 26.3224C7.83733 26.2558 7.80033 26.2065 7.88419 26.0708C8.86339 24.4972 9.83766 22.9211 10.8095 21.345C10.8736 21.2389 10.9229 21.2094 11.0438 21.2735C11.5321 21.5349 12.0476 21.7298 12.5878 21.863C12.7407 21.9 12.7728 21.9567 12.7432 22.1047C12.4003 23.9176 12.06 25.7329 11.7171 27.5458C11.7023 27.6148 11.7147 27.7308 11.6086 27.6962Z" stroke="#697523" stroke-miterlimit="10" stroke-linecap="round" stroke-linejoin="round"/>
<path d="M1.13253 12.6174C1.23119 11.88 1.40384 11.1351 1.63569 10.4025C1.79355 9.90675 1.98347 9.42085 2.19559 8.94482C2.25232 8.8141 2.29918 8.7771 2.44224 8.84863C4.09232 9.67737 5.74487 10.4987 7.39989 11.3201C7.52075 11.3793 7.55528 11.4286 7.49608 11.5618C7.2741 12.0699 7.11378 12.6002 7.02498 13.1477C7.00525 13.2661 6.95839 13.3056 6.83753 13.2933C5.11098 13.1329 3.38444 12.9775 1.65789 12.8222C1.52223 12.8098 1.38411 12.8 1.24599 12.7827C1.12513 12.7679 1.12513 12.763 1.13253 12.6174Z" stroke="#697523" stroke-miterlimit="10" stroke-linecap="round" stroke-linejoin="round"/>
<path d="M14.5311 28.0033C13.9218 27.9959 13.3126 27.9712 12.7083 27.8874C12.5776 27.8676 12.5283 27.838 12.5554 27.6876C12.9057 25.8673 13.246 24.047 13.5864 22.2243C13.6061 22.1182 13.6308 22.0516 13.764 22.0664C14.3165 22.1281 14.869 22.1207 15.419 22.0516C15.5719 22.0319 15.6237 22.0738 15.6533 22.2243C15.9888 24.0322 16.3291 25.8402 16.6745 27.6481C16.709 27.8306 16.6079 27.8454 16.4821 27.8627C15.8358 27.9564 15.1847 28.0033 14.5311 28.0033Z" stroke="#697523" stroke-miterlimit="10" stroke-linecap="round" stroke-linejoin="round"/>
<path d="M23.2846 4.30168C23.2451 4.34854 23.2032 4.40281 23.1563 4.45214C22.4238 5.25375 21.6888 6.05289 20.9537 6.8545C20.458 7.39713 19.9597 7.93729 19.4689 8.48486C19.3628 8.60571 19.2963 8.61311 19.168 8.50952C18.7536 8.16914 18.2973 7.89043 17.8139 7.66105C17.6856 7.60185 17.6659 7.54759 17.7152 7.41933C18.3836 5.69772 19.0447 3.97364 19.7032 2.24956C19.755 2.1139 19.8068 2.0769 19.9474 2.14103C21.1239 2.67133 22.2092 3.34221 23.1933 4.17589C23.2303 4.20795 23.2821 4.22769 23.2846 4.30168Z" stroke="#697523" stroke-miterlimit="10" stroke-linecap="round" stroke-linejoin="round"/>
<path d="M7.05991 25.7612C7.02785 25.7415 6.99085 25.7218 6.95385 25.6971C5.89079 24.9769 4.94859 24.1235 4.12478 23.1393C4.04339 23.0432 4.03846 22.984 4.14698 22.9001C5.62934 21.7778 7.11171 20.6507 8.58914 19.5235C8.6878 19.4495 8.74699 19.4593 8.82346 19.5481C9.1959 19.9798 9.6152 20.3571 10.0814 20.6803C10.2121 20.7715 10.148 20.843 10.0937 20.9294C9.47708 21.9283 8.85799 22.9272 8.24136 23.9262C7.89112 24.491 7.54088 25.0583 7.19064 25.6231C7.15857 25.6749 7.13884 25.7415 7.05991 25.7612Z" stroke="#697523" stroke-miterlimit="10" stroke-linecap="round" stroke-linejoin="round"/>
<path d="M7.90839 10.6334C7.87386 10.6162 7.83193 10.6014 7.79246 10.5816C6.13991 9.76028 4.48736 8.93401 2.82988 8.11513C2.68435 8.0436 2.67695 7.97947 2.75341 7.84382C3.3873 6.74129 4.15192 5.74483 5.05959 4.85443C5.16811 4.74837 5.22238 4.7681 5.31117 4.86922C6.54935 6.23073 7.78753 7.59223 9.03065 8.95127C9.12437 9.0524 9.14657 9.11653 9.03804 9.22752C8.64834 9.61476 8.31783 10.0513 8.02925 10.5175C8.00212 10.5619 7.98485 10.6236 7.90839 10.6334Z" stroke="#697523" stroke-miterlimit="10" stroke-linecap="round" stroke-linejoin="round"/>
<path d="M25.0654 22.8932C25.0432 22.9228 25.0234 22.9598 24.9938 22.9944C24.1848 23.9908 23.2525 24.8541 22.2042 25.594C22.0883 25.6754 22.0316 25.6656 21.9576 25.5398C20.9858 23.9612 20.0115 22.3851 19.0348 20.809C18.9657 20.7005 18.9707 20.6413 19.0767 20.5649C19.5133 20.2516 19.8956 19.8767 20.2458 19.4722C20.3618 19.339 20.4333 19.3439 20.564 19.4426C21.8565 20.4243 23.1514 21.3985 24.4463 22.3753C24.6214 22.506 24.799 22.6392 24.9716 22.7724C25.0111 22.802 25.0629 22.8217 25.0654 22.8932Z" stroke="#697523" stroke-miterlimit="10" stroke-linecap="round" stroke-linejoin="round"/>
<path d="M14.1521 3.94814C14.1521 4.85335 14.1447 5.75855 14.157 6.66376C14.1595 6.86847 14.0879 6.91534 13.9054 6.9252C13.3948 6.9474 12.8941 7.04606 12.4058 7.19405C12.2603 7.23845 12.2011 7.21378 12.1468 7.06826C11.614 5.67716 11.0739 4.29099 10.5362 2.90235C10.403 2.56444 10.2772 2.2216 10.1391 1.88615C10.0897 1.76776 10.1169 1.72337 10.2328 1.68637C11.4414 1.2868 12.6771 1.06234 13.9473 1.00068C14.1175 0.993283 14.157 1.05001 14.1545 1.2128C14.1471 2.12294 14.1521 3.03554 14.1521 3.94814Z" stroke="#697523" stroke-miterlimit="10" stroke-linecap="round" stroke-linejoin="round"/>
<path d="M16.437 21.9195C16.4247 21.8727 16.474 21.848 16.5431 21.8283C17.0956 21.6753 17.6259 21.4632 18.1266 21.1845C18.2252 21.1302 18.2647 21.1623 18.3165 21.2437C19.2981 22.8371 20.2823 24.4304 21.2689 26.0188C21.3453 26.1422 21.2861 26.1792 21.1949 26.231C20.0998 26.855 18.9356 27.3187 17.7122 27.627C17.5469 27.6665 17.5075 27.6147 17.4803 27.4691C17.2016 25.9695 16.918 24.4723 16.6368 22.9752C16.5727 22.6348 16.5085 22.2944 16.437 21.9195Z" stroke="#697523" stroke-miterlimit="10" stroke-linecap="round" stroke-linejoin="round"/>
<path d="M21.1726 10.7328C21.0986 10.7353 21.0789 10.6835 21.0542 10.6416C20.7632 10.1532 20.4302 9.69936 20.0355 9.29239C19.9418 9.1962 19.9936 9.1444 20.0577 9.07534C20.8988 8.16027 21.7399 7.24274 22.581 6.3252C22.9953 5.87136 23.4146 5.42 23.8265 4.96123C23.9055 4.87243 23.9548 4.8601 24.0461 4.95136C24.9513 5.8541 25.7085 6.86783 26.3325 7.98022C26.3991 8.09861 26.3769 8.14794 26.261 8.20713C24.5936 9.03341 22.9312 9.86215 21.2663 10.6909C21.2318 10.7082 21.1973 10.723 21.1726 10.7328Z" stroke="#697523" stroke-miterlimit="10" stroke-linecap="round" stroke-linejoin="round"/>
<path d="M22.1741 13.3705C22.0582 13.4026 22.0212 13.3483 22.004 13.2497C21.9176 12.6972 21.7672 12.157 21.5452 11.6415C21.4885 11.5083 21.5625 11.4812 21.6513 11.4368C22.5515 10.9904 23.4518 10.5415 24.3496 10.095C25.1093 9.71519 25.869 9.34029 26.6237 8.95305C26.7569 8.88399 26.8038 8.91358 26.858 9.03691C27.3587 10.1838 27.6991 11.3776 27.8816 12.6133C27.9063 12.786 27.8594 12.8402 27.6843 12.8575C26.1255 12.9981 24.5691 13.1486 23.0103 13.2965C22.7291 13.3212 22.4479 13.3459 22.1741 13.3705Z" stroke="#697523" stroke-miterlimit="10" stroke-linecap="round" stroke-linejoin="round"/>
<path d="M15.4223 1.02723C16.5692 1.10369 17.6865 1.33307 18.7792 1.68331C18.9691 1.74498 18.9814 1.80911 18.9124 1.98669C18.2513 3.68364 17.6002 5.38306 16.954 7.08494C16.8898 7.24773 16.8282 7.26499 16.6703 7.21566C16.1844 7.06274 15.6837 6.96408 15.1756 6.92955C15.0375 6.91968 14.9808 6.88022 14.9808 6.7273C14.9857 4.87989 14.9857 3.03249 14.9808 1.18508C14.9808 1.04696 15.0128 0.985296 15.1608 1.00996C15.2472 1.02476 15.3359 1.01983 15.4223 1.02723Z" stroke="#697523" stroke-miterlimit="10" stroke-linecap="round" stroke-linejoin="round"/>
<path d="M27.9989 14.5952C28.0087 15.5966 27.8805 16.5857 27.6634 17.5624C27.6289 17.7153 27.5796 17.7499 27.4242 17.7055C25.6532 17.19 23.8798 16.6819 22.104 16.1762C21.9708 16.1392 21.9387 16.085 21.9683 15.9518C22.0768 15.4412 22.1237 14.9208 22.1089 14.4004C22.1064 14.2672 22.1409 14.2178 22.284 14.203C24.0969 14.0353 25.9098 13.8602 27.7202 13.69C27.9939 13.6629 27.9939 13.6653 27.9989 13.9367C28.0013 14.1562 27.9989 14.3757 27.9989 14.5952Z" stroke="#697523" stroke-miterlimit="10" stroke-linecap="round" stroke-linejoin="round"/>
<path d="M11.3962 7.46802C11.4135 7.55681 11.3617 7.57408 11.3173 7.59381C10.8018 7.83306 10.3208 8.12657 9.87191 8.47435C9.76832 8.55574 9.72639 8.47188 9.67459 8.41515C9.17389 7.86759 8.67566 7.32003 8.17743 6.77247C7.42761 5.95112 6.68273 5.12731 5.92798 4.3109C5.83426 4.20731 5.82686 4.15551 5.94032 4.06179C6.91952 3.26264 7.98751 2.61149 9.14429 2.10092C9.27255 2.04419 9.31695 2.08612 9.36135 2.19958C10.0273 3.9286 10.6957 5.65514 11.3641 7.38169C11.3789 7.41622 11.3913 7.45075 11.3962 7.46802Z" stroke="#697523" stroke-miterlimit="10" stroke-linecap="round" stroke-linejoin="round"/>
<path d="M25.552 22.1547C25.5174 22.1325 25.4755 22.1054 25.4361 22.0758C23.971 20.9708 22.5083 19.8634 21.0383 18.7633C20.9076 18.6647 20.8977 18.5907 20.984 18.4599C21.2578 18.0357 21.4749 17.5819 21.6401 17.1058C21.6894 16.9677 21.7511 16.943 21.8892 16.9825C23.6503 17.4931 25.4139 18.0012 27.1774 18.5043C27.3254 18.5463 27.3698 18.6005 27.318 18.7534C26.9283 19.925 26.3857 21.0177 25.6975 22.0388C25.626 22.1473 25.6087 22.1597 25.552 22.1547Z" stroke="#697523" stroke-miterlimit="10" stroke-linecap="round" stroke-linejoin="round"/>
</svg>
