<svg width="30" height="26" viewBox="0 0 30 26" fill="none" xmlns="http://www.w3.org/2000/svg">
<path d="M2 10L7.5 16.5L10 14.5L14.5 16.5L13 20L9 22.5L11.5 25L21.5 22.5V16L17 13L25.5 10L29 15.5L27.5 22V25" stroke="#697523"/>
<path d="M2.5 19.5L8 16.5V10.5" stroke="#697523"/>
<path d="M28.5 15.5H21.5L14 16.5L13 20L22 22.5L28.5 18" stroke="#697523"/>
<path d="M7.5 16L9 22.5L2.5 19.5L0.5 24.5" stroke="#697523"/>
<path d="M7.5 16.5L10 14.5L14 10.5L17 13" stroke="#697523"/>
<path d="M29 25H1" stroke="#697523" stroke-width="1.33333" stroke-miterlimit="10" stroke-linecap="round" stroke-linejoin="round"/>
<path d="M29 10H1" stroke="#697523" stroke-width="1.33333" stroke-miterlimit="10" stroke-linecap="round" stroke-linejoin="round"/>
<path d="M8 7.5006C8 8.32893 7.32893 9 6.5006 9C5.67107 9 5 8.32893 5 7.5006C5 6.67227 5.67107 6 6.5006 6C7.32893 6 8 6.67227 8 7.5006Z" stroke="#BAC192" stroke-width="0.7" stroke-miterlimit="10" stroke-linecap="round" stroke-linejoin="round"/>
<path d="M5 3.0008C5 4.10524 4.10524 5 3.0008 5C1.89476 5 1 4.10524 1 3.0008C1 1.89636 1.89476 1 3.0008 1C4.10524 1 5 1.89636 5 3.0008Z" stroke="#697523" stroke-width="0.7" stroke-miterlimit="10" stroke-linecap="round" stroke-linejoin="round"/>
<path d="M21 5.0008C21 6.10524 20.1052 7 19.0008 7C17.8948 7 17 6.10524 17 5.0008C17 3.89636 17.8948 3 19.0008 3C20.1052 3 21 3.89636 21 5.0008Z" stroke="#BAC192" stroke-width="0.7" stroke-miterlimit="10" stroke-linecap="round" stroke-linejoin="round"/>
<path d="M15 5.0004C15 5.55262 14.5526 6 14.0004 6C13.4474 6 13 5.55262 13 5.0004C13 4.44818 13.4474 4 14.0004 4C14.5526 4 15 4.44818 15 5.0004Z" stroke="#697523" stroke-width="0.5" stroke-miterlimit="10" stroke-linecap="round" stroke-linejoin="round"/>
</svg>
