<svg width="24" height="24" viewBox="0 0 24 24" fill="none" xmlns="http://www.w3.org/2000/svg">
<circle cx="12" cy="12" r="12" fill="#74B281"/>
<path d="M5.69322 11.9999C5.65048 11.8716 5.65044 11.7328 5.6931 11.6046C6.55199 9.02257 8.98761 7.16064 11.8581 7.16064C14.7272 7.16064 17.1619 9.02084 18.0219 11.601C18.0646 11.7292 18.0647 11.868 18.022 11.9963C17.1631 14.5783 14.7275 16.4402 11.857 16.4402C8.98786 16.4402 6.55318 14.58 5.69322 11.9999Z" stroke="#F8F9F4" stroke-linecap="round" stroke-linejoin="round"/>
<path d="M13.7135 11.8004C13.7135 12.8254 12.8826 13.6563 11.8576 13.6563C10.8326 13.6563 10.0017 12.8254 10.0017 11.8004C10.0017 10.7754 10.8326 9.94451 11.8576 9.94451C12.8826 9.94451 13.7135 10.7754 13.7135 11.8004Z" stroke="#F8F9F4" stroke-linecap="round" stroke-linejoin="round"/>
</svg>
