<svg width="24" height="24" viewBox="0 0 24 24" fill="none" xmlns="http://www.w3.org/2000/svg">
<circle cx="12" cy="12" r="12" fill="#74B281"/>
<mask id="mask0_955_15063" style="mask-type:alpha" maskUnits="userSpaceOnUse" x="2" y="3" width="10" height="17">
<rect x="2" y="3" width="9.57654" height="16.9005" fill="#D9D9D9"/>
</mask>
<g mask="url(#mask0_955_15063)">
<path d="M17.3001 11.9194C17.3001 15.0046 14.7464 17.5224 11.5753 17.5224C8.40428 17.5224 5.85059 15.0046 5.85059 11.9194C5.85059 8.83421 8.40428 6.31641 11.5753 6.31641C14.7464 6.31641 17.3001 8.83421 17.3001 11.9194Z" stroke="#F8F9F4"/>
</g>
<mask id="mask1_955_15063" style="mask-type:alpha" maskUnits="userSpaceOnUse" x="11" y="3" width="11" height="17">
<rect x="11.5771" y="3" width="9.57654" height="16.9005" fill="#D9D9D9"/>
</mask>
<g mask="url(#mask1_955_15063)">
</g>
<mask id="mask2_955_15063" style="mask-type:alpha" maskUnits="userSpaceOnUse" x="9" y="3" width="10" height="17">
<rect x="9.18457" y="3" width="9.57654" height="16.9005" fill="#D9D9D9"/>
</mask>
<g mask="url(#mask2_955_15063)">
<path d="M16.9506 8.83326C17.2294 9.29869 17.4471 9.80356 17.5928 10.3373C17.3328 10.3965 17.1636 10.6509 17.2125 10.9155C17.2725 11.2409 17.304 11.5763 17.304 11.9194C17.304 12.2624 17.2725 12.5979 17.2125 12.9232C17.1636 13.1879 17.3328 13.4423 17.5928 13.5015C17.4471 14.0352 17.2294 14.5401 16.9506 15.0055C16.7276 14.8589 16.4267 14.9134 16.2699 15.1323C15.8781 15.6791 15.3887 16.1547 14.8262 16.5346C14.6029 16.6854 14.5402 16.985 14.6808 17.212C14.2103 17.4776 13.701 17.6847 13.1634 17.823C13.1074 17.5618 12.8544 17.3894 12.5889 17.4356C12.2615 17.4926 11.9241 17.5224 11.5792 17.5224C11.2344 17.5224 10.897 17.4926 10.5696 17.4356C10.3041 17.3894 10.0511 17.5618 9.99508 17.823C9.45743 17.6847 8.94818 17.4776 8.47768 17.212C8.61833 16.985 8.55557 16.6854 8.33228 16.5346C7.76978 16.1547 7.2804 15.6791 6.88861 15.1323C6.73177 14.9134 6.43085 14.8589 6.20784 15.0055C5.92905 14.5401 5.7114 14.0352 5.56569 13.5015C5.82569 13.4423 5.99491 13.1879 5.94603 12.9232C5.88593 12.5979 5.85449 12.2624 5.85449 11.9194C5.85449 11.5763 5.88593 11.2409 5.94603 10.9155C5.99491 10.6509 5.82569 10.3965 5.56569 10.3373C5.7114 9.80356 5.92905 9.29869 6.20784 8.83326C6.43085 8.97983 6.73177 8.92534 6.88861 8.70645C7.2804 8.15965 7.76978 7.68402 8.33228 7.30415C8.55557 7.15335 8.61833 6.85379 8.47768 6.62676C8.94818 6.36115 9.45743 6.15411 9.99508 6.0158C10.0511 6.27701 10.3041 6.44939 10.5696 6.40318C10.897 6.3462 11.2344 6.31641 11.5792 6.31641C11.9241 6.31641 12.2615 6.3462 12.5889 6.40318C12.8544 6.44939 13.1074 6.27701 13.1634 6.0158C13.701 6.15411 14.2103 6.36115 14.6808 6.62676C14.5401 6.85379 14.6029 7.15335 14.8262 7.30415C15.3887 7.68402 15.8781 8.15965 16.2699 8.70645C16.4267 8.92534 16.7276 8.97983 16.9506 8.83326Z" stroke="#F8F9F4" stroke-linecap="round" stroke-linejoin="round" stroke-dasharray="2.5 3"/>
</g>
<path d="M11.5771 6.47955V17.4152" stroke="#F8F9F4" stroke-width="0.9" stroke-linecap="round" stroke-linejoin="round"/>
</svg>
