<svg width="24" height="24" viewBox="0 0 24 24" fill="none" xmlns="http://www.w3.org/2000/svg">
<circle cx="12.001" cy="12" r="12" fill="#74B281"/>
<path d="M10.206 6.46575C10.2678 6.09467 10.5889 5.82269 10.9651 5.82269H12.7396C13.1158 5.82269 13.4368 6.09467 13.4987 6.46575L13.6447 7.34208C13.6874 7.59795 13.8584 7.81109 14.0853 7.93671C14.1361 7.9648 14.1862 7.99382 14.2358 8.02374C14.4581 8.158 14.7285 8.19974 14.9718 8.10862L15.8042 7.79677C16.1565 7.66479 16.5526 7.80684 16.7407 8.13264L17.6279 9.66936C17.816 9.99516 17.741 10.4092 17.4505 10.6483L16.7635 11.2139C16.5634 11.3786 16.4642 11.633 16.469 11.8921C16.4695 11.9211 16.4698 11.9502 16.4698 11.9793C16.4698 12.0084 16.4695 12.0375 16.469 12.0665C16.4642 12.3256 16.5634 12.58 16.7635 12.7447L17.4505 13.3103C17.741 13.5494 17.816 13.9635 17.6279 14.2893L16.7407 15.826C16.5526 16.1518 16.1565 16.2938 15.8042 16.1619L14.9718 15.85C14.7285 15.7589 14.4581 15.8006 14.2358 15.9349C14.1862 15.9648 14.1361 15.9938 14.0853 16.0219C13.8584 16.1476 13.6874 16.3607 13.6447 16.6166L13.4987 17.4929C13.4368 17.864 13.1158 18.1359 12.7396 18.1359H10.9651C10.5889 18.1359 10.2678 17.864 10.206 17.4929L10.0599 16.6166C10.0173 16.3607 9.8463 16.1476 9.61934 16.0219C9.5686 15.9938 9.51845 15.9648 9.4689 15.9349C9.24655 15.8006 8.97612 15.7589 8.73289 15.85L7.90047 16.1619C7.54818 16.2939 7.15211 16.1518 6.96401 15.826L6.07678 14.2893C5.88868 13.9635 5.96369 13.5494 6.25413 13.3103L6.94118 12.7447C7.14127 12.58 7.24046 12.3257 7.23566 12.0665C7.23513 12.0375 7.23486 12.0085 7.23486 11.9793C7.23486 11.9502 7.23513 11.9211 7.23566 11.8921C7.24046 11.633 7.14127 11.3786 6.94118 11.2139L6.25413 10.6483C5.96369 10.4092 5.88868 9.99517 6.07678 9.66937L6.96401 8.13265C7.15211 7.80685 7.54818 7.6648 7.90047 7.79678L8.73288 8.10863C8.97611 8.19975 9.24654 8.158 9.46889 8.02374C9.51844 7.99382 9.5686 7.9648 9.61934 7.93671C9.8463 7.81109 10.0173 7.59795 10.0599 7.34208L10.206 6.46575Z" stroke="#F8F9F4" stroke-linecap="round" stroke-linejoin="round"/>
<path d="M13.9044 11.9793C13.9044 13.1127 12.9856 14.0315 11.8522 14.0315C10.7188 14.0315 9.79996 13.1127 9.79996 11.9793C9.79996 10.8459 10.7188 9.92706 11.8522 9.92706C12.9856 9.92706 13.9044 10.8459 13.9044 11.9793Z" stroke="#F8F9F4" stroke-linecap="round" stroke-linejoin="round"/>
</svg>
