<svg width="15" height="12" viewBox="0 0 15 12" fill="none" xmlns="http://www.w3.org/2000/svg">
<path d="M0.902194 6.21267C0.855562 6.07276 0.855517 5.92128 0.902068 5.78134C1.83926 2.96396 4.4969 0.932297 7.62907 0.932297C10.7598 0.932297 13.4164 2.96207 14.3548 5.77741C14.4014 5.91732 14.4014 6.0688 14.3549 6.20874C13.4177 9.02612 10.7601 11.0578 7.62788 11.0578C4.49718 11.0578 1.84055 9.02801 0.902194 6.21267Z" stroke="#808080" stroke-linecap="round" stroke-linejoin="round"/>
<path d="M9.65362 5.99504C9.65362 7.11347 8.74695 8.02014 7.62852 8.02014C6.51009 8.02014 5.60342 7.11347 5.60342 5.99504C5.60342 4.87661 6.51009 3.96994 7.62852 3.96994C8.74695 3.96994 9.65362 4.87661 9.65362 5.99504Z" stroke="#808080" stroke-linecap="round" stroke-linejoin="round"/>
</svg>
