<svg width="15" height="14" viewBox="0 0 15 14" fill="none" xmlns="http://www.w3.org/2000/svg">
<g opacity="0.35">
<path d="M14.3907 6.91991L14.8706 7.06031C14.8975 6.96858 14.8974 6.87109 14.8706 6.77937L14.3907 6.91991ZM0.867188 6.92193L0.387304 6.78153C0.360468 6.87326 0.360482 6.97075 0.387345 7.06247L0.867188 6.92193ZM2.62576 4.6607C2.80238 4.44843 2.77347 4.13317 2.5612 3.95655C2.34892 3.77993 2.03366 3.80883 1.85705 4.02111L2.62576 4.6607ZM9.69028 12.2541C9.95568 12.1778 10.109 11.9009 10.0327 11.6355C9.95636 11.3701 9.67937 11.2168 9.41397 11.2931L9.69028 12.2541ZM1.93955 0.423233C1.74591 0.226362 1.42934 0.223743 1.23247 0.417383C1.0356 0.611023 1.03298 0.927595 1.22662 1.12447L1.93955 0.423233ZM13.319 13.4186C13.5126 13.6155 13.8292 13.6181 14.0261 13.4245C14.2229 13.2308 14.2256 12.9142 14.0319 12.7174L13.319 13.4186ZM9.05437 8.3698L8.69791 8.72041L9.05437 8.3698ZM7.62927 5.3719C8.45844 5.3719 9.14467 6.05758 9.14467 6.92092H10.1447C10.1447 5.52096 9.02626 4.3719 7.62927 4.3719V5.3719ZM7.62926 2.29836C10.5916 2.29836 13.1027 4.30117 13.9109 7.06045L14.8706 6.77937C13.9438 3.61496 11.0571 1.29836 7.62926 1.29836V2.29836ZM7.62867 11.5435C4.66637 11.5435 2.15519 9.54067 1.34703 6.78139L0.387345 7.06247C1.31417 10.2269 4.20083 12.5435 7.62867 12.5435V11.5435ZM1.34707 7.06233C1.60841 6.16908 2.04874 5.35421 2.62576 4.6607L1.85705 4.02111C1.19378 4.81827 0.687672 5.75488 0.387304 6.78153L1.34707 7.06233ZM9.41397 11.2931C8.84694 11.4561 8.24823 11.5435 7.62867 11.5435V12.5435C8.34273 12.5435 9.03441 12.4427 9.69028 12.2541L9.41397 11.2931ZM4.02981 3.39366C5.06312 2.70099 6.29949 2.29836 7.62926 2.29836V1.29836C6.09412 1.29836 4.66503 1.76395 3.47299 2.56303L4.02981 3.39366ZM1.22662 1.12447L3.39494 3.32896L4.10787 2.62773L1.93955 0.423233L1.22662 1.12447ZM11.1504 11.2139L13.319 13.4186L14.0319 12.7174L11.8634 10.5126L11.1504 11.2139ZM13.9109 6.77951C13.4658 8.30085 12.5015 9.59445 11.2285 10.4479L11.7853 11.2785C13.2513 10.2957 14.3592 8.80831 14.8706 7.06031L13.9109 6.77951ZM8.69791 8.72041L11.1504 11.2139L11.8634 10.5126L9.41084 8.01918L8.69791 8.72041ZM9.14467 6.92092C9.14467 7.3515 8.97353 7.73896 8.69791 8.01918L9.41084 8.72041C9.86465 8.25903 10.1447 7.62198 10.1447 6.92092H9.14467ZM3.39493 3.32896L5.84771 5.82266L6.56064 5.12142L4.10787 2.62773L3.39493 3.32896ZM5.84771 5.82266L8.69791 8.72041L9.41084 8.01918L6.56064 5.12142L5.84771 5.82266ZM6.56064 5.82266C6.83612 5.54258 7.21341 5.3719 7.62927 5.3719V4.3719C6.93206 4.3719 6.30166 4.6599 5.84771 5.12142L6.56064 5.82266Z" fill="#808080"/>
</g>
</svg>
