<svg width="22" height="20" viewBox="0 0 22 20" fill="none" xmlns="http://www.w3.org/2000/svg">
<mask id="mask0_742_17230" style="mask-type:alpha" maskUnits="userSpaceOnUse" x="0" y="0" width="12" height="20">
<rect x="0.912109" y="0.96962" width="10.4495" height="18.4412" fill="#D9D9D9"/>
</mask>
<g mask="url(#mask0_742_17230)">
<path d="M17.6528 10.7021C17.6528 14.0946 14.845 16.8615 11.3606 16.8615C7.87611 16.8615 5.06836 14.0946 5.06836 10.7021C5.06836 7.30969 7.87611 4.5428 11.3606 4.5428C14.845 4.5428 17.6528 7.30969 17.6528 10.7021Z" stroke="#697523"/>
</g>
<mask id="mask1_742_17230" style="mask-type:alpha" maskUnits="userSpaceOnUse" x="11" y="0" width="11" height="20">
<rect x="11.3623" y="0.96962" width="10.4495" height="18.4412" fill="#D9D9D9"/>
</mask>
<g mask="url(#mask1_742_17230)">
</g>
<mask id="mask2_742_17230" style="mask-type:alpha" maskUnits="userSpaceOnUse" x="8" y="0" width="12" height="20">
<rect x="8.75195" y="0.96962" width="10.4495" height="18.4412" fill="#D9D9D9"/>
</mask>
<g mask="url(#mask2_742_17230)">
<path d="M17.2019 7.29562C17.5252 7.82698 17.7752 8.4062 17.9381 9.01985C17.6771 9.07831 17.507 9.33328 17.556 9.59851C17.6221 9.95622 17.6567 10.325 17.6567 10.7021C17.6567 11.0792 17.6221 11.448 17.556 11.8057C17.507 12.071 17.6771 12.3259 17.9381 12.3844C17.7752 12.9981 17.5252 13.5773 17.2019 14.1086C16.9788 13.9609 16.6769 14.0151 16.5197 14.2345C16.0891 14.8356 15.5512 15.3584 14.9329 15.7759C14.7092 15.927 14.6466 16.2275 14.7884 16.4547C14.2512 16.7627 13.667 17.0005 13.0488 17.1551C12.9935 16.893 12.74 16.7198 12.4739 16.7661C12.1141 16.8287 11.7434 16.8615 11.3645 16.8615C10.9855 16.8615 10.6148 16.8287 10.255 16.7661C9.98894 16.7198 9.73544 16.893 9.68011 17.1551C9.06196 17.0005 8.47774 16.7627 7.94052 16.4547C8.08231 16.2275 8.01975 15.927 7.796 15.7759C7.17777 15.3584 6.63986 14.8356 6.20919 14.2345C6.05201 14.0151 5.75013 13.9609 5.52698 14.1086C5.20371 13.5773 4.95377 12.9981 4.79086 12.3844C5.05182 12.3259 5.22189 12.071 5.1729 11.8057C5.10683 11.448 5.07227 11.0792 5.07227 10.7021C5.07227 10.325 5.10683 9.95622 5.1729 9.59851C5.22189 9.33328 5.05182 9.07831 4.79086 9.01985C4.95377 8.4062 5.20371 7.82698 5.52698 7.29562C5.75013 7.44337 6.05201 7.38912 6.20919 7.16975C6.63986 6.56868 7.17777 6.0459 7.79599 5.62839C8.01975 5.47728 8.08231 5.17679 7.94052 4.94958C8.47773 4.64155 9.06197 4.40379 9.68011 4.24916C9.73544 4.51127 9.98894 4.68447 10.255 4.63816C10.6148 4.57554 10.9855 4.5428 11.3645 4.5428C11.7434 4.5428 12.1141 4.57554 12.4739 4.63816C12.74 4.68447 12.9935 4.51127 13.0488 4.24916C13.667 4.40379 14.2512 4.64155 14.7884 4.94958C14.6466 5.17679 14.7092 5.47728 14.9329 5.62839C15.5512 6.0459 16.0891 6.56868 16.5197 7.16975C16.6769 7.38912 16.9788 7.44337 17.2019 7.29562Z" stroke="#697523" stroke-linecap="round" stroke-linejoin="round" stroke-dasharray="2.5 3"/>
</g>
<path d="M11.3623 4.76634V16.6989" stroke="#697523" stroke-width="0.9" stroke-linecap="round" stroke-linejoin="round"/>
</svg>
