<svg width="22" height="19" viewBox="0 0 22 19" fill="none" xmlns="http://www.w3.org/2000/svg">
<g opacity="0.35">
<mask id="mask0_742_17236" style="mask-type:alpha" maskUnits="userSpaceOnUse" x="0" y="0" width="12" height="19">
<rect x="0.912109" y="0.0856781" width="10.4495" height="18.4412" fill="#D9D9D9"/>
</mask>
<g mask="url(#mask0_742_17236)">
<path d="M17.6528 9.81818C17.6528 13.2106 14.845 15.9775 11.3606 15.9775C7.87611 15.9775 5.06836 13.2106 5.06836 9.81818C5.06836 6.42575 7.87611 3.65886 11.3606 3.65886C14.845 3.65886 17.6528 6.42575 17.6528 9.81818Z" stroke="#808080"/>
</g>
<mask id="mask1_742_17236" style="mask-type:alpha" maskUnits="userSpaceOnUse" x="11" y="0" width="11" height="19">
<rect x="11.3623" y="0.0856781" width="10.4495" height="18.4412" fill="#D9D9D9"/>
</mask>
<g mask="url(#mask1_742_17236)">
</g>
<mask id="mask2_742_17236" style="mask-type:alpha" maskUnits="userSpaceOnUse" x="8" y="0" width="12" height="19">
<rect x="8.75195" y="0.0856781" width="10.4495" height="18.4412" fill="#D9D9D9"/>
</mask>
<g mask="url(#mask2_742_17236)">
<path d="M17.2019 6.41168C17.5252 6.94304 17.7752 7.52226 17.9381 8.13591C17.6771 8.19437 17.507 8.44934 17.556 8.71456C17.6221 9.07228 17.6567 9.44106 17.6567 9.81818C17.6567 10.1953 17.6221 10.5641 17.556 10.9218C17.507 11.187 17.6771 11.442 17.9381 11.5005C17.7752 12.1141 17.5252 12.6933 17.2019 13.2247C16.9788 13.0769 16.6769 13.1312 16.5197 13.3506C16.0891 13.9516 15.5512 14.4744 14.9329 14.8919C14.7092 15.043 14.6466 15.3435 14.7884 15.5707C14.2512 15.8788 13.667 16.1165 13.0488 16.2711C12.9935 16.009 12.74 15.8358 12.4739 15.8821C12.1141 15.9448 11.7434 15.9775 11.3645 15.9775C10.9855 15.9775 10.6148 15.9448 10.255 15.8821C9.98894 15.8358 9.73544 16.009 9.68011 16.2711C9.06196 16.1165 8.47773 15.8788 7.94052 15.5707C8.08231 15.3435 8.01975 15.043 7.796 14.8919C7.17777 14.4744 6.63986 13.9516 6.20918 13.3506C6.05201 13.1312 5.75013 13.0769 5.52698 13.2247C5.20371 12.6933 4.95377 12.1141 4.79086 11.5005C5.05182 11.442 5.22189 11.187 5.1729 10.9218C5.10683 10.5641 5.07227 10.1953 5.07227 9.81818C5.07227 9.44106 5.10683 9.07228 5.1729 8.71456C5.22189 8.44934 5.05182 8.19437 4.79086 8.13591C4.95377 7.52226 5.20371 6.94304 5.52698 6.41168C5.75013 6.55943 6.05201 6.50517 6.20919 6.28581C6.63986 5.68474 7.17777 5.16196 7.79599 4.74445C8.01975 4.59334 8.08231 4.29285 7.94052 4.06564C8.47773 3.75761 9.06197 3.51985 9.68011 3.36522C9.73544 3.62733 9.98894 3.80053 10.255 3.75422C10.6148 3.6916 10.9855 3.65886 11.3645 3.65886C11.7434 3.65886 12.1141 3.6916 12.4739 3.75422C12.74 3.80053 12.9935 3.62733 13.0488 3.36522C13.667 3.51985 14.2512 3.75761 14.7884 4.06564C14.6466 4.29285 14.7092 4.59334 14.9329 4.74445C15.5512 5.16196 16.0891 5.68474 16.5197 6.28581C16.6769 6.50517 16.9788 6.55943 17.2019 6.41168Z" stroke="#808080" stroke-linecap="round" stroke-linejoin="round" stroke-dasharray="2.5 3"/>
</g>
<path d="M11.3623 3.8824V15.8149" stroke="#808080" stroke-width="0.9" stroke-linecap="round" stroke-linejoin="round"/>
</g>
</svg>
