<svg width="22" height="22" viewBox="0 0 22 22" fill="none" xmlns="http://www.w3.org/2000/svg">
<g opacity="0.35">
<path d="M9.54397 5.29021C9.61145 4.8853 9.96178 4.58853 10.3723 4.58853H12.3085C12.719 4.58853 13.0693 4.8853 13.1368 5.29021L13.2962 6.24643C13.3427 6.52562 13.5293 6.75819 13.7769 6.89527C13.8323 6.92592 13.887 6.95758 13.9411 6.99022C14.1837 7.13672 14.4788 7.18227 14.7442 7.08284L15.6525 6.74256C16.0369 6.59855 16.4691 6.75356 16.6743 7.10906L17.6424 8.78586C17.8477 9.14136 17.7658 9.59314 17.4489 9.85404L16.6992 10.4712C16.4809 10.6509 16.3727 10.9285 16.3779 11.2113C16.3785 11.2429 16.3788 11.2746 16.3788 11.3064C16.3788 11.3382 16.3785 11.3699 16.3779 11.4015C16.3727 11.6843 16.4809 11.9618 16.6992 12.1416L17.4489 12.7587C17.7658 13.0196 17.8477 13.4714 17.6424 13.8269L16.6743 15.5037C16.4691 15.8592 16.0369 16.0142 15.6525 15.8702L14.7442 15.5299C14.4788 15.4305 14.1837 15.4761 13.9411 15.6226C13.887 15.6552 13.8323 15.6869 13.7769 15.7175C13.5293 15.8546 13.3427 16.0872 13.2962 16.3664L13.1368 17.3226C13.0693 17.7275 12.719 18.0243 12.3085 18.0243H10.3723C9.96178 18.0243 9.61145 17.7275 9.54397 17.3226L9.3846 16.3664C9.33807 16.0872 9.15148 15.8546 8.90384 15.7175C8.84847 15.6869 8.79374 15.6552 8.73968 15.6226C8.49706 15.4761 8.20197 15.4305 7.93657 15.53L7.02827 15.8702C6.64386 16.0142 6.21168 15.8592 6.00644 15.5037L5.03833 13.8269C4.83308 13.4714 4.91493 13.0197 5.23185 12.7588L5.98153 12.1416C6.19987 11.9619 6.3081 11.6843 6.30286 11.4015C6.30227 11.3699 6.30198 11.3382 6.30198 11.3064C6.30198 11.2746 6.30227 11.2429 6.30286 11.2113C6.3081 10.9285 6.19987 10.651 5.98153 10.4712L5.23185 9.85405C4.91493 9.59315 4.83308 9.14137 5.03833 8.78588L6.00644 7.10907C6.21168 6.75357 6.64386 6.59856 7.02827 6.74257L7.93656 7.08285C8.20196 7.18228 8.49705 7.13673 8.73967 6.99023C8.79374 6.95758 8.84847 6.92592 8.90384 6.89527C9.15148 6.75819 9.33806 6.52562 9.3846 6.24643L9.54397 5.29021Z" stroke="#808080" stroke-linecap="round" stroke-linejoin="round"/>
<path d="M13.5795 11.3063C13.5795 12.5431 12.5769 13.5456 11.3402 13.5456C10.1035 13.5456 9.10092 12.5431 9.10092 11.3063C9.10092 10.0696 10.1035 9.06705 11.3402 9.06705C12.5769 9.06705 13.5795 10.0696 13.5795 11.3063Z" stroke="#808080" stroke-linecap="round" stroke-linejoin="round"/>
</g>
</svg>
