<svg width="20" height="20" viewBox="0 0 20 20" fill="none" xmlns="http://www.w3.org/2000/svg">
<path d="M8.20599 4.06341C8.26784 3.69233 8.5889 3.42035 8.9651 3.42035H10.7396C11.1158 3.42035 11.4368 3.69233 11.4987 4.06341L11.6447 4.93974C11.6874 5.19561 11.8584 5.40874 12.0853 5.53437C12.1361 5.56246 12.1862 5.59147 12.2358 5.62139C12.4581 5.75565 12.7285 5.7974 12.9718 5.70628L13.8042 5.39442C14.1565 5.26244 14.5526 5.4045 14.7407 5.7303L15.6279 7.26702C15.816 7.59282 15.741 8.00685 15.4505 8.24596L14.7635 8.81155C14.5634 8.97628 14.4642 9.23064 14.469 9.48978C14.4695 9.51878 14.4698 9.54785 14.4698 9.57698C14.4698 9.6061 14.4695 9.63517 14.469 9.66417C14.4642 9.9233 14.5634 10.1777 14.7635 10.3424L15.4505 10.908C15.741 11.1471 15.816 11.5611 15.6279 11.8869L14.7407 13.4236C14.5526 13.7494 14.1565 13.8915 13.8042 13.7595L12.9718 13.4477C12.7285 13.3565 12.4581 13.3983 12.2358 13.5326C12.1862 13.5625 12.1361 13.5915 12.0853 13.6196C11.8584 13.7452 11.6874 13.9583 11.6447 14.2142L11.4987 15.0905C11.4368 15.4616 11.1158 15.7336 10.7396 15.7336H8.9651C8.5889 15.7336 8.26784 15.4616 8.20599 15.0905L8.05994 14.2142C8.0173 13.9583 7.8463 13.7452 7.61934 13.6196C7.5686 13.5915 7.51845 13.5625 7.4689 13.5326C7.24655 13.3983 6.97612 13.3566 6.73289 13.4477L5.90047 13.7595C5.54818 13.8915 5.15211 13.7495 4.96401 13.4237L4.07678 11.8869C3.88868 11.5611 3.96369 11.1471 4.25413 10.908L4.94118 10.3424C5.14127 10.1777 5.24046 9.92331 5.23566 9.66417C5.23513 9.63517 5.23486 9.60611 5.23486 9.57698C5.23486 9.54785 5.23513 9.51879 5.23566 9.48979C5.24046 9.23065 5.14127 8.97629 4.94118 8.81156L4.25413 8.24596C3.96369 8.00686 3.88868 7.59283 4.07678 7.26703L4.96401 5.73031C5.15211 5.40451 5.54818 5.26245 5.90047 5.39443L6.73288 5.70628C6.97611 5.7974 7.24654 5.75566 7.46889 5.6214C7.51844 5.59148 7.5686 5.56246 7.61934 5.53437C7.8463 5.40874 8.01729 5.19561 8.05994 4.93974L8.20599 4.06341Z" stroke="#697523" stroke-linecap="round" stroke-linejoin="round"/>
<path d="M11.9044 9.57692C11.9044 10.7103 10.9856 11.6291 9.85217 11.6291C8.71877 11.6291 7.79996 10.7103 7.79996 9.57692C7.79996 8.44352 8.71877 7.52471 9.85217 7.52471C10.9856 7.52471 11.9044 8.44352 11.9044 9.57692Z" stroke="#697523" stroke-linecap="round" stroke-linejoin="round"/>
</svg>
