<svg width="24" height="22" viewBox="0 0 24 22" fill="none" xmlns="http://www.w3.org/2000/svg">
<path d="M23.1761 0.990291L19.4776 0.992263C19.4776 0.992263 16.9038 0.686634 15.9581 5.48599C15.0142 10.2834 14.0686 20.5762 7.29297 20.6333C5.31205 20.6511 3.1377 20.659 1.05469 20.659" stroke="#697523" stroke-width="1.33333" stroke-miterlimit="10" stroke-linecap="round" stroke-linejoin="round"/>
<path d="M4.40723 15.3229C4.40723 15.3229 5.70575 15.6009 6.57442 17.3696C7.44308 19.1383 9.18042 19.2783 9.18042 19.2783" stroke="#D7DBC0" stroke-width="1.33333" stroke-miterlimit="10" stroke-linecap="round" stroke-linejoin="round"/>
<path d="M1.05469 14.3025C1.11737 14.265 1.18185 14.2236 1.24633 14.1842C4.18726 12.309 5.92101 13.3481 7.81238 14.5056C9.70195 15.661 9.9133 16.2112 11.7509 15.5309" stroke="#D7DBC0" stroke-width="1.33333" stroke-miterlimit="10" stroke-linecap="round" stroke-linejoin="round"/>
<path d="M14.0285 7.05864C14.0285 7.05864 10.853 5.09275 8.19322 6.62287C8.19322 6.62287 10.8942 6.75301 10.8942 10.2924C10.8942 10.2924 10.5753 11.3414 8.39203 9.94141C6.21052 8.54537 4.38363 8.63213 3.43257 9.63578C2.91854 10.178 2.08569 10.7045 1.04688 10.8051" stroke="#D7DBC0" stroke-width="1.33333" stroke-miterlimit="10" stroke-linecap="round" stroke-linejoin="round"/>
</svg>
