<svg width="22" height="26" viewBox="0 0 22 26" fill="none" xmlns="http://www.w3.org/2000/svg">
<path d="M10.6758 19.119V24.9237" stroke="#D7DBC0" stroke-width="1.33333" stroke-miterlimit="10" stroke-linecap="round" stroke-linejoin="round"/>
<path d="M14.9844 17.4526V24.9237" stroke="#D7DBC0" stroke-width="1.33333" stroke-miterlimit="10" stroke-linecap="round" stroke-linejoin="round"/>
<path d="M11.7243 9.6724V12.9707C11.7243 14.4353 10.5465 15.6231 9.09223 15.6231H7.17676" stroke="#D7DBC0" stroke-width="1.33333" stroke-miterlimit="10" stroke-linecap="round" stroke-linejoin="round"/>
<path d="M2.69824 8.8856V10.2791C2.69824 11.6841 3.82847 12.822 5.22171 12.822H7.02473" stroke="#D7DBC0" stroke-width="1.33333" stroke-miterlimit="10" stroke-linecap="round" stroke-linejoin="round"/>
<path d="M7.02051 4.1374V24.9245" stroke="#697523" stroke-width="1.33333" stroke-miterlimit="10" stroke-linecap="round" stroke-linejoin="round"/>
<path d="M19.3325 24.9237H1.04688" stroke="#697523" stroke-width="1.33333" stroke-miterlimit="10" stroke-linecap="round" stroke-linejoin="round"/>
<path d="M20.7171 3.28438C20.7171 4.6106 19.6516 5.68504 18.3365 5.68504C17.0195 5.68504 15.9541 4.6106 15.9541 3.28438C15.9541 1.95816 17.0195 0.881803 18.3365 0.881803C19.6516 0.881803 20.7171 1.95816 20.7171 3.28438Z" stroke="#697523" stroke-width="1.33333" stroke-miterlimit="10" stroke-linecap="round" stroke-linejoin="round"/>
</svg>
