<svg width="19" height="29" viewBox="0 0 19 29" fill="none" xmlns="http://www.w3.org/2000/svg">
<path d="M17.4052 22.9903H1.90238C1.16169 22.9903 0.772725 21.8399 1.26928 21.1239L4.57549 16.3375H3.31963C2.58307 16.3375 2.19204 15.1957 2.68445 14.4754L5.77342 9.93193H5.24997C4.50308 9.93193 4.11825 8.7622 4.62721 8.05262L9.65481 1.01706L14.6783 8.05262C15.1893 8.7622 14.8024 9.93193 14.0555 9.93193H13.5321L16.6252 14.4754C17.1134 15.1957 16.7224 16.3375 15.9859 16.3375H14.73L18.0362 21.1239C18.5328 21.8399 18.1438 22.9903 17.4052 22.9903Z" stroke="#697523" stroke-width="1.33333" stroke-miterlimit="10" stroke-linecap="round" stroke-linejoin="round"/>
<path d="M9.66992 8.89913V28.0642" stroke="#D7DBC0" stroke-width="1.33333" stroke-miterlimit="10" stroke-linecap="round" stroke-linejoin="round"/>
<path d="M12.7899 15.3033L9.66992 18.5071" stroke="#D7DBC0" stroke-width="1.33333" stroke-miterlimit="10" stroke-linecap="round" stroke-linejoin="round"/>
<path d="M6.51855 12.0022L9.66753 15.0878" stroke="#D7DBC0" stroke-width="1.33333" stroke-miterlimit="10" stroke-linecap="round" stroke-linejoin="round"/>
</svg>
