<svg width="21" height="21" viewBox="0 0 21 21" fill="none" xmlns="http://www.w3.org/2000/svg">
<path fill-rule="evenodd" clip-rule="evenodd" d="M2.0498 4.76062C2.0498 4.34548 2.38634 4.00894 2.80148 4.00894H17.3339C17.749 4.00894 18.0856 4.34548 18.0856 4.76062C18.0856 5.17576 17.749 5.51229 17.3339 5.51229H2.80148C2.38634 5.51229 2.0498 5.17576 2.0498 4.76062ZM2.0498 10.0223C2.0498 9.60721 2.38634 9.27067 2.80148 9.27067H17.3339C17.749 9.27067 18.0856 9.60721 18.0856 10.0223C18.0856 10.4375 17.749 10.774 17.3339 10.774H2.80148C2.38634 10.774 2.0498 10.4375 2.0498 10.0223ZM2.0498 15.2841C2.0498 14.8689 2.38634 14.5324 2.80148 14.5324H17.3339C17.749 14.5324 18.0856 14.8689 18.0856 15.2841C18.0856 15.6992 17.749 16.0358 17.3339 16.0358H2.80148C2.38634 16.0358 2.0498 15.6992 2.0498 15.2841Z" fill="#697523"/>
</svg>
