<svg width="29" height="30" viewBox="0 0 29 30" fill="none" xmlns="http://www.w3.org/2000/svg">
<path d="M7.34553 17.4393C7.44069 17.4193 7.46322 17.4743 7.48326 17.5294C7.68858 18.1028 7.95902 18.6437 8.29456 19.152C8.37469 19.2722 8.27703 19.3098 8.21192 19.3599C7.54085 19.8707 6.86977 20.379 6.19869 20.8898C5.38739 21.5083 4.57358 22.1218 3.76479 22.7453C3.62957 22.8505 3.55946 22.853 3.4593 22.7027C2.73313 21.6335 2.15971 20.4942 1.74404 19.2722C1.68895 19.112 1.71399 19.0519 1.88176 19.0043C3.67715 18.4935 5.47253 17.9776 7.27041 17.4618C7.30046 17.4518 7.33051 17.4443 7.34553 17.4393Z" stroke="#838C48" stroke-miterlimit="10" stroke-linecap="round" stroke-linejoin="round"/>
<path d="M7.03867 15.0713C7.03867 15.5195 7.09126 15.9627 7.1814 16.4009C7.20895 16.5386 7.19142 16.6037 7.04118 16.6463C5.24079 17.1571 3.43789 17.6754 1.64001 18.1963C1.49478 18.2388 1.44219 18.2138 1.40714 18.0611C1.11417 16.784 0.996476 15.4944 1.06659 14.1873C1.0741 14.0596 1.11166 14.0271 1.23686 14.0396C3.10987 14.2099 4.98288 14.3802 6.85588 14.5429C6.99861 14.5554 7.06372 14.5905 7.04118 14.7457C7.02615 14.8509 7.03867 14.9611 7.03867 15.0713Z" stroke="#838C48" stroke-miterlimit="10" stroke-linecap="round" stroke-linejoin="round"/>
<path d="M11.8202 28.32C11.2018 28.1848 10.6283 28.0145 10.0624 27.8092C9.39135 27.5663 8.74281 27.2683 8.1143 26.9253C7.9916 26.8577 7.95404 26.8076 8.03918 26.6699C9.03327 25.0723 10.0224 23.4722 11.0089 21.8722C11.0741 21.7645 11.1241 21.7345 11.2468 21.7996C11.7426 22.065 12.266 22.2628 12.8143 22.398C12.9696 22.4356 13.0021 22.4932 12.9721 22.6434C12.624 24.4839 12.2785 26.3268 11.9304 28.1673C11.9154 28.2374 11.9279 28.3551 11.8202 28.32Z" stroke="#838C48" stroke-miterlimit="10" stroke-linecap="round" stroke-linejoin="round"/>
<path d="M1.18335 13.0132C1.28351 12.2645 1.45879 11.5083 1.69417 10.7646C1.85443 10.2613 2.04724 9.76801 2.26258 9.28473C2.32017 9.15202 2.36775 9.11446 2.51298 9.18707C4.18817 10.0284 5.86586 10.8623 7.54606 11.6961C7.66876 11.7562 7.70381 11.8063 7.64372 11.9415C7.41836 12.4573 7.25559 12.9957 7.16545 13.5516C7.14542 13.6718 7.09784 13.7118 6.97514 13.6993C5.22233 13.5366 3.46952 13.3788 1.7167 13.221C1.57898 13.2085 1.43876 13.1985 1.29853 13.181C1.17584 13.166 1.17584 13.161 1.18335 13.0132Z" stroke="#838C48" stroke-miterlimit="10" stroke-linecap="round" stroke-linejoin="round"/>
<path d="M14.7826 28.6312C14.1641 28.6237 13.5456 28.5986 12.9321 28.5135C12.7994 28.4935 12.7493 28.4634 12.7768 28.3107C13.1324 26.4627 13.478 24.6147 13.8235 22.7643C13.8435 22.6566 13.8686 22.589 14.0038 22.604C14.5647 22.6666 15.1256 22.6591 15.684 22.589C15.8392 22.569 15.8918 22.6115 15.9219 22.7643C16.2624 24.5997 16.608 26.4352 16.9585 28.2706C16.9936 28.4559 16.8909 28.4709 16.7632 28.4885C16.1072 28.5836 15.4461 28.6312 14.7826 28.6312Z" stroke="#838C48" stroke-miterlimit="10" stroke-linecap="round" stroke-linejoin="round"/>
<path d="M23.6725 4.56893C23.6324 4.61651 23.5898 4.6716 23.5423 4.72168C22.7986 5.53548 22.0524 6.34679 21.3062 7.16059C20.8029 7.71148 20.2971 8.25986 19.7988 8.81575C19.6911 8.93845 19.6235 8.94596 19.4933 8.84079C19.0726 8.49523 18.6093 8.21228 18.1186 7.97941C17.9884 7.91931 17.9683 7.86422 18.0184 7.73401C18.697 5.98621 19.3681 4.2359 20.0366 2.48559C20.0892 2.34787 20.1418 2.31031 20.2845 2.37541C21.479 2.91378 22.5807 3.59487 23.5798 4.44123C23.6174 4.47378 23.67 4.49381 23.6725 4.56893Z" stroke="#838C48" stroke-miterlimit="10" stroke-linecap="round" stroke-linejoin="round"/>
<path d="M7.19722 26.355C7.16467 26.3349 7.12711 26.3149 7.08955 26.2899C6.01031 25.5587 5.05378 24.6923 4.21744 23.6932C4.1348 23.5956 4.12979 23.5355 4.23997 23.4503C5.74489 22.311 7.2498 21.1667 8.74971 20.0223C8.84987 19.9472 8.90997 19.9572 8.98759 20.0474C9.3657 20.4856 9.79138 20.8687 10.2646 21.1967C10.3974 21.2893 10.3323 21.362 10.2772 21.4496C9.65116 22.4637 9.02265 23.4779 8.39664 24.492C8.04107 25.0654 7.6855 25.6413 7.32993 26.2148C7.29738 26.2673 7.27735 26.3349 7.19722 26.355Z" stroke="#838C48" stroke-miterlimit="10" stroke-linecap="round" stroke-linejoin="round"/>
<path d="M8.06244 10.9974C8.02738 10.9799 7.98481 10.9649 7.94475 10.9449C6.26705 10.111 4.58936 9.27217 2.90666 8.44083C2.75892 8.36822 2.75141 8.30311 2.82904 8.16539C3.47257 7.04609 4.24881 6.03447 5.17029 5.13052C5.28047 5.02285 5.33556 5.04288 5.4257 5.14554C6.68272 6.52776 7.93974 7.90998 9.20177 9.2897C9.29692 9.39236 9.31945 9.45746 9.20928 9.57015C8.81364 9.96328 8.4781 10.4065 8.18513 10.8797C8.15759 10.9248 8.14006 10.9874 8.06244 10.9974Z" stroke="#838C48" stroke-miterlimit="10" stroke-linecap="round" stroke-linejoin="round"/>
<path d="M25.4814 23.4452C25.4589 23.4752 25.4388 23.5128 25.4088 23.5479C24.5875 24.5595 23.641 25.4359 22.5768 26.1871C22.4591 26.2697 22.4015 26.2597 22.3264 26.132C21.3398 24.5294 20.3507 22.9294 19.3591 21.3293C19.289 21.2191 19.294 21.159 19.4017 21.0814C19.8449 20.7634 20.233 20.3828 20.5886 19.9721C20.7062 19.8369 20.7789 19.8419 20.9116 19.9421C22.2237 20.9387 23.5383 21.9278 24.8529 22.9193C25.0307 23.0521 25.211 23.1873 25.3863 23.3225C25.4263 23.3525 25.4789 23.3726 25.4814 23.4452Z" stroke="#838C48" stroke-miterlimit="10" stroke-linecap="round" stroke-linejoin="round"/>
<path d="M14.3947 4.21163C14.3947 5.13061 14.3872 6.04958 14.3998 6.96856C14.4023 7.17639 14.3296 7.22397 14.1443 7.23398C13.626 7.25652 13.1177 7.35668 12.6219 7.50692C12.4742 7.55199 12.4141 7.52695 12.359 7.37921C11.8181 5.96695 11.2697 4.55969 10.7238 3.14993C10.5886 2.80688 10.4609 2.45882 10.3207 2.11827C10.2706 1.99808 10.2982 1.953 10.4159 1.91544C11.6428 1.50979 12.8973 1.28193 14.1869 1.21933C14.3597 1.21182 14.3998 1.26941 14.3972 1.43467C14.3897 2.35866 14.3947 3.28514 14.3947 4.21163Z" stroke="#838C48" stroke-miterlimit="10" stroke-linecap="round" stroke-linejoin="round"/>
<path d="M16.7197 22.4548C16.7072 22.4072 16.7573 22.3822 16.8274 22.3622C17.3883 22.2069 17.9266 21.9916 18.4349 21.7086C18.5351 21.6535 18.5752 21.6861 18.6278 21.7687C19.6244 23.3863 20.6235 25.0039 21.6251 26.6165C21.7027 26.7417 21.6426 26.7793 21.55 26.8318C20.4382 27.4654 19.2563 27.9361 18.0143 28.2491C17.8465 28.2892 17.8064 28.2366 17.7789 28.0889C17.4959 26.5664 17.208 25.0465 16.9225 23.5265C16.8574 23.181 16.7923 22.8354 16.7197 22.4548Z" stroke="#838C48" stroke-miterlimit="10" stroke-linecap="round" stroke-linejoin="round"/>
<path d="M21.5256 11.098C21.4505 11.1005 21.4305 11.0479 21.4054 11.0054C21.11 10.5096 20.7719 10.0488 20.3713 9.63568C20.2761 9.53802 20.3287 9.48544 20.3938 9.41533C21.2477 8.48634 22.1016 7.55484 22.9554 6.62335C23.3761 6.16261 23.8018 5.70437 24.22 5.23862C24.3001 5.14848 24.3502 5.13596 24.4428 5.22861C25.3618 6.14508 26.1305 7.17423 26.764 8.30354C26.8316 8.42374 26.8091 8.47382 26.6914 8.53391C24.9987 9.37276 23.311 10.2141 21.6208 11.0555C21.5857 11.073 21.5507 11.088 21.5256 11.098Z" stroke="#838C48" stroke-miterlimit="10" stroke-linecap="round" stroke-linejoin="round"/>
<path d="M22.5444 13.776C22.4267 13.8086 22.3892 13.7535 22.3717 13.6533C22.284 13.0924 22.1313 12.5441 21.9059 12.0207C21.8483 11.8855 21.9234 11.858 22.0136 11.8129C22.9275 11.3597 23.8415 10.9039 24.753 10.4507C25.5242 10.0651 26.2955 9.68447 27.0617 9.29134C27.1969 9.22123 27.2445 9.25128 27.2996 9.37648C27.8079 10.5408 28.1534 11.7528 28.3387 13.0073C28.3638 13.1826 28.3162 13.2377 28.1384 13.2552C26.5559 13.3979 24.9758 13.5507 23.3933 13.7009C23.1078 13.726 22.8224 13.751 22.5444 13.776Z" stroke="#838C48" stroke-miterlimit="10" stroke-linecap="round" stroke-linejoin="round"/>
<path d="M15.6894 1.24506C16.8538 1.32268 17.9881 1.55555 19.0974 1.91113C19.2902 1.97373 19.3027 2.03883 19.2326 2.21912C18.5615 3.94188 17.9005 5.66715 17.2444 7.39493C17.1793 7.56019 17.1167 7.57772 16.9565 7.52764C16.4632 7.37239 15.9549 7.27223 15.439 7.23717C15.2988 7.22716 15.2412 7.18709 15.2412 7.03184C15.2462 5.15633 15.2462 3.28082 15.2412 1.40531C15.2412 1.26509 15.2738 1.20249 15.424 1.22753C15.5116 1.24255 15.6018 1.23754 15.6894 1.24506Z" stroke="#838C48" stroke-miterlimit="10" stroke-linecap="round" stroke-linejoin="round"/>
<path d="M28.4539 15.0194C28.464 16.0361 28.3337 17.0402 28.1134 18.0318C28.0783 18.187 28.0283 18.2221 27.8705 18.177C26.0726 17.6537 24.2722 17.1378 22.4693 16.6245C22.3341 16.587 22.3016 16.5319 22.3316 16.3967C22.4418 15.8783 22.4894 15.35 22.4743 14.8216C22.4718 14.6864 22.5069 14.6363 22.6521 14.6213C24.4926 14.451 26.333 14.2732 28.171 14.1005C28.4489 14.0729 28.4489 14.0754 28.4539 14.3509C28.4564 14.5737 28.4539 14.7966 28.4539 15.0194Z" stroke="#838C48" stroke-miterlimit="10" stroke-linecap="round" stroke-linejoin="round"/>
<path d="M11.6035 7.78547C11.6211 7.87562 11.5685 7.89315 11.5234 7.91318C11.0001 8.15607 10.5118 8.45405 10.056 8.80711C9.95088 8.88975 9.90831 8.80461 9.85573 8.74702C9.34741 8.19113 8.8416 7.63523 8.33579 7.07934C7.57456 6.2455 6.81835 5.40916 6.05212 4.58033C5.95697 4.47516 5.94946 4.42258 6.06464 4.32742C7.05874 3.51612 8.14298 2.85506 9.31736 2.33673C9.44757 2.27914 9.49264 2.3217 9.53772 2.43689C10.2138 4.19221 10.8924 5.94502 11.571 7.69783C11.586 7.73289 11.5985 7.76795 11.6035 7.78547Z" stroke="#838C48" stroke-miterlimit="10" stroke-linecap="round" stroke-linejoin="round"/>
<path d="M25.9756 22.6936C25.9405 22.6711 25.898 22.6436 25.8579 22.6135C24.3705 21.4917 22.8856 20.3674 21.3932 19.2506C21.2605 19.1505 21.2505 19.0753 21.3382 18.9426C21.6161 18.5119 21.8365 18.0512 22.0042 17.5679C22.0543 17.4277 22.1169 17.4026 22.2571 17.4427C24.045 17.961 25.8354 18.4769 27.6257 18.9877C27.776 19.0303 27.8211 19.0853 27.7685 19.2406C27.3728 20.43 26.822 21.5393 26.1233 22.576C26.0507 22.6861 26.0332 22.6986 25.9756 22.6936Z" stroke="#838C48" stroke-miterlimit="10" stroke-linecap="round" stroke-linejoin="round"/>
</svg>
