<svg width="27" height="24" viewBox="0 0 27 24" fill="none" xmlns="http://www.w3.org/2000/svg">
<path d="M2.34082 9.31961L7.08593 15.1798L9.24279 13.3767L13.1252 15.1798L11.831 18.3353L8.38005 20.5892L10.5369 22.8432L19.1644 20.5892V14.729L15.282 12.0243L22.6154 9.31961L25.635 14.2782L24.3409 20.1385V22.8432" stroke="#D7DBC0"/>
<path d="M2.77246 17.8845L7.51757 15.1798V9.77039" stroke="#D7DBC0"/>
<path d="M25.2036 14.2782H19.1644L12.6938 15.1798L11.8311 18.3353L19.5958 20.5892L25.2036 16.5322" stroke="#D7DBC0"/>
<path d="M7.0861 14.729L8.38022 20.5892L2.77237 17.8845L1.04688 22.3924" stroke="#D7DBC0"/>
<path d="M7.08594 15.1798L9.2428 13.3767L12.6938 9.77039L15.282 12.0243" stroke="#D7DBC0"/>
<path d="M25.6354 22.8432H1.47852" stroke="#697523" stroke-width="1.33333" stroke-miterlimit="10" stroke-linecap="round" stroke-linejoin="round"/>
<path d="M25.6354 9.31961H1.47852" stroke="#697523" stroke-width="1.33333" stroke-miterlimit="10" stroke-linecap="round" stroke-linejoin="round"/>
<path d="M7.51793 7.06622C7.51793 7.81301 6.93896 8.41803 6.22432 8.41803C5.50865 8.41803 4.92969 7.81301 4.92969 7.06622C4.92969 6.31942 5.50865 5.71332 6.22432 5.71332C6.93896 5.71332 7.51793 6.31942 7.51793 7.06622Z" stroke="#C6CCA5" stroke-width="0.7" stroke-miterlimit="10" stroke-linecap="round" stroke-linejoin="round"/>
<path d="M4.9295 3.00933C4.9295 4.00507 4.15755 4.81175 3.2047 4.81175C2.25046 4.81175 1.47852 4.00507 1.47852 3.00933C1.47852 2.0136 2.25046 1.20547 3.2047 1.20547C4.15755 1.20547 4.9295 2.0136 4.9295 3.00933Z" stroke="#838C48" stroke-width="0.7" stroke-miterlimit="10" stroke-linecap="round" stroke-linejoin="round"/>
<path d="M18.7332 4.81248C18.7332 5.80821 17.9613 6.6149 17.0084 6.6149C16.0542 6.6149 15.2822 5.80821 15.2822 4.81248C15.2822 3.81675 16.0542 3.00862 17.0084 3.00862C17.9613 3.00862 18.7332 3.81675 18.7332 4.81248Z" stroke="#C6CCA5" stroke-width="0.7" stroke-miterlimit="10" stroke-linecap="round" stroke-linejoin="round"/>
<path d="M13.5565 4.81211C13.5565 5.30997 13.1706 5.71332 12.6941 5.71332C12.217 5.71332 11.8311 5.30997 11.8311 4.81211C11.8311 4.31424 12.217 3.91018 12.6941 3.91018C13.1706 3.91018 13.5565 4.31424 13.5565 4.81211Z" stroke="#838C48" stroke-width="0.5" stroke-miterlimit="10" stroke-linecap="round" stroke-linejoin="round"/>
</svg>
