<svg width="21" height="21" viewBox="0 0 21 21" fill="none" xmlns="http://www.w3.org/2000/svg">
<circle cx="10.4972" cy="10.4972" r="9.84718" stroke="#11074C" stroke-width="1.3"/>
<path d="M8.13086 9.89227C8.13296 9.70436 8.20217 9.52338 8.32599 9.38202C8.44982 9.24065 8.6201 9.14821 8.8061 9.12138C9.36338 8.91693 9.9513 8.80848 10.5448 8.80064C10.8618 8.79337 11.172 8.89251 11.426 9.08222C11.6799 9.27194 11.863 9.54129 11.946 9.84726C11.9989 10.2223 11.9817 10.6039 11.8953 10.9727C11.6871 11.8617 11.417 12.7395 11.1807 13.623C11.1351 13.8223 11.1125 14.0262 11.1132 14.2307C11.0992 14.2972 11.0999 14.3659 11.1153 14.4321C11.1306 14.4983 11.1602 14.5604 11.202 14.614C11.2438 14.6675 11.2967 14.7113 11.3572 14.7423C11.4177 14.7733 11.4842 14.7908 11.5521 14.7934C11.8562 14.8121 12.1613 14.8026 12.4637 14.7653C12.5711 14.7331 12.6748 14.6897 12.7731 14.6358C12.7169 14.8384 12.6775 15.0129 12.6268 15.1985C12.6268 15.2323 12.5593 15.2604 12.5143 15.2773C12.097 15.4424 11.6705 15.5833 11.237 15.6993C10.9311 15.7905 10.6094 15.8155 10.2931 15.7729C9.97687 15.7302 9.6733 15.6207 9.40256 15.4518C9.21048 15.3256 9.05653 15.1494 8.95735 14.9421C8.85818 14.7349 8.81755 14.5044 8.83986 14.2757C8.96287 13.4048 9.16824 12.5475 9.45321 11.7154C9.56965 11.2963 9.65615 10.8695 9.71205 10.4381C9.76269 9.95417 9.5151 9.72346 9.01993 9.7516C8.72124 9.78236 8.42445 9.82932 8.13086 9.89227Z" fill="#11074C"/>
<path d="M12.8855 6.45981C12.8893 6.69962 12.8211 6.93506 12.6897 7.13569C12.5583 7.33632 12.3697 7.49291 12.1483 7.58521C11.8746 7.71374 11.5672 7.75247 11.2701 7.69588C10.973 7.63929 10.7014 7.49027 10.494 7.2701C10.3753 7.15057 10.2849 7.0059 10.2295 6.84677C10.1741 6.68763 10.1552 6.5181 10.1741 6.35067C10.193 6.18325 10.2493 6.0222 10.3387 5.87942C10.4282 5.73664 10.5485 5.61577 10.691 5.52573C10.8667 5.39052 11.0723 5.2995 11.2905 5.26032C11.5087 5.22113 11.7331 5.23493 11.9449 5.30056C12.1566 5.36618 12.3495 5.48171 12.5074 5.63742C12.6652 5.79314 12.7833 5.98447 12.8517 6.19534C12.868 6.28278 12.8793 6.37108 12.8855 6.45981Z" fill="#11074C"/>
</svg>
