<svg width="21" height="20" viewBox="0 0 21 20" fill="none" xmlns="http://www.w3.org/2000/svg">
<path d="M19.4842 19.5445C19.7849 19.8293 20.2596 19.8165 20.5445 19.5158C20.8293 19.2151 20.8165 18.7404 20.5158 18.4555L19.4842 19.5445ZM9.66667 5.5C9.66667 5.08579 9.33088 4.75 8.91667 4.75C8.50245 4.75 8.16667 5.08579 8.16667 5.5H9.66667ZM8.16667 11.5C8.16667 11.9142 8.50245 12.25 8.91667 12.25C9.33088 12.25 9.66667 11.9142 9.66667 11.5H8.16667ZM12.0833 9.25C12.4975 9.25 12.8333 8.91421 12.8333 8.5C12.8333 8.08579 12.4975 7.75 12.0833 7.75V9.25ZM5.75 7.75C5.33579 7.75 5 8.08579 5 8.5C5 8.91421 5.33579 9.25 5.75 9.25V7.75ZM8.91667 15.25C4.9199 15.25 1.75 12.1902 1.75 8.5H0.25C0.25 13.094 4.16892 16.75 8.91667 16.75V15.25ZM1.75 8.5C1.75 4.80977 4.9199 1.75 8.91667 1.75V0.25C4.16892 0.25 0.25 3.90596 0.25 8.5H1.75ZM8.91667 1.75C12.9134 1.75 16.0833 4.80977 16.0833 8.5H17.5833C17.5833 3.90596 13.6644 0.25 8.91667 0.25V1.75ZM20.5158 18.4555L15.0304 13.2588L13.9988 14.3478L19.4842 19.5445L20.5158 18.4555ZM16.0833 8.5C16.0833 10.3504 15.2929 12.0328 13.9988 13.2588L15.0304 14.3478C16.6015 12.8593 17.5833 10.7917 17.5833 8.5H16.0833ZM13.9988 13.2588C12.704 14.4855 10.9088 15.25 8.91667 15.25V16.75C11.2968 16.75 13.46 15.8355 15.0304 14.3478L13.9988 13.2588ZM8.16667 5.5V11.5H9.66667V5.5H8.16667ZM12.0833 7.75H5.75V9.25H12.0833V7.75Z" fill="#0F172A"/>
</svg>
